<?xml version="1.0" encoding="UTF-8" standalone="no"?>
<!DOCTYPE svg PUBLIC "-//W3C//DTD SVG 1.1//EN" "http://www.w3.org/Graphics/SVG/1.1/DTD/svg11.dtd">
<svg xmlns="http://www.w3.org/2000/svg" version="1.1" viewBox="0.00 0.00 264.00 72.00" width="264.00" height="72.00">
<g stroke-width="2.00" fill="none" stroke-linecap="butt">
<path stroke="#829ee4" d="
  M 189.66 64.45
  Q 189.80 64.26 189.96 64.07
  Q 190.27 63.71 190.34 63.34
  C 190.87 60.31 187.93 59.54 185.59 59.85
  A 0.78 0.78 0.0 0 0 184.92 60.75
  L 184.97 61.05
  Q 185.15 62.16 186.25 61.90
  Q 187.13 61.68 187.98 62.05
  A 0.67 0.67 0.0 0 1 188.01 63.27
  Q 187.08 63.72 186.52 62.86
  Q 186.24 62.43 185.72 62.46
  L 184.96 62.50
  Q 184.45 62.53 184.48 63.04
  L 184.71 66.35
  A 0.81 0.81 0.0 0 0 186.27 66.59
  Q 186.76 65.35 188.09 65.21
  A 0.28 0.28 0.0 0 1 188.40 65.49
  Q 188.42 66.59 189.42 66.82
  A 0.69 0.69 0.0 0 0 190.25 66.30
  Q 190.46 65.42 189.79 65.07
  Q 189.35 64.84 189.66 64.45"
/>
<path stroke="#829ee4" d="
  M 115.97 65.06
  L 114.57 65.03
  Q 114.12 65.03 113.87 65.40
  Q 113.62 65.78 113.76 66.21
  Q 113.91 66.66 114.54 66.88
  C 119.41 68.55 120.98 62.57 116.50 62.70
  Q 116.25 62.70 116.24 62.45
  L 116.24 62.19
  Q 116.24 62.09 116.38 62.09
  L 117.73 62.07
  Q 118.17 62.06 118.43 61.71
  Q 119.27 60.56 118.20 60.08
  C 114.64 58.51 111.62 63.55 115.30 64.44
  Q 115.69 64.53 116.05 64.68
  Q 117.05 65.07 115.97 65.06"
/>
<path stroke="#829ee4" d="
  M 135.73 65.03
  Q 135.33 65.74 135.29 66.47
  Q 135.27 66.99 135.79 66.99
  L 136.43 66.99
  Q 136.98 66.99 136.87 66.45
  L 136.64 65.32
  Q 136.55 64.85 136.77 64.43
  C 139.26 59.59 126.87 57.34 129.48 66.20
  Q 129.83 67.38 130.90 66.83
  Q 131.39 66.57 131.38 66.01
  C 131.35 64.13 131.00 61.47 134.11 62.15
  A 0.43 0.41 -84.8 0 1 134.43 62.55
  L 134.43 62.85
  Q 134.44 63.13 134.17 63.08
  Q 132.99 62.87 132.89 63.04
  Q 131.49 65.44 134.28 64.70
  Q 134.88 64.54 135.53 64.63
  Q 135.93 64.68 135.73 65.03"
/>
<path stroke="#829ee4" d="
  M 143.32 64.74
  Q 143.44 64.51 143.63 64.37
  Q 144.06 64.05 144.19 63.53
  C 144.92 60.47 141.59 59.52 139.15 60.27
  Q 138.78 60.39 138.75 60.78
  Q 138.72 61.24 138.89 61.66
  A 0.67 0.67 0.0 0 0 139.51 62.08
  L 141.00 62.10
  Q 143.44 62.14 141.53 63.66
  Q 141.40 63.76 140.83 63.56
  Q 140.42 63.41 140.11 63.11
  L 139.35 62.36
  A 0.48 0.48 0.0 0 0 138.57 62.53
  Q 137.87 64.29 138.24 65.70
  Q 138.88 68.18 140.41 65.85
  Q 140.95 65.03 142.22 65.67
  Q 142.40 65.76 142.45 65.96
  L 142.59 66.54
  Q 142.68 66.93 143.07 66.97
  L 143.42 67.00
  A 0.83 0.83 0.0 0 0 144.30 65.98
  Q 144.12 65.28 143.58 65.22
  Q 143.10 65.16 143.32 64.74"
/>
<path stroke="#829ee4" d="
  M 149.57 62.03
  A 0.33 0.33 0.0 0 1 149.91 61.70
  L 151.18 61.73
  A 0.33 0.33 0.0 0 0 151.51 61.43
  L 151.58 60.47
  A 0.33 0.33 0.0 0 0 151.26 60.11
  L 145.85 59.97
  A 0.33 0.33 0.0 0 0 145.51 60.28
  L 145.43 61.56
  A 0.33 0.33 0.0 0 0 145.73 61.91
  L 147.19 62.03
  A 0.33 0.33 0.0 0 1 147.49 62.36
  L 147.48 66.65
  A 0.33 0.33 0.0 0 0 147.82 66.99
  L 149.27 66.96
  A 0.33 0.33 0.0 0 0 149.60 66.63
  L 149.57 62.03"
/>
<path stroke="#829ee4" d="
  M 164.42 62.62
  Q 163.75 64.05 163.97 65.79
  Q 164.32 68.56 166.19 65.91
  Q 166.47 65.52 166.92 65.25
  A 0.49 0.49 0.0 0 1 167.65 65.52
  Q 167.89 66.28 168.42 66.86
  A 0.61 0.59 49.8 0 0 169.23 66.94
  Q 169.87 66.45 169.54 65.72
  Q 168.98 64.52 169.57 63.67
  Q 169.86 63.25 169.78 62.74
  Q 169.21 59.15 164.87 60.23
  Q 163.98 60.45 164.33 61.30
  L 164.44 61.57
  Q 164.66 62.10 164.42 62.62"
/>
<path stroke="#829ee4" d="
  M 171.57 62.54
  Q 170.36 64.30 171.22 66.33
  Q 171.41 66.78 171.89 66.86
  C 177.61 67.79 178.42 59.98 172.45 59.95
  A 1.05 1.05 0.0 0 0 171.57 60.43
  Q 170.99 61.34 171.47 61.76
  Q 171.87 62.10 171.57 62.54"
/>
<path stroke="#829ee4" d="
  M 180.53 62.55
  Q 181.47 61.93 182.64 61.89
  Q 183.15 61.87 183.27 61.37
  Q 183.32 61.17 183.36 60.90
  A 1.19 1.19 0.0 0 0 181.81 59.58
  Q 176.62 61.29 178.24 65.28
  Q 178.98 67.10 182.31 66.94
  Q 183.18 66.90 183.28 66.03
  L 183.33 65.63
  A 0.50 0.50 0.0 0 0 182.84 65.07
  C 181.75 65.04 180.20 64.86 179.87 63.83
  Q 179.81 63.62 179.99 63.74
  Q 181.09 64.52 182.49 64.15
  A 0.80 0.80 0.0 0 0 183.06 63.51
  Q 183.12 63.12 182.90 62.87
  Q 182.66 62.58 182.05 62.67
  Q 181.36 62.76 180.68 62.90
  Q 179.72 63.09 180.53 62.55"
/>
<path stroke="#829ee4" d="
  M 125.83 63.33
  Q 126.24 64.32 125.96 65.59
  A 1.15 1.15 0.0 0 0 126.62 66.89
  L 126.85 67.00
  A 0.70 0.70 0.0 0 0 127.80 66.56
  Q 128.93 62.89 126.30 60.54
  Q 125.82 60.11 125.28 60.45
  Q 124.16 61.16 123.04 60.43
  A 0.81 0.81 0.0 0 0 122.07 60.50
  Q 119.38 62.87 120.52 66.48
  Q 120.66 66.91 121.10 67.00
  Q 121.63 67.10 122.02 66.77
  Q 122.38 66.46 122.42 65.70
  Q 122.50 64.38 122.54 63.02
  Q 122.55 62.77 122.81 62.78
  L 123.10 62.80
  Q 123.23 62.80 123.23 62.93
  L 123.18 64.96
  A 0.75 0.75 0.0 0 0 123.96 65.73
  L 124.51 65.71
  Q 125.35 65.69 125.26 64.85
  Q 125.17 64.11 125.31 63.39
  Q 125.48 62.51 125.83 63.33"
/>
<path stroke="#829ee4" d="
  M 160.34 60.41
  Q 159.37 61.11 158.27 60.50
  Q 157.84 60.26 157.41 60.51
  Q 154.48 62.22 155.90 65.03
  C 158.00 69.20 165.79 65.93 161.42 60.56
  A 0.80 0.80 0.0 0 0 160.34 60.41"
/>
<path stroke="#829ee4" d="
  M 165.65 62.54
  Q 166.29 64.03 167.54 63.24
  A 0.56 0.56 0.0 0 0 167.47 62.26
  Q 166.75 61.93 165.96 62.01
  Q 165.44 62.06 165.65 62.54"
/>
<path stroke="#829ee4" d="
  M 173.04 63.26
  L 173.05 64.27
  A 0.53 0.52 84.0 0 0 173.67 64.78
  Q 174.08 64.70 174.26 64.22
  Q 175.01 62.28 172.44 61.82
  A 0.25 0.25 0.0 0 0 172.25 62.27
  L 172.69 62.58
  Q 173.04 62.83 173.04 63.26"
/>
<path stroke="#829ee4" d="
  M 160.66 63.49
  A 1.48 1.48 0.0 0 0 159.18 62.01
  A 1.48 1.48 0.0 0 0 157.70 63.49
  A 1.48 1.48 0.0 0 0 159.18 64.97
  A 1.48 1.48 0.0 0 0 160.66 63.49"
/>
</g>
<path fill="#053dc8" d="
  M 38.65 0.00
  L 45.89 0.00
  Q 67.92 3.73 75.44 23.40
  A 0.39 0.38 -37.2 0 0 76.11 23.49
  C 82.85 14.43 97.30 21.77 92.44 32.05
  Q 91.66 33.69 88.88 36.37
  Q 72.23 52.35 55.59 68.34
  Q 53.74 70.12 51.98 70.95
  A 1.33 1.31 41.1 0 1 50.99 71.01
  Q 49.59 70.53 48.52 69.51
  Q 36.69 58.33 24.97 47.03
  C 22.37 44.53 20.89 42.05 23.90 39.15
  Q 27.62 35.57 30.92 32.49
  A 3.90 3.90 0.0 0 1 36.28 32.54
  L 50.89 46.64
  A 0.68 0.68 0.0 0 0 51.83 46.64
  C 53.48 45.06 55.28 43.38 56.39 41.48
  C 64.46 27.73 49.38 13.16 35.57 19.31
  Q 32.95 20.48 28.64 24.60
  Q 22.49 30.47 16.40 36.40
  C 7.97 44.62 -5.43 32.67 3.30 24.07
  C 11.57 15.92 21.49 4.00 32.74 1.49
  Q 37.24 0.49 38.65 0.00
  Z"
/>
<path fill="#053dc8" d="
  M 159.23 33.78
  L 146.87 33.79
  A 0.31 0.31 0.0 0 1 146.56 33.41
  L 150.04 17.72
  A 0.31 0.31 0.0 0 1 150.34 17.48
  L 157.61 17.46
  A 0.31 0.31 0.0 0 0 157.91 17.21
  L 158.73 13.06
  A 0.31 0.31 0.0 0 1 159.03 12.81
  L 163.98 12.80
  A 0.31 0.31 0.0 0 1 164.28 13.19
  L 163.27 17.08
  A 0.31 0.31 0.0 0 0 163.57 17.47
  L 168.44 17.47
  A 0.31 0.31 0.0 0 0 168.64 17.40
  L 173.92 12.93
  A 0.31 0.31 0.0 0 1 174.25 12.88
  L 178.16 14.61
  A 0.31 0.31 0.0 0 1 178.23 15.14
  L 175.99 16.91
  A 0.31 0.31 0.0 0 0 176.19 17.46
  L 181.58 17.48
  A 0.31 0.31 0.0 0 1 181.89 17.86
  L 178.40 33.55
  A 0.31 0.31 0.0 0 1 178.10 33.79
  L 165.42 33.79
  A 0.31 0.31 0.0 0 0 165.12 34.01
  L 164.68 35.42
  A 0.31 0.31 0.0 0 0 164.97 35.82
  L 180.41 35.80
  A 0.31 0.31 0.0 0 1 180.71 36.17
  L 179.92 40.01
  A 0.31 0.31 0.0 0 1 179.62 40.26
  L 164.01 40.26
  A 0.31 0.31 0.0 0 0 163.71 40.51
  L 162.71 45.27
  A 0.31 0.31 0.0 0 1 162.41 45.52
  L 157.28 45.50
  A 0.31 0.31 0.0 0 1 156.98 45.12
  L 158.10 40.66
  A 0.31 0.31 0.0 0 0 157.80 40.27
  L 142.41 40.26
  A 0.31 0.31 0.0 0 1 142.11 39.88
  L 142.98 36.06
  A 0.31 0.31 0.0 0 1 143.28 35.82
  L 158.99 35.81
  A 0.31 0.31 0.0 0 0 159.29 35.55
  L 159.54 34.14
  A 0.31 0.31 0.0 0 0 159.23 33.78
  Z
  M 162.1951 21.9666
  A 0.49 0.49 0.0 0 0 161.7008 21.4809
  L 155.0211 21.5392
  A 0.49 0.49 0.0 0 0 154.5353 22.0334
  L 154.5449 23.1334
  A 0.49 0.49 0.0 0 0 155.0392 23.6191
  L 161.7189 23.5608
  A 0.49 0.49 0.0 0 0 162.2047 23.0666
  L 162.1951 21.9666
  Z
  M 175.2669 21.9500
  A 0.45 0.45 0.0 0 0 174.8145 21.5024
  L 168.0746 21.5377
  A 0.45 0.45 0.0 0 0 167.6270 21.9900
  L 167.6331 23.1700
  A 0.45 0.45 0.0 0 0 168.0855 23.6176
  L 174.8254 23.5823
  A 0.45 0.45 0.0 0 0 175.2730 23.1300
  L 175.2669 21.9500
  Z
  M 160.7771 28.0999
  A 0.53 0.53 0.0 0 0 160.2444 27.5727
  L 153.6244 27.6073
  A 0.53 0.53 0.0 0 0 153.0972 28.1401
  L 153.1029 29.2201
  A 0.53 0.53 0.0 0 0 153.6356 29.7473
  L 160.2556 29.7127
  A 0.53 0.53 0.0 0 0 160.7828 29.1799
  L 160.7771 28.0999
  Z
  M 173.8777 27.9867
  A 0.41 0.41 0.0 0 0 173.4662 27.5782
  L 166.6863 27.6018
  A 0.41 0.41 0.0 0 0 166.2777 28.0133
  L 166.2823 29.3333
  A 0.41 0.41 0.0 0 0 166.6938 29.7418
  L 173.4737 29.7182
  A 0.41 0.41 0.0 0 0 173.8823 29.3067
  L 173.8777 27.9867
  Z"
/>
<path fill="#053dc8" d="
  M 194.51 20.91
  L 190.97 21.08
  A 0.31 0.31 0.0 0 1 190.65 20.70
  L 191.44 17.22
  Q 191.55 16.76 192.03 16.76
  L 205.31 16.76
  Q 205.90 16.76 206.01 16.19
  L 206.39 14.24
  Q 206.53 13.54 207.24 13.55
  L 211.71 13.56
  Q 212.32 13.56 212.14 14.15
  L 211.53 16.19
  Q 211.36 16.76 211.95 16.76
  L 225.43 16.76
  Q 225.86 16.76 225.77 17.18
  L 225.06 20.58
  Q 224.95 21.11 224.42 21.07
  L 221.05 20.86
  Q 220.54 20.83 220.73 21.31
  Q 220.84 21.59 221.31 21.67
  Q 222.03 21.78 222.26 22.18
  Q 222.53 22.66 222.11 23.00
  L 217.02 27.06
  Q 216.15 27.77 217.27 27.77
  L 224.79 27.76
  Q 225.08 27.76 225.02 28.04
  L 224.17 31.89
  Q 224.11 32.16 223.83 32.16
  L 217.75 32.18
  Q 217.16 32.18 217.04 32.75
  L 215.68 38.98
  Q 215.54 39.64 216.22 39.63
  L 218.03 39.62
  Q 218.71 39.61 218.57 40.28
  L 217.92 43.44
  Q 217.76 44.16 217.02 44.16
  L 211.29 44.16
  A 1.95 1.95 0.0 0 1 209.39 41.78
  L 211.47 32.46
  Q 211.55 32.14 211.21 32.15
  L 208.49 32.20
  Q 208.04 32.21 207.94 32.65
  L 205.16 45.40
  A 0.39 0.38 -83.3 0 1 204.79 45.70
  L 199.80 45.70
  A 0.33 0.33 0.0 0 1 199.48 45.30
  L 202.29 32.80
  Q 202.39 32.35 201.97 32.18
  C 201.04 31.81 200.16 32.13 199.57 32.97
  Q 195.74 38.45 192.10 43.79
  Q 191.90 44.08 191.56 43.98
  L 187.17 42.65
  A 0.26 0.25 25.4 0 1 187.03 42.26
  L 193.72 32.69
  A 0.35 0.35 0.0 0 0 193.43 32.14
  L 186.81 32.19
  A 0.32 0.32 0.0 0 1 186.50 31.80
  L 187.34 28.08
  Q 187.42 27.75 187.75 27.75
  L 195.53 27.76
  Q 196.34 27.76 195.82 27.15
  L 192.76 23.51
  A 0.73 0.73 0.0 0 1 192.94 22.42
  L 194.66 21.36
  Q 195.47 20.86 194.51 20.91
  Z
  M 201.76 25.60
  A 0.32 0.32 0.0 0 1 201.67 26.08
  L 199.76 27.17
  A 0.32 0.32 0.0 0 0 199.91 27.77
  L 203.14 27.77
  A 0.32 0.32 0.0 0 0 203.46 27.52
  L 204.80 21.43
  A 0.32 0.32 0.0 0 0 204.49 21.05
  L 198.69 20.99
  A 0.32 0.32 0.0 0 0 198.44 21.51
  L 201.76 25.60
  Z
  M 211.76 25.49
  L 216.96 21.47
  Q 217.63 20.96 216.79 20.97
  L 211.53 21.05
  Q 210.58 21.07 210.37 21.99
  L 209.25 26.76
  Q 209.02 27.71 210.00 27.74
  L 212.66 27.83
  Q 213.39 27.85 212.92 27.29
  Q 212.45 26.75 211.81 26.37
  A 0.53 0.53 0.0 0 1 211.76 25.49
  Z"
/>
<path fill="#053dc8" d="
  M 106.92 17.55
  L 111.45 14.48
  A 0.31 0.31 0.0 0 1 111.84 14.52
  L 114.80 17.53
  A 0.31 0.31 0.0 0 1 114.75 18.00
  L 110.32 21.04
  A 0.31 0.31 0.0 0 1 109.93 21.00
  L 106.88 18.03
  A 0.31 0.31 0.0 0 1 106.92 17.55
  Z"
/>
<path fill="#053dc8" d="
  M 252.70 19.75
  L 230.71 19.77
  A 0.27 0.27 0.0 0 1 230.45 19.44
  L 231.30 15.56
  A 0.49 0.48 -82.6 0 1 231.78 15.18
  L 261.91 15.20
  A 1.84 1.83 -81.1 0 1 263.65 17.60
  L 263.10 19.32
  Q 262.93 19.84 262.44 20.07
  L 247.14 27.10
  Q 246.71 27.30 246.61 27.76
  L 243.26 42.96
  A 3.31 3.30 6.1 0 1 240.04 45.55
  L 234.25 45.58
  Q 233.39 45.58 233.58 44.75
  L 234.32 41.51
  Q 234.49 40.77 235.24 40.80
  L 236.76 40.86
  Q 237.47 40.88 237.62 40.19
  L 240.95 25.50
  A 1.06 1.04 -5.2 0 1 241.57 24.77
  L 252.78 20.17
  Q 253.81 19.75 252.70 19.75
  Z"
/>
<path fill="#053dc8" d="
  M 130.86 20.14
  L 118.63 20.18
  A 0.34 0.34 0.0 0 1 118.29 19.77
  L 119.15 15.57
  A 0.34 0.34 0.0 0 1 119.49 15.30
  L 143.16 15.30
  A 0.34 0.34 0.0 0 1 143.49 15.72
  L 142.52 19.91
  A 0.34 0.34 0.0 0 1 142.19 20.18
  L 137.57 20.13
  A 0.34 0.34 0.0 0 0 137.23 20.40
  L 131.66 45.32
  A 0.34 0.34 0.0 0 1 131.33 45.59
  L 122.67 45.56
  A 0.34 0.34 0.0 0 1 122.34 45.14
  L 123.29 41.03
  A 0.34 0.34 0.0 0 1 123.63 40.77
  L 126.31 40.87
  A 0.34 0.34 0.0 0 0 126.65 40.60
  L 131.20 20.56
  A 0.34 0.34 0.0 0 0 130.86 20.14
  Z"
/>
<path fill="#053dc8" d="
  M 105.90 28.72
  Q 105.58 28.70 105.28 28.59
  Q 104.79 28.42 104.91 27.91
  L 105.77 24.33
  Q 105.89 23.80 106.43 23.80
  L 112.95 23.79
  Q 113.53 23.79 113.40 24.36
  L 109.94 40.13
  Q 109.78 40.86 110.52 40.85
  L 115.25 40.79
  A 0.38 0.37 5.9 0 1 115.63 41.25
  L 114.81 45.02
  Q 114.69 45.58 114.11 45.58
  L 105.50 45.56
  A 2.31 2.31 0.0 0 1 103.25 42.74
  L 106.30 29.24
  Q 106.41 28.74 105.90 28.72
  Z"
/>
<path fill="#053dc8" d="
  M 218.69 71.29
  A 0.38 0.38 0.0 0 1 218.31 71.67
  L 103.61 71.67
  A 0.38 0.38 0.0 0 1 103.23 71.29
  L 103.23 54.09
  A 0.38 0.38 0.0 0 1 103.61 53.71
  L 218.31 53.71
  A 0.38 0.38 0.0 0 1 218.69 54.09
  L 218.69 71.29
  Z
  M 189.66 64.45
  Q 189.80 64.26 189.96 64.07
  Q 190.27 63.71 190.34 63.34
  C 190.87 60.31 187.93 59.54 185.59 59.85
  A 0.78 0.78 0.0 0 0 184.92 60.75
  L 184.97 61.05
  Q 185.15 62.16 186.25 61.90
  Q 187.13 61.68 187.98 62.05
  A 0.67 0.67 0.0 0 1 188.01 63.27
  Q 187.08 63.72 186.52 62.86
  Q 186.24 62.43 185.72 62.46
  L 184.96 62.50
  Q 184.45 62.53 184.48 63.04
  L 184.71 66.35
  A 0.81 0.81 0.0 0 0 186.27 66.59
  Q 186.76 65.35 188.09 65.21
  A 0.28 0.28 0.0 0 1 188.40 65.49
  Q 188.42 66.59 189.42 66.82
  A 0.69 0.69 0.0 0 0 190.25 66.30
  Q 190.46 65.42 189.79 65.07
  Q 189.35 64.84 189.66 64.45
  Z
  M 115.97 65.06
  L 114.57 65.03
  Q 114.12 65.03 113.87 65.40
  Q 113.62 65.78 113.76 66.21
  Q 113.91 66.66 114.54 66.88
  C 119.41 68.55 120.98 62.57 116.50 62.70
  Q 116.25 62.70 116.24 62.45
  L 116.24 62.19
  Q 116.24 62.09 116.38 62.09
  L 117.73 62.07
  Q 118.17 62.06 118.43 61.71
  Q 119.27 60.56 118.20 60.08
  C 114.64 58.51 111.62 63.55 115.30 64.44
  Q 115.69 64.53 116.05 64.68
  Q 117.05 65.07 115.97 65.06
  Z
  M 135.73 65.03
  Q 135.33 65.74 135.29 66.47
  Q 135.27 66.99 135.79 66.99
  L 136.43 66.99
  Q 136.98 66.99 136.87 66.45
  L 136.64 65.32
  Q 136.55 64.85 136.77 64.43
  C 139.26 59.59 126.87 57.34 129.48 66.20
  Q 129.83 67.38 130.90 66.83
  Q 131.39 66.57 131.38 66.01
  C 131.35 64.13 131.00 61.47 134.11 62.15
  A 0.43 0.41 -84.8 0 1 134.43 62.55
  L 134.43 62.85
  Q 134.44 63.13 134.17 63.08
  Q 132.99 62.87 132.89 63.04
  Q 131.49 65.44 134.28 64.70
  Q 134.88 64.54 135.53 64.63
  Q 135.93 64.68 135.73 65.03
  Z
  M 143.32 64.74
  Q 143.44 64.51 143.63 64.37
  Q 144.06 64.05 144.19 63.53
  C 144.92 60.47 141.59 59.52 139.15 60.27
  Q 138.78 60.39 138.75 60.78
  Q 138.72 61.24 138.89 61.66
  A 0.67 0.67 0.0 0 0 139.51 62.08
  L 141.00 62.10
  Q 143.44 62.14 141.53 63.66
  Q 141.40 63.76 140.83 63.56
  Q 140.42 63.41 140.11 63.11
  L 139.35 62.36
  A 0.48 0.48 0.0 0 0 138.57 62.53
  Q 137.87 64.29 138.24 65.70
  Q 138.88 68.18 140.41 65.85
  Q 140.95 65.03 142.22 65.67
  Q 142.40 65.76 142.45 65.96
  L 142.59 66.54
  Q 142.68 66.93 143.07 66.97
  L 143.42 67.00
  A 0.83 0.83 0.0 0 0 144.30 65.98
  Q 144.12 65.28 143.58 65.22
  Q 143.10 65.16 143.32 64.74
  Z
  M 149.57 62.03
  A 0.33 0.33 0.0 0 1 149.91 61.70
  L 151.18 61.73
  A 0.33 0.33 0.0 0 0 151.51 61.43
  L 151.58 60.47
  A 0.33 0.33 0.0 0 0 151.26 60.11
  L 145.85 59.97
  A 0.33 0.33 0.0 0 0 145.51 60.28
  L 145.43 61.56
  A 0.33 0.33 0.0 0 0 145.73 61.91
  L 147.19 62.03
  A 0.33 0.33 0.0 0 1 147.49 62.36
  L 147.48 66.65
  A 0.33 0.33 0.0 0 0 147.82 66.99
  L 149.27 66.96
  A 0.33 0.33 0.0 0 0 149.60 66.63
  L 149.57 62.03
  Z
  M 164.42 62.62
  Q 163.75 64.05 163.97 65.79
  Q 164.32 68.56 166.19 65.91
  Q 166.47 65.52 166.92 65.25
  A 0.49 0.49 0.0 0 1 167.65 65.52
  Q 167.89 66.28 168.42 66.86
  A 0.61 0.59 49.8 0 0 169.23 66.94
  Q 169.87 66.45 169.54 65.72
  Q 168.98 64.52 169.57 63.67
  Q 169.86 63.25 169.78 62.74
  Q 169.21 59.15 164.87 60.23
  Q 163.98 60.45 164.33 61.30
  L 164.44 61.57
  Q 164.66 62.10 164.42 62.62
  Z
  M 171.57 62.54
  Q 170.36 64.30 171.22 66.33
  Q 171.41 66.78 171.89 66.86
  C 177.61 67.79 178.42 59.98 172.45 59.95
  A 1.05 1.05 0.0 0 0 171.57 60.43
  Q 170.99 61.34 171.47 61.76
  Q 171.87 62.10 171.57 62.54
  Z
  M 180.53 62.55
  Q 181.47 61.93 182.64 61.89
  Q 183.15 61.87 183.27 61.37
  Q 183.32 61.17 183.36 60.90
  A 1.19 1.19 0.0 0 0 181.81 59.58
  Q 176.62 61.29 178.24 65.28
  Q 178.98 67.10 182.31 66.94
  Q 183.18 66.90 183.28 66.03
  L 183.33 65.63
  A 0.50 0.50 0.0 0 0 182.84 65.07
  C 181.75 65.04 180.20 64.86 179.87 63.83
  Q 179.81 63.62 179.99 63.74
  Q 181.09 64.52 182.49 64.15
  A 0.80 0.80 0.0 0 0 183.06 63.51
  Q 183.12 63.12 182.90 62.87
  Q 182.66 62.58 182.05 62.67
  Q 181.36 62.76 180.68 62.90
  Q 179.72 63.09 180.53 62.55
  Z
  M 125.83 63.33
  Q 126.24 64.32 125.96 65.59
  A 1.15 1.15 0.0 0 0 126.62 66.89
  L 126.85 67.00
  A 0.70 0.70 0.0 0 0 127.80 66.56
  Q 128.93 62.89 126.30 60.54
  Q 125.82 60.11 125.28 60.45
  Q 124.16 61.16 123.04 60.43
  A 0.81 0.81 0.0 0 0 122.07 60.50
  Q 119.38 62.87 120.52 66.48
  Q 120.66 66.91 121.10 67.00
  Q 121.63 67.10 122.02 66.77
  Q 122.38 66.46 122.42 65.70
  Q 122.50 64.38 122.54 63.02
  Q 122.55 62.77 122.81 62.78
  L 123.10 62.80
  Q 123.23 62.80 123.23 62.93
  L 123.18 64.96
  A 0.75 0.75 0.0 0 0 123.96 65.73
  L 124.51 65.71
  Q 125.35 65.69 125.26 64.85
  Q 125.17 64.11 125.31 63.39
  Q 125.48 62.51 125.83 63.33
  Z
  M 160.34 60.41
  Q 159.37 61.11 158.27 60.50
  Q 157.84 60.26 157.41 60.51
  Q 154.48 62.22 155.90 65.03
  C 158.00 69.20 165.79 65.93 161.42 60.56
  A 0.80 0.80 0.0 0 0 160.34 60.41
  Z"
/>
<path fill="#053dc8" d="
  M 236.18 61.50
  L 240.98 56.92
  A 0.76 0.76 0.0 0 1 242.00 56.90
  L 243.32 58.03
  A 0.76 0.76 0.0 0 1 243.36 59.15
  L 236.21 66.03
  A 0.76 0.76 0.0 0 1 235.16 66.03
  L 230.65 61.75
  A 0.76 0.76 0.0 0 1 230.64 60.66
  L 231.94 59.39
  A 0.76 0.76 0.0 0 1 233.00 59.39
  L 235.13 61.49
  A 0.76 0.76 0.0 0 0 236.18 61.50
  Z"
/>
<path fill="#fefeff" d="
  M 189.79 65.07
  Q 190.46 65.42 190.25 66.30
  A 0.69 0.69 0.0 0 1 189.42 66.82
  Q 188.42 66.59 188.40 65.49
  A 0.28 0.28 0.0 0 0 188.09 65.21
  Q 186.76 65.35 186.27 66.59
  A 0.81 0.81 0.0 0 1 184.71 66.35
  L 184.48 63.04
  Q 184.45 62.53 184.96 62.50
  L 185.72 62.46
  Q 186.24 62.43 186.52 62.86
  Q 187.08 63.72 188.01 63.27
  A 0.67 0.67 0.0 0 0 187.98 62.05
  Q 187.13 61.68 186.25 61.90
  Q 185.15 62.16 184.97 61.05
  L 184.92 60.75
  A 0.78 0.78 0.0 0 1 185.59 59.85
  C 187.93 59.54 190.87 60.31 190.34 63.34
  Q 190.27 63.71 189.96 64.07
  Q 189.80 64.26 189.66 64.45
  Q 189.35 64.84 189.79 65.07
  Z"
/>
<path fill="#fefeff" d="
  M 116.05 64.68
  Q 115.69 64.53 115.30 64.44
  C 111.62 63.55 114.64 58.51 118.20 60.08
  Q 119.27 60.56 118.43 61.71
  Q 118.17 62.06 117.73 62.07
  L 116.38 62.09
  Q 116.24 62.09 116.24 62.19
  L 116.24 62.45
  Q 116.25 62.70 116.50 62.70
  C 120.98 62.57 119.41 68.55 114.54 66.88
  Q 113.91 66.66 113.76 66.21
  Q 113.62 65.78 113.87 65.40
  Q 114.12 65.03 114.57 65.03
  L 115.97 65.06
  Q 117.05 65.07 116.05 64.68
  Z"
/>
<path fill="#fefeff" d="
  M 135.53 64.63
  Q 134.88 64.54 134.28 64.70
  Q 131.49 65.44 132.89 63.04
  Q 132.99 62.87 134.17 63.08
  Q 134.44 63.13 134.43 62.85
  L 134.43 62.55
  A 0.43 0.41 -84.8 0 0 134.11 62.15
  C 131.00 61.47 131.35 64.13 131.38 66.01
  Q 131.39 66.57 130.90 66.83
  Q 129.83 67.38 129.48 66.20
  C 126.87 57.34 139.26 59.59 136.77 64.43
  Q 136.55 64.85 136.64 65.32
  L 136.87 66.45
  Q 136.98 66.99 136.43 66.99
  L 135.79 66.99
  Q 135.27 66.99 135.29 66.47
  Q 135.33 65.74 135.73 65.03
  Q 135.93 64.68 135.53 64.63
  Z"
/>
<path fill="#fefeff" d="
  M 143.58 65.22
  Q 144.12 65.28 144.30 65.98
  A 0.83 0.83 0.0 0 1 143.42 67.00
  L 143.07 66.97
  Q 142.68 66.93 142.59 66.54
  L 142.45 65.96
  Q 142.40 65.76 142.22 65.67
  Q 140.95 65.03 140.41 65.85
  Q 138.88 68.18 138.24 65.70
  Q 137.87 64.29 138.57 62.53
  A 0.48 0.48 0.0 0 1 139.35 62.36
  L 140.11 63.11
  Q 140.42 63.41 140.83 63.56
  Q 141.40 63.76 141.53 63.66
  Q 143.44 62.14 141.00 62.10
  L 139.51 62.08
  A 0.67 0.67 0.0 0 1 138.89 61.66
  Q 138.72 61.24 138.75 60.78
  Q 138.78 60.39 139.15 60.27
  C 141.59 59.52 144.92 60.47 144.19 63.53
  Q 144.06 64.05 143.63 64.37
  Q 143.44 64.51 143.32 64.74
  Q 143.10 65.16 143.58 65.22
  Z"
/>
<path fill="#fefeff" d="
  M 149.57 62.03
  L 149.60 66.63
  A 0.33 0.33 0.0 0 1 149.27 66.96
  L 147.82 66.99
  A 0.33 0.33 0.0 0 1 147.48 66.65
  L 147.49 62.36
  A 0.33 0.33 0.0 0 0 147.19 62.03
  L 145.73 61.91
  A 0.33 0.33 0.0 0 1 145.43 61.56
  L 145.51 60.28
  A 0.33 0.33 0.0 0 1 145.85 59.97
  L 151.26 60.11
  A 0.33 0.33 0.0 0 1 151.58 60.47
  L 151.51 61.43
  A 0.33 0.33 0.0 0 1 151.18 61.73
  L 149.91 61.70
  A 0.33 0.33 0.0 0 0 149.57 62.03
  Z"
/>
<path fill="#fefeff" d="
  M 164.44 61.57
  L 164.33 61.30
  Q 163.98 60.45 164.87 60.23
  Q 169.21 59.15 169.78 62.74
  Q 169.86 63.25 169.57 63.67
  Q 168.98 64.52 169.54 65.72
  Q 169.87 66.45 169.23 66.94
  A 0.61 0.59 49.8 0 1 168.42 66.86
  Q 167.89 66.28 167.65 65.52
  A 0.49 0.49 0.0 0 0 166.92 65.25
  Q 166.47 65.52 166.19 65.91
  Q 164.32 68.56 163.97 65.79
  Q 163.75 64.05 164.42 62.62
  Q 164.66 62.10 164.44 61.57
  Z
  M 165.65 62.54
  Q 166.29 64.03 167.54 63.24
  A 0.56 0.56 0.0 0 0 167.47 62.26
  Q 166.75 61.93 165.96 62.01
  Q 165.44 62.06 165.65 62.54
  Z"
/>
<path fill="#fefeff" d="
  M 171.47 61.76
  Q 170.99 61.34 171.57 60.43
  A 1.05 1.05 0.0 0 1 172.45 59.95
  C 178.42 59.98 177.61 67.79 171.89 66.86
  Q 171.41 66.78 171.22 66.33
  Q 170.36 64.30 171.57 62.54
  Q 171.87 62.10 171.47 61.76
  Z
  M 173.04 63.26
  L 173.05 64.27
  A 0.53 0.52 84.0 0 0 173.67 64.78
  Q 174.08 64.70 174.26 64.22
  Q 175.01 62.28 172.44 61.82
  A 0.25 0.25 0.0 0 0 172.25 62.27
  L 172.69 62.58
  Q 173.04 62.83 173.04 63.26
  Z"
/>
<path fill="#fefeff" d="
  M 180.68 62.90
  Q 181.36 62.76 182.05 62.67
  Q 182.66 62.58 182.90 62.87
  Q 183.12 63.12 183.06 63.51
  A 0.80 0.80 0.0 0 1 182.49 64.15
  Q 181.09 64.52 179.99 63.74
  Q 179.81 63.62 179.87 63.83
  C 180.20 64.86 181.75 65.04 182.84 65.07
  A 0.50 0.50 0.0 0 1 183.33 65.63
  L 183.28 66.03
  Q 183.18 66.90 182.31 66.94
  Q 178.98 67.10 178.24 65.28
  Q 176.62 61.29 181.81 59.58
  A 1.19 1.19 0.0 0 1 183.36 60.90
  Q 183.32 61.17 183.27 61.37
  Q 183.15 61.87 182.64 61.89
  Q 181.47 61.93 180.53 62.55
  Q 179.72 63.09 180.68 62.90
  Z"
/>
<path fill="#fefeff" d="
  M 125.31 63.39
  Q 125.17 64.11 125.26 64.85
  Q 125.35 65.69 124.51 65.71
  L 123.96 65.73
  A 0.75 0.75 0.0 0 1 123.18 64.96
  L 123.23 62.93
  Q 123.23 62.80 123.10 62.80
  L 122.81 62.78
  Q 122.55 62.77 122.54 63.02
  Q 122.50 64.38 122.42 65.70
  Q 122.38 66.46 122.02 66.77
  Q 121.63 67.10 121.10 67.00
  Q 120.66 66.91 120.52 66.48
  Q 119.38 62.87 122.07 60.50
  A 0.81 0.81 0.0 0 1 123.04 60.43
  Q 124.16 61.16 125.28 60.45
  Q 125.82 60.11 126.30 60.54
  Q 128.93 62.89 127.80 66.56
  A 0.70 0.70 0.0 0 1 126.85 67.00
  L 126.62 66.89
  A 1.15 1.15 0.0 0 1 125.96 65.59
  Q 126.24 64.32 125.83 63.33
  Q 125.48 62.51 125.31 63.39
  Z"
/>
<path fill="#fefeff" d="
  M 160.34 60.41
  A 0.80 0.80 0.0 0 1 161.42 60.56
  C 165.79 65.93 158.00 69.20 155.90 65.03
  Q 154.48 62.22 157.41 60.51
  Q 157.84 60.26 158.27 60.50
  Q 159.37 61.11 160.34 60.41
  Z
  M 160.66 63.49
  A 1.48 1.48 0.0 0 0 159.18 62.01
  A 1.48 1.48 0.0 0 0 157.70 63.49
  A 1.48 1.48 0.0 0 0 159.18 64.97
  A 1.48 1.48 0.0 0 0 160.66 63.49
  Z"
/>
<path fill="#053dc8" d="
  M 172.69 62.58
  L 172.25 62.27
  A 0.25 0.25 0.0 0 1 172.44 61.82
  Q 175.01 62.28 174.26 64.22
  Q 174.08 64.70 173.67 64.78
  A 0.53 0.52 84.0 0 1 173.05 64.27
  L 173.04 63.26
  Q 173.04 62.83 172.69 62.58
  Z"
/>
<circle fill="#053dc8" cx="159.18" cy="63.49" r="1.48"/>
<path fill="#053dc8" d="
  M 165.65 62.54
  Q 165.44 62.06 165.96 62.01
  Q 166.75 61.93 167.47 62.26
  A 0.56 0.56 0.0 0 1 167.54 63.24
  Q 166.29 64.03 165.65 62.54
  Z"
/>
</svg>
