<?xml version="1.0" encoding="UTF-8" standalone="no"?>
<!DOCTYPE svg PUBLIC "-//W3C//DTD SVG 1.1//EN" "http://www.w3.org/Graphics/SVG/1.1/DTD/svg11.dtd">
<svg xmlns="http://www.w3.org/2000/svg" version="1.1" viewBox="0.00 0.00 208.00 88.00">
<g stroke-width="2.00" fill="none" stroke-linecap="butt">
<path stroke="#8dbdfc" vector-effect="non-scaling-stroke" d="
  M 48.57 69.58
  Q 62.88 62.60 63.62 45.99
  Q 63.91 39.30 63.89 32.90
  A 2.43 2.41 15.7 0 0 62.72 30.83
  L 38.72 16.23
  A 1.47 1.45 44.7 0 0 37.19 16.23
  L 13.13 30.86
  A 2.39 2.38 74.6 0 0 11.99 32.88
  C 11.97 39.66 11.24 49.10 13.84 55.15
  C 19.64 68.64 34.85 76.28 48.57 69.58"
/>
<path stroke="#8dbdfc" vector-effect="non-scaling-stroke" d="
  M 134.76 31.50
  L 121.00 31.50
  A 1.75 1.74 -90.0 0 0 119.26 33.25
  L 119.25 40.50
  Q 119.25 41.00 119.75 41.00
  L 122.22 40.99
  A 0.47 0.46 -89.4 0 0 122.68 40.53
  L 122.69 35.56
  Q 122.69 34.92 123.33 34.92
  L 149.61 34.92
  A 1.57 1.57 0.0 0 1 151.18 36.49
  L 151.15 40.80
  Q 151.15 40.98 151.34 40.99
  L 154.06 41.01
  Q 154.42 41.01 154.46 40.65
  C 154.88 36.62 154.43 31.54 150.00 31.52
  Q 144.51 31.50 138.97 31.49
  Q 138.46 31.49 138.50 30.98
  L 138.60 29.47
  Q 138.65 28.78 137.96 28.77
  L 135.99 28.77
  Q 135.24 28.77 135.25 29.51
  L 135.26 30.99
  Q 135.26 31.50 134.76 31.50"
/>
<path stroke="#8dbdfc" vector-effect="non-scaling-stroke" d="
  M 175.92 49.82
  C 176.06 53.31 177.03 60.62 173.70 61.06
  Q 173.11 61.14 173.12 61.73
  L 173.15 64.03
  A 0.49 0.49 0.0 0 0 173.69 64.52
  C 181.00 63.79 179.40 54.73 179.26 49.79
  Q 179.25 49.27 179.76 49.27
  L 193.49 49.28
  Q 194.01 49.28 194.00 48.76
  L 193.99 46.29
  Q 193.99 45.84 193.54 45.84
  L 179.83 45.87
  Q 179.28 45.87 179.29 45.33
  L 179.31 37.67
  Q 179.32 37.28 178.92 37.28
  L 176.48 37.28
  Q 175.98 37.28 175.98 37.78
  L 175.99 45.19
  Q 175.99 45.87 175.31 45.87
  L 164.51 45.83
  A 1.08 1.07 0.3 0 1 163.44 44.76
  L 163.42 35.04
  Q 163.42 34.52 163.93 34.52
  Q 175.50 34.55 187.05 34.51
  C 190.62 34.50 193.23 33.45 193.77 29.77
  Q 193.85 29.20 193.28 29.21
  L 190.96 29.23
  A 0.82 0.82 0.0 0 0 190.19 29.80
  Q 189.75 31.24 187.50 31.24
  Q 174.51 31.24 161.86 31.25
  A 1.81 1.81 0.0 0 0 160.05 33.04
  Q 160.01 37.72 160.04 42.14
  C 160.07 46.77 161.13 49.52 166.26 49.27
  Q 168.43 49.16 175.41 49.32
  Q 175.90 49.33 175.92 49.82"
/>
<path stroke="#8dbdfc" vector-effect="non-scaling-stroke" d="
  M 104.55 42.78
  L 98.00 42.78
  Q 97.53 42.78 97.53 43.25
  L 97.53 45.75
  Q 97.53 46.22 98.00 46.22
  L 114.27 46.21
  Q 114.75 46.21 114.75 45.73
  L 114.77 43.27
  Q 114.77 42.77 114.27 42.77
  L 108.51 42.77
  A 0.26 0.25 -90.0 0 1 108.26 42.51
  L 108.27 37.26
  Q 108.27 37.05 108.49 37.04
  L 114.24 37.03
  Q 114.77 37.03 114.77 36.50
  L 114.76 34.06
  Q 114.76 33.61 114.31 33.61
  L 108.70 33.66
  A 0.45 0.44 -90.0 0 1 108.25 33.20
  L 108.28 29.79
  A 0.24 0.23 -0.0 0 0 108.04 29.56
  L 105.04 29.57
  Q 104.80 29.57 104.81 29.81
  L 104.89 32.99
  Q 104.91 33.65 104.26 33.64
  L 101.44 33.62
  Q 100.76 33.61 100.79 32.94
  L 100.88 30.81
  A 0.26 0.26 0.0 0 0 100.62 30.54
  L 97.91 30.54
  Q 97.55 30.54 97.52 30.89
  Q 96.80 38.45 104.46 36.87
  A 0.34 0.34 0.0 0 1 104.87 37.20
  L 104.88 42.45
  Q 104.88 42.78 104.55 42.78"
/>
<path stroke="#8dbdfc" vector-effect="non-scaling-stroke" d="
  M 80.99 37.51
  L 78.35 37.52
  A 2.21 2.21 0.0 0 0 76.14 39.72
  Q 76.07 49.06 76.12 58.50
  Q 76.15 63.98 81.00 64.00
  Q 87.37 64.01 93.44 64.00
  A 2.31 2.31 0.0 0 0 95.74 61.69
  Q 95.77 52.00 95.74 42.25
  Q 95.73 37.88 90.85 37.55
  Q 90.54 37.53 90.54 37.21
  L 90.54 34.31
  A 0.39 0.39 0.0 0 1 90.94 33.92
  L 95.24 33.98
  A 0.47 0.47 0.0 0 0 95.71 33.52
  L 95.72 31.01
  Q 95.73 30.54 95.26 30.54
  L 76.50 30.55
  Q 76.14 30.55 76.15 30.91
  L 76.20 33.46
  Q 76.21 33.95 76.71 33.95
  L 80.96 33.93
  Q 81.50 33.93 81.50 34.46
  L 81.49 37.01
  A 0.51 0.50 -89.4 0 1 80.99 37.51"
/>
<path stroke="#8dbdfc" vector-effect="non-scaling-stroke" d="
  M 129.13 41.16
  Q 125.48 44.61 120.50 44.88
  Q 120.34 44.89 120.34 45.05
  L 120.40 47.98
  Q 120.41 48.22 120.66 48.21
  C 126.03 47.97 130.38 45.06 134.10 41.51
  Q 134.53 41.10 134.92 41.54
  L 136.49 43.30
  Q 136.90 43.76 136.42 44.15
  C 131.68 48.05 127.19 52.56 120.62 52.52
  Q 120.36 52.52 120.36 52.78
  L 120.36 55.48
  Q 120.35 55.75 120.62 55.76
  C 127.42 56.11 131.57 52.36 137.20 47.97
  A 0.16 0.16 0.0 0 1 137.45 48.09
  L 137.47 52.00
  A 0.61 0.60 72.9 0 1 137.21 52.50
  C 132.32 56.11 127.26 60.63 120.71 59.98
  Q 120.34 59.94 120.35 60.31
  L 120.37 63.02
  Q 120.37 63.41 120.76 63.44
  C 126.98 63.95 131.10 60.98 136.79 57.00
  Q 137.30 56.65 137.42 57.26
  Q 137.90 59.60 135.99 60.62
  Q 135.51 60.87 135.50 61.42
  L 135.49 63.47
  Q 135.49 63.90 135.91 63.87
  C 141.12 63.50 140.92 58.96 140.76 54.62
  Q 140.74 54.08 141.15 53.72
  L 143.73 51.56
  Q 144.13 51.23 144.31 51.71
  C 146.01 56.18 147.19 63.20 152.92 63.93
  Q 153.48 64.00 153.47 63.44
  L 153.47 61.05
  Q 153.47 60.49 152.92 60.41
  Q 151.15 60.16 150.58 58.67
  Q 148.76 53.97 147.03 49.32
  Q 146.89 48.95 147.19 48.70
  Q 149.75 46.62 153.02 46.29
  Q 153.47 46.24 153.47 45.78
  L 153.48 43.24
  Q 153.49 42.93 153.17 42.95
  C 148.35 43.19 144.96 46.00 141.38 49.20
  Q 140.90 49.63 140.84 48.99
  C 140.56 45.97 141.10 44.54 139.16 41.41
  A 0.40 0.40 0.0 0 1 139.50 40.80
  L 148.07 40.85
  A 0.43 0.43 0.0 0 0 148.51 40.43
  L 148.51 38.01
  Q 148.51 37.51 148.01 37.51
  L 125.76 37.51
  Q 125.28 37.51 125.28 37.99
  L 125.27 40.48
  A 0.44 0.43 -0.6 0 0 125.73 40.92
  L 128.97 40.77
  Q 129.57 40.74 129.13 41.16"
/>
<path stroke="#8dbdfc" vector-effect="non-scaling-stroke" d="
  M 99.35 48.32
  A 1.96 1.96 0.0 0 0 97.51 50.27
  C 97.49 53.33 96.94 58.88 98.06 61.41
  C 99.74 65.21 109.21 64.03 112.58 63.98
  A 2.24 2.24 0.0 0 0 114.79 61.79
  Q 114.91 57.26 114.78 52.49
  C 114.61 46.56 103.11 48.08 99.35 48.32"
/>
<path stroke="#8dbdfc" vector-effect="non-scaling-stroke" d="
  M 162.58 62.54
  Q 165.39 57.71 165.33 52.08
  Q 165.33 51.80 165.05 51.80
  L 162.29 51.81
  Q 161.89 51.81 161.90 52.21
  Q 162.01 56.53 159.95 60.37
  Q 159.22 61.74 160.43 62.71
  L 160.65 62.89
  Q 161.82 63.84 162.58 62.54"
/>
<path stroke="#8dbdfc" vector-effect="non-scaling-stroke" d="
  M 190.34 52.05
  L 187.89 53.42
  Q 187.63 53.56 187.78 53.81
  Q 190.30 57.92 190.29 62.74
  Q 190.29 63.27 190.81 63.37
  L 193.01 63.83
  A 0.50 0.50 0.0 0 0 193.61 63.36
  Q 193.81 57.32 190.70 52.15
  Q 190.56 51.92 190.34 52.05"
/>
<path stroke="#8dbdfc" vector-effect="non-scaling-stroke" d="
  M 20.28 53.97
  C 24.49 63.69 36.74 68.45 46.20 63.67
  C 57.86 57.79 57.63 47.54 57.48 35.98
  A 1.48 1.47 -75.2 0 0 56.76 34.73
  L 38.74 23.79
  A 1.42 1.42 0.0 0 0 37.26 23.79
  L 19.07 34.82
  A 1.10 1.06 -14.7 0 0 18.55 35.68
  C 18.17 41.62 18.02 48.73 20.28 53.97"
/>
<path stroke="#8dbdfc" vector-effect="non-scaling-stroke" d="
  M 36.33 50.04
  C 32.92 48.91 32.60 43.04 29.25 43.97
  Q 26.19 44.82 27.08 48.01
  C 30.25 59.33 44.95 59.66 48.78 48.80
  C 49.72 46.14 48.62 43.92 45.63 44.00
  A 2.02 1.99 -75.4 0 0 43.93 45.01
  C 42.07 48.20 40.99 51.58 36.33 50.04"
/>
<path stroke="#8dbdfc" vector-effect="non-scaling-stroke" d="
  M 87.2422 34.4321
  A 0.52 0.52 0.0 0 0 86.7232 33.9112
  L 85.3832 33.9088
  A 0.52 0.52 0.0 0 0 84.8623 34.4279
  L 84.8578 37.0079
  A 0.52 0.52 0.0 0 0 85.3768 37.5288
  L 86.7168 37.5312
  A 0.52 0.52 0.0 0 0 87.2377 37.0121
  L 87.2422 34.4321"
/>
<path stroke="#8dbdfc" vector-effect="non-scaling-stroke" d="
  M 79.51 47.82
  A 0.37 0.37 0.0 0 0 80.07 48.13
  L 81.31 47.41
  A 0.37 0.37 0.0 0 0 81.49 47.09
  L 81.50 41.29
  A 0.37 0.37 0.0 0 0 81.14 40.92
  L 79.88 40.87
  A 0.37 0.37 0.0 0 0 79.50 41.24
  L 79.51 47.82"
/>
<path stroke="#8dbdfc" vector-effect="non-scaling-stroke" d="
  M 84.81 41.69
  C 85.31 45.76 85.06 51.29 79.97 51.50
  Q 79.51 51.52 79.51 51.98
  L 79.51 53.93
  Q 79.51 54.35 79.92 54.35
  L 92.03 54.36
  Q 92.44 54.36 92.43 53.95
  L 92.42 52.05
  Q 92.42 51.56 91.94 51.50
  C 86.59 50.81 87.16 45.94 87.27 41.68
  Q 87.29 40.91 86.52 40.91
  L 85.51 40.90
  A 0.71 0.71 0.0 0 0 84.81 41.69"
/>
<path stroke="#8dbdfc" vector-effect="non-scaling-stroke" d="
  M 90.55 46.53
  A 0.57 0.57 0.0 0 0 90.66 46.86
  L 91.41 47.89
  A 0.57 0.57 0.0 0 0 92.44 47.56
  L 92.45 42.15
  A 0.57 0.57 0.0 0 0 92.24 41.71
  L 91.45 41.05
  A 0.57 0.57 0.0 0 0 90.52 41.49
  L 90.55 46.53"
/>
<path stroke="#8dbdfc" vector-effect="non-scaling-stroke" d="
  M 79.89 57.72
  A 0.56 0.56 0.0 0 0 79.35 58.43
  L 79.83 60.16
  A 0.56 0.56 0.0 0 0 80.37 60.57
  L 91.87 60.58
  A 0.56 0.56 0.0 0 0 92.43 60.03
  L 92.47 58.28
  A 0.56 0.56 0.0 0 0 91.91 57.71
  L 79.89 57.72"
/>
<path stroke="#8dbdfc" vector-effect="non-scaling-stroke" d="
  M 111.4624 52.5284
  A 0.95 0.95 0.0 0 0 110.5157 51.5751
  L 101.8957 51.5450
  A 0.95 0.95 0.0 0 0 100.9424 52.4917
  L 100.9176 59.5916
  A 0.95 0.95 0.0 0 0 101.8643 60.5449
  L 110.4843 60.5750
  A 0.95 0.95 0.0 0 0 111.4376 59.6283
  L 111.4624 52.5284"
/>
</g>
<path fill="#ffffff" d="
  M 0.00 0.00
  L 208.00 0.00
  L 208.00 88.00
  L 0.00 88.00
  L 0.00 0.00
  Z
  M 48.57 69.58
  Q 62.88 62.60 63.62 45.99
  Q 63.91 39.30 63.89 32.90
  A 2.43 2.41 15.7 0 0 62.72 30.83
  L 38.72 16.23
  A 1.47 1.45 44.7 0 0 37.19 16.23
  L 13.13 30.86
  A 2.39 2.38 74.6 0 0 11.99 32.88
  C 11.97 39.66 11.24 49.10 13.84 55.15
  C 19.64 68.64 34.85 76.28 48.57 69.58
  Z
  M 134.76 31.50
  L 121.00 31.50
  A 1.75 1.74 -90.0 0 0 119.26 33.25
  L 119.25 40.50
  Q 119.25 41.00 119.75 41.00
  L 122.22 40.99
  A 0.47 0.46 -89.4 0 0 122.68 40.53
  L 122.69 35.56
  Q 122.69 34.92 123.33 34.92
  L 149.61 34.92
  A 1.57 1.57 0.0 0 1 151.18 36.49
  L 151.15 40.80
  Q 151.15 40.98 151.34 40.99
  L 154.06 41.01
  Q 154.42 41.01 154.46 40.65
  C 154.88 36.62 154.43 31.54 150.00 31.52
  Q 144.51 31.50 138.97 31.49
  Q 138.46 31.49 138.50 30.98
  L 138.60 29.47
  Q 138.65 28.78 137.96 28.77
  L 135.99 28.77
  Q 135.24 28.77 135.25 29.51
  L 135.26 30.99
  Q 135.26 31.50 134.76 31.50
  Z
  M 175.92 49.82
  C 176.06 53.31 177.03 60.62 173.70 61.06
  Q 173.11 61.14 173.12 61.73
  L 173.15 64.03
  A 0.49 0.49 0.0 0 0 173.69 64.52
  C 181.00 63.79 179.40 54.73 179.26 49.79
  Q 179.25 49.27 179.76 49.27
  L 193.49 49.28
  Q 194.01 49.28 194.00 48.76
  L 193.99 46.29
  Q 193.99 45.84 193.54 45.84
  L 179.83 45.87
  Q 179.28 45.87 179.29 45.33
  L 179.31 37.67
  Q 179.32 37.28 178.92 37.28
  L 176.48 37.28
  Q 175.98 37.28 175.98 37.78
  L 175.99 45.19
  Q 175.99 45.87 175.31 45.87
  L 164.51 45.83
  A 1.08 1.07 0.3 0 1 163.44 44.76
  L 163.42 35.04
  Q 163.42 34.52 163.93 34.52
  Q 175.50 34.55 187.05 34.51
  C 190.62 34.50 193.23 33.45 193.77 29.77
  Q 193.85 29.20 193.28 29.21
  L 190.96 29.23
  A 0.82 0.82 0.0 0 0 190.19 29.80
  Q 189.75 31.24 187.50 31.24
  Q 174.51 31.24 161.86 31.25
  A 1.81 1.81 0.0 0 0 160.05 33.04
  Q 160.01 37.72 160.04 42.14
  C 160.07 46.77 161.13 49.52 166.26 49.27
  Q 168.43 49.16 175.41 49.32
  Q 175.90 49.33 175.92 49.82
  Z
  M 104.55 42.78
  L 98.00 42.78
  Q 97.53 42.78 97.53 43.25
  L 97.53 45.75
  Q 97.53 46.22 98.00 46.22
  L 114.27 46.21
  Q 114.75 46.21 114.75 45.73
  L 114.77 43.27
  Q 114.77 42.77 114.27 42.77
  L 108.51 42.77
  A 0.26 0.25 -90.0 0 1 108.26 42.51
  L 108.27 37.26
  Q 108.27 37.05 108.49 37.04
  L 114.24 37.03
  Q 114.77 37.03 114.77 36.50
  L 114.76 34.06
  Q 114.76 33.61 114.31 33.61
  L 108.70 33.66
  A 0.45 0.44 -90.0 0 1 108.25 33.20
  L 108.28 29.79
  A 0.24 0.23 -0.0 0 0 108.04 29.56
  L 105.04 29.57
  Q 104.80 29.57 104.81 29.81
  L 104.89 32.99
  Q 104.91 33.65 104.26 33.64
  L 101.44 33.62
  Q 100.76 33.61 100.79 32.94
  L 100.88 30.81
  A 0.26 0.26 0.0 0 0 100.62 30.54
  L 97.91 30.54
  Q 97.55 30.54 97.52 30.89
  Q 96.80 38.45 104.46 36.87
  A 0.34 0.34 0.0 0 1 104.87 37.20
  L 104.88 42.45
  Q 104.88 42.78 104.55 42.78
  Z
  M 80.99 37.51
  L 78.35 37.52
  A 2.21 2.21 0.0 0 0 76.14 39.72
  Q 76.07 49.06 76.12 58.50
  Q 76.15 63.98 81.00 64.00
  Q 87.37 64.01 93.44 64.00
  A 2.31 2.31 0.0 0 0 95.74 61.69
  Q 95.77 52.00 95.74 42.25
  Q 95.73 37.88 90.85 37.55
  Q 90.54 37.53 90.54 37.21
  L 90.54 34.31
  A 0.39 0.39 0.0 0 1 90.94 33.92
  L 95.24 33.98
  A 0.47 0.47 0.0 0 0 95.71 33.52
  L 95.72 31.01
  Q 95.73 30.54 95.26 30.54
  L 76.50 30.55
  Q 76.14 30.55 76.15 30.91
  L 76.20 33.46
  Q 76.21 33.95 76.71 33.95
  L 80.96 33.93
  Q 81.50 33.93 81.50 34.46
  L 81.49 37.01
  A 0.51 0.50 -89.4 0 1 80.99 37.51
  Z
  M 129.13 41.16
  Q 125.48 44.61 120.50 44.88
  Q 120.34 44.89 120.34 45.05
  L 120.40 47.98
  Q 120.41 48.22 120.66 48.21
  C 126.03 47.97 130.38 45.06 134.10 41.51
  Q 134.53 41.10 134.92 41.54
  L 136.49 43.30
  Q 136.90 43.76 136.42 44.15
  C 131.68 48.05 127.19 52.56 120.62 52.52
  Q 120.36 52.52 120.36 52.78
  L 120.36 55.48
  Q 120.35 55.75 120.62 55.76
  C 127.42 56.11 131.57 52.36 137.20 47.97
  A 0.16 0.16 0.0 0 1 137.45 48.09
  L 137.47 52.00
  A 0.61 0.60 72.9 0 1 137.21 52.50
  C 132.32 56.11 127.26 60.63 120.71 59.98
  Q 120.34 59.94 120.35 60.31
  L 120.37 63.02
  Q 120.37 63.41 120.76 63.44
  C 126.98 63.95 131.10 60.98 136.79 57.00
  Q 137.30 56.65 137.42 57.26
  Q 137.90 59.60 135.99 60.62
  Q 135.51 60.87 135.50 61.42
  L 135.49 63.47
  Q 135.49 63.90 135.91 63.87
  C 141.12 63.50 140.92 58.96 140.76 54.62
  Q 140.74 54.08 141.15 53.72
  L 143.73 51.56
  Q 144.13 51.23 144.31 51.71
  C 146.01 56.18 147.19 63.20 152.92 63.93
  Q 153.48 64.00 153.47 63.44
  L 153.47 61.05
  Q 153.47 60.49 152.92 60.41
  Q 151.15 60.16 150.58 58.67
  Q 148.76 53.97 147.03 49.32
  Q 146.89 48.95 147.19 48.70
  Q 149.75 46.62 153.02 46.29
  Q 153.47 46.24 153.47 45.78
  L 153.48 43.24
  Q 153.49 42.93 153.17 42.95
  C 148.35 43.19 144.96 46.00 141.38 49.20
  Q 140.90 49.63 140.84 48.99
  C 140.56 45.97 141.10 44.54 139.16 41.41
  A 0.40 0.40 0.0 0 1 139.50 40.80
  L 148.07 40.85
  A 0.43 0.43 0.0 0 0 148.51 40.43
  L 148.51 38.01
  Q 148.51 37.51 148.01 37.51
  L 125.76 37.51
  Q 125.28 37.51 125.28 37.99
  L 125.27 40.48
  A 0.44 0.43 -0.6 0 0 125.73 40.92
  L 128.97 40.77
  Q 129.57 40.74 129.13 41.16
  Z
  M 99.35 48.32
  A 1.96 1.96 0.0 0 0 97.51 50.27
  C 97.49 53.33 96.94 58.88 98.06 61.41
  C 99.74 65.21 109.21 64.03 112.58 63.98
  A 2.24 2.24 0.0 0 0 114.79 61.79
  Q 114.91 57.26 114.78 52.49
  C 114.61 46.56 103.11 48.08 99.35 48.32
  Z
  M 162.58 62.54
  Q 165.39 57.71 165.33 52.08
  Q 165.33 51.80 165.05 51.80
  L 162.29 51.81
  Q 161.89 51.81 161.90 52.21
  Q 162.01 56.53 159.95 60.37
  Q 159.22 61.74 160.43 62.71
  L 160.65 62.89
  Q 161.82 63.84 162.58 62.54
  Z
  M 190.34 52.05
  L 187.89 53.42
  Q 187.63 53.56 187.78 53.81
  Q 190.30 57.92 190.29 62.74
  Q 190.29 63.27 190.81 63.37
  L 193.01 63.83
  A 0.50 0.50 0.0 0 0 193.61 63.36
  Q 193.81 57.32 190.70 52.15
  Q 190.56 51.92 190.34 52.05
  Z"
/>
<path fill="#1b7af8" d="
  M 48.57 69.58
  C 34.85 76.28 19.64 68.64 13.84 55.15
  C 11.24 49.10 11.97 39.66 11.99 32.88
  A 2.39 2.38 74.6 0 1 13.13 30.86
  L 37.19 16.23
  A 1.47 1.45 44.7 0 1 38.72 16.23
  L 62.72 30.83
  A 2.43 2.41 15.7 0 1 63.89 32.90
  Q 63.91 39.30 63.62 45.99
  Q 62.88 62.60 48.57 69.58
  Z
  M 20.28 53.97
  C 24.49 63.69 36.74 68.45 46.20 63.67
  C 57.86 57.79 57.63 47.54 57.48 35.98
  A 1.48 1.47 -75.2 0 0 56.76 34.73
  L 38.74 23.79
  A 1.42 1.42 0.0 0 0 37.26 23.79
  L 19.07 34.82
  A 1.10 1.06 -14.7 0 0 18.55 35.68
  C 18.17 41.62 18.02 48.73 20.28 53.97
  Z"
/>
<path fill="#ffffff" d="
  M 46.20 63.67
  C 36.74 68.45 24.49 63.69 20.28 53.97
  C 18.02 48.73 18.17 41.62 18.55 35.68
  A 1.10 1.06 -14.7 0 1 19.07 34.82
  L 37.26 23.79
  A 1.42 1.42 0.0 0 1 38.74 23.79
  L 56.76 34.73
  A 1.48 1.47 -75.2 0 1 57.48 35.98
  C 57.63 47.54 57.86 57.79 46.20 63.67
  Z
  M 36.33 50.04
  C 32.92 48.91 32.60 43.04 29.25 43.97
  Q 26.19 44.82 27.08 48.01
  C 30.25 59.33 44.95 59.66 48.78 48.80
  C 49.72 46.14 48.62 43.92 45.63 44.00
  A 2.02 1.99 -75.4 0 0 43.93 45.01
  C 42.07 48.20 40.99 51.58 36.33 50.04
  Z"
/>
<path fill="#1b7af8" d="
  M 135.26 30.99
  L 135.25 29.51
  Q 135.24 28.77 135.99 28.77
  L 137.96 28.77
  Q 138.65 28.78 138.60 29.47
  L 138.50 30.98
  Q 138.46 31.49 138.97 31.49
  Q 144.51 31.50 150.00 31.52
  C 154.43 31.54 154.88 36.62 154.46 40.65
  Q 154.42 41.01 154.06 41.01
  L 151.34 40.99
  Q 151.15 40.98 151.15 40.80
  L 151.18 36.49
  A 1.57 1.57 0.0 0 0 149.61 34.92
  L 123.33 34.92
  Q 122.69 34.92 122.69 35.56
  L 122.68 40.53
  A 0.47 0.46 -89.4 0 1 122.22 40.99
  L 119.75 41.00
  Q 119.25 41.00 119.25 40.50
  L 119.26 33.25
  A 1.75 1.74 -90.0 0 1 121.00 31.50
  L 134.76 31.50
  Q 135.26 31.50 135.26 30.99
  Z"
/>
<path fill="#1b7af8" d="
  M 175.41 49.32
  Q 168.43 49.16 166.26 49.27
  C 161.13 49.52 160.07 46.77 160.04 42.14
  Q 160.01 37.72 160.05 33.04
  A 1.81 1.81 0.0 0 1 161.86 31.25
  Q 174.51 31.24 187.50 31.24
  Q 189.75 31.24 190.19 29.80
  A 0.82 0.82 0.0 0 1 190.96 29.23
  L 193.28 29.21
  Q 193.85 29.20 193.77 29.77
  C 193.23 33.45 190.62 34.50 187.05 34.51
  Q 175.50 34.55 163.93 34.52
  Q 163.42 34.52 163.42 35.04
  L 163.44 44.76
  A 1.08 1.07 0.3 0 0 164.51 45.83
  L 175.31 45.87
  Q 175.99 45.87 175.99 45.19
  L 175.98 37.78
  Q 175.98 37.28 176.48 37.28
  L 178.92 37.28
  Q 179.32 37.28 179.31 37.67
  L 179.29 45.33
  Q 179.28 45.87 179.83 45.87
  L 193.54 45.84
  Q 193.99 45.84 193.99 46.29
  L 194.00 48.76
  Q 194.01 49.28 193.49 49.28
  L 179.76 49.27
  Q 179.25 49.27 179.26 49.79
  C 179.40 54.73 181.00 63.79 173.69 64.52
  A 0.49 0.49 0.0 0 1 173.15 64.03
  L 173.12 61.73
  Q 173.11 61.14 173.70 61.06
  C 177.03 60.62 176.06 53.31 175.92 49.82
  Q 175.90 49.33 175.41 49.32
  Z"
/>
<path fill="#1b7af8" d="
  M 104.55 42.78
  Q 104.88 42.78 104.88 42.45
  L 104.87 37.20
  A 0.34 0.34 0.0 0 0 104.46 36.87
  Q 96.80 38.45 97.52 30.89
  Q 97.55 30.54 97.91 30.54
  L 100.62 30.54
  A 0.26 0.26 0.0 0 1 100.88 30.81
  L 100.79 32.94
  Q 100.76 33.61 101.44 33.62
  L 104.26 33.64
  Q 104.91 33.65 104.89 32.99
  L 104.81 29.81
  Q 104.80 29.57 105.04 29.57
  L 108.04 29.56
  A 0.24 0.23 0.0 0 1 108.28 29.79
  L 108.25 33.20
  A 0.45 0.44 -90.0 0 0 108.70 33.66
  L 114.31 33.61
  Q 114.76 33.61 114.76 34.06
  L 114.77 36.50
  Q 114.77 37.03 114.24 37.03
  L 108.49 37.04
  Q 108.27 37.05 108.27 37.26
  L 108.26 42.51
  A 0.26 0.25 90.0 0 0 108.51 42.77
  L 114.27 42.77
  Q 114.77 42.77 114.77 43.27
  L 114.75 45.73
  Q 114.75 46.21 114.27 46.21
  L 98.00 46.22
  Q 97.53 46.22 97.53 45.75
  L 97.53 43.25
  Q 97.53 42.78 98.00 42.78
  L 104.55 42.78
  Z"
/>
<path fill="#1b7af8" d="
  M 80.99 37.51
  A 0.51 0.50 -89.4 0 0 81.49 37.01
  L 81.50 34.46
  Q 81.50 33.93 80.96 33.93
  L 76.71 33.95
  Q 76.21 33.95 76.20 33.46
  L 76.15 30.91
  Q 76.14 30.55 76.50 30.55
  L 95.26 30.54
  Q 95.73 30.54 95.72 31.01
  L 95.71 33.52
  A 0.47 0.47 0.0 0 1 95.24 33.98
  L 90.94 33.92
  A 0.39 0.39 0.0 0 0 90.54 34.31
  L 90.54 37.21
  Q 90.54 37.53 90.85 37.55
  Q 95.73 37.88 95.74 42.25
  Q 95.77 52.00 95.74 61.69
  A 2.31 2.31 0.0 0 1 93.44 64.00
  Q 87.37 64.01 81.00 64.00
  Q 76.15 63.98 76.12 58.50
  Q 76.07 49.06 76.14 39.72
  A 2.21 2.21 0.0 0 1 78.35 37.52
  L 80.99 37.51
  Z
  M 87.2422 34.4321
  A 0.52 0.52 0.0 0 0 86.7232 33.9112
  L 85.3832 33.9088
  A 0.52 0.52 0.0 0 0 84.8623 34.4279
  L 84.8578 37.0079
  A 0.52 0.52 0.0 0 0 85.3768 37.5288
  L 86.7168 37.5312
  A 0.52 0.52 0.0 0 0 87.2377 37.0121
  L 87.2422 34.4321
  Z
  M 79.51 47.82
  A 0.37 0.37 0.0 0 0 80.07 48.13
  L 81.31 47.41
  A 0.37 0.37 0.0 0 0 81.49 47.09
  L 81.50 41.29
  A 0.37 0.37 0.0 0 0 81.14 40.92
  L 79.88 40.87
  A 0.37 0.37 0.0 0 0 79.50 41.24
  L 79.51 47.82
  Z
  M 84.81 41.69
  C 85.31 45.76 85.06 51.29 79.97 51.50
  Q 79.51 51.52 79.51 51.98
  L 79.51 53.93
  Q 79.51 54.35 79.92 54.35
  L 92.03 54.36
  Q 92.44 54.36 92.43 53.95
  L 92.42 52.05
  Q 92.42 51.56 91.94 51.50
  C 86.59 50.81 87.16 45.94 87.27 41.68
  Q 87.29 40.91 86.52 40.91
  L 85.51 40.90
  A 0.71 0.71 0.0 0 0 84.81 41.69
  Z
  M 90.55 46.53
  A 0.57 0.57 0.0 0 0 90.66 46.86
  L 91.41 47.89
  A 0.57 0.57 0.0 0 0 92.44 47.56
  L 92.45 42.15
  A 0.57 0.57 0.0 0 0 92.24 41.71
  L 91.45 41.05
  A 0.57 0.57 0.0 0 0 90.52 41.49
  L 90.55 46.53
  Z
  M 79.89 57.72
  A 0.56 0.56 0.0 0 0 79.35 58.43
  L 79.83 60.16
  A 0.56 0.56 0.0 0 0 80.37 60.57
  L 91.87 60.58
  A 0.56 0.56 0.0 0 0 92.43 60.03
  L 92.47 58.28
  A 0.56 0.56 0.0 0 0 91.91 57.71
  L 79.89 57.72
  Z"
/>
<rect fill="#ffffff" x="-1.19" y="-1.81" transform="translate(86.05,35.72) rotate(0.1)" width="2.38" height="3.62" rx="0.52"/>
<path fill="#1b7af8" d="
  M 128.97 40.77
  L 125.73 40.92
  A 0.44 0.43 -0.6 0 1 125.27 40.48
  L 125.28 37.99
  Q 125.28 37.51 125.76 37.51
  L 148.01 37.51
  Q 148.51 37.51 148.51 38.01
  L 148.51 40.43
  A 0.43 0.43 0.0 0 1 148.07 40.85
  L 139.50 40.80
  A 0.40 0.40 0.0 0 0 139.16 41.41
  C 141.10 44.54 140.56 45.97 140.84 48.99
  Q 140.90 49.63 141.38 49.20
  C 144.96 46.00 148.35 43.19 153.17 42.95
  Q 153.49 42.93 153.48 43.24
  L 153.47 45.78
  Q 153.47 46.24 153.02 46.29
  Q 149.75 46.62 147.19 48.70
  Q 146.89 48.95 147.03 49.32
  Q 148.76 53.97 150.58 58.67
  Q 151.15 60.16 152.92 60.41
  Q 153.47 60.49 153.47 61.05
  L 153.47 63.44
  Q 153.48 64.00 152.92 63.93
  C 147.19 63.20 146.01 56.18 144.31 51.71
  Q 144.13 51.23 143.73 51.56
  L 141.15 53.72
  Q 140.74 54.08 140.76 54.62
  C 140.92 58.96 141.12 63.50 135.91 63.87
  Q 135.49 63.90 135.49 63.47
  L 135.50 61.42
  Q 135.51 60.87 135.99 60.62
  Q 137.90 59.60 137.42 57.26
  Q 137.30 56.65 136.79 57.00
  C 131.10 60.98 126.98 63.95 120.76 63.44
  Q 120.37 63.41 120.37 63.02
  L 120.35 60.31
  Q 120.34 59.94 120.71 59.98
  C 127.26 60.63 132.32 56.11 137.21 52.50
  A 0.61 0.60 72.9 0 0 137.47 52.00
  L 137.45 48.09
  A 0.16 0.16 0.0 0 0 137.20 47.97
  C 131.57 52.36 127.42 56.11 120.62 55.76
  Q 120.35 55.75 120.36 55.48
  L 120.36 52.78
  Q 120.36 52.52 120.62 52.52
  C 127.19 52.56 131.68 48.05 136.42 44.15
  Q 136.90 43.76 136.49 43.30
  L 134.92 41.54
  Q 134.53 41.10 134.10 41.51
  C 130.38 45.06 126.03 47.97 120.66 48.21
  Q 120.41 48.22 120.40 47.98
  L 120.34 45.05
  Q 120.34 44.89 120.50 44.88
  Q 125.48 44.61 129.13 41.16
  Q 129.57 40.74 128.97 40.77
  Z"
/>
<path fill="#ffffff" d="
  M 79.51 47.82
  L 79.50 41.24
  A 0.37 0.37 0.0 0 1 79.88 40.87
  L 81.14 40.92
  A 0.37 0.37 0.0 0 1 81.50 41.29
  L 81.49 47.09
  A 0.37 0.37 0.0 0 1 81.31 47.41
  L 80.07 48.13
  A 0.37 0.37 0.0 0 1 79.51 47.82
  Z"
/>
<path fill="#ffffff" d="
  M 79.97 51.50
  C 85.06 51.29 85.31 45.76 84.81 41.69
  A 0.71 0.71 0.0 0 1 85.51 40.90
  L 86.52 40.91
  Q 87.29 40.91 87.27 41.68
  C 87.16 45.94 86.59 50.81 91.94 51.50
  Q 92.42 51.56 92.42 52.05
  L 92.43 53.95
  Q 92.44 54.36 92.03 54.36
  L 79.92 54.35
  Q 79.51 54.35 79.51 53.93
  L 79.51 51.98
  Q 79.51 51.52 79.97 51.50
  Z"
/>
<path fill="#ffffff" d="
  M 90.55 46.53
  L 90.52 41.49
  A 0.57 0.57 0.0 0 1 91.45 41.05
  L 92.24 41.71
  A 0.57 0.57 0.0 0 1 92.45 42.15
  L 92.44 47.56
  A 0.57 0.57 0.0 0 1 91.41 47.89
  L 90.66 46.86
  A 0.57 0.57 0.0 0 1 90.55 46.53
  Z"
/>
<path fill="#1b7af8" d="
  M 36.33 50.04
  C 40.99 51.58 42.07 48.20 43.93 45.01
  A 2.02 1.99 -75.4 0 1 45.63 44.00
  C 48.62 43.92 49.72 46.14 48.78 48.80
  C 44.95 59.66 30.25 59.33 27.08 48.01
  Q 26.19 44.82 29.25 43.97
  C 32.60 43.04 32.92 48.91 36.33 50.04
  Z"
/>
<path fill="#1b7af8" d="
  M 99.35 48.32
  C 103.11 48.08 114.61 46.56 114.78 52.49
  Q 114.91 57.26 114.79 61.79
  A 2.24 2.24 0.0 0 1 112.58 63.98
  C 109.21 64.03 99.74 65.21 98.06 61.41
  C 96.94 58.88 97.49 53.33 97.51 50.27
  A 1.96 1.96 0.0 0 1 99.35 48.32
  Z
  M 111.4624 52.5284
  A 0.95 0.95 0.0 0 0 110.5157 51.5751
  L 101.8957 51.5450
  A 0.95 0.95 0.0 0 0 100.9424 52.4917
  L 100.9176 59.5916
  A 0.95 0.95 0.0 0 0 101.8643 60.5449
  L 110.4843 60.5750
  A 0.95 0.95 0.0 0 0 111.4376 59.6283
  L 111.4624 52.5284
  Z"
/>
<rect fill="#ffffff" x="-5.26" y="-4.50" transform="translate(106.19,56.06) rotate(0.2)" width="10.52" height="9.00" rx="0.95"/>
<path fill="#1b7af8" d="
  M 162.58 62.54
  Q 161.82 63.84 160.65 62.89
  L 160.43 62.71
  Q 159.22 61.74 159.95 60.37
  Q 162.01 56.53 161.90 52.21
  Q 161.89 51.81 162.29 51.81
  L 165.05 51.80
  Q 165.33 51.80 165.33 52.08
  Q 165.39 57.71 162.58 62.54
  Z"
/>
<path fill="#1b7af8" d="
  M 190.70 52.15
  Q 193.81 57.32 193.61 63.36
  A 0.50 0.50 0.0 0 1 193.01 63.83
  L 190.81 63.37
  Q 190.29 63.27 190.29 62.74
  Q 190.30 57.92 187.78 53.81
  Q 187.63 53.56 187.89 53.42
  L 190.34 52.05
  Q 190.56 51.92 190.70 52.15
  Z"
/>
<path fill="#ffffff" d="
  M 79.89 57.72
  L 91.91 57.71
  A 0.56 0.56 0.0 0 1 92.47 58.28
  L 92.43 60.03
  A 0.56 0.56 0.0 0 1 91.87 60.58
  L 80.37 60.57
  A 0.56 0.56 0.0 0 1 79.83 60.16
  L 79.35 58.43
  A 0.56 0.56 0.0 0 1 79.89 57.72
  Z"
/>
</svg>
