<svg width="100" height="60" viewBox="0 0 100 60" fill="none" xmlns="http://www.w3.org/2000/svg"><path fill-rule="evenodd" clip-rule="evenodd" d="M46.1782 21.3552L46.1787 21.3569V21.3547L46.1782 21.3552ZM40.9862 18.0161C40.9862 18.0161 44.9712 17.5718 46.1782 21.3552L43.4231 23.8938C42.8919 21.6293 41.8759 19.4431 40.9862 18.0161ZM38.3455 24.4476C38.3455 24.4476 42.334 24.0055 43.5336 27.8175L43.5314 27.8153L40.7758 30.3544C40.2512 28.0609 39.2375 25.8746 38.3455 24.4476ZM86.8712 18.0161H70.4769C67.5575 18.0161 67.0683 21.4619 67.0683 21.4619H83.5423C86.4064 21.4619 86.8712 18.0161 86.8712 18.0161ZM71.9487 26.8415C70.9018 27.4869 70.2599 28.0787 69.7862 28.6258H63.642C63.642 28.6258 64.4764 25.1801 66.9841 25.1801H87.9999C87.9999 25.1801 87.3492 28.6258 84.7065 28.6258H80.3926C79.3302 27.3127 77.5241 25.8321 75.2399 25.8321C74.1421 25.8321 73.0354 26.1738 71.9487 26.8415ZM42.9028 30.7496L35.7714 38.6618L38.8303 40.6314C43.3389 34.8051 42.905 30.7496 42.905 30.7496H42.9028ZM82.5938 31.1629C82.8369 31.2383 83.0966 31.3189 83.374 31.4107L83.3718 31.4129C84.9831 31.9467 86.8711 33.3402 86.6321 35.9373C86.3288 39.2112 81.818 42.427 72.8783 42.3108C63.9363 42.1925 60.1072 46 60.1072 46C60.7646 44.3676 65.6229 41.6118 69.9411 40.9508C70.2934 40.8971 70.6336 40.8458 70.9627 40.7961C74.6688 40.2371 76.987 39.8874 79.6113 38.6261C81.0433 37.936 81.9176 36.8529 81.7582 35.6381C81.5989 34.4277 80.4125 33.0833 77.7299 31.8707C74.3664 30.3498 71.9552 31.9426 69.8657 33.323L69.6468 33.4675C67.5042 34.8766 67.8584 36.4018 68.4183 37.083C68.9938 37.7842 72.2497 38.0388 73.4161 36.518C74.0779 35.6515 73.5555 35.0843 72.9823 34.7582C72.9624 34.7471 72.3537 34.4523 72.2674 35.4907C72.2674 35.4907 71.734 35.1133 72.0925 34.4009C73.8477 31.663 76.9508 33.3134 77.0017 35.1647C77.0571 37.1589 75.8397 38.1862 72.8716 39.037C69.9013 39.8878 65.4702 39.1263 64.1864 37.8601C62.9005 36.5961 62.9049 34.363 66.5636 32.6434C68.5212 31.7245 69.1031 30.9112 69.7239 30.0435C70.2633 29.2896 70.832 28.4947 72.3581 27.554C76.639 24.9162 79.3327 28.6626 80.1392 29.7842L80.1912 29.8564C80.711 30.579 81.4772 30.8166 82.5938 31.1629ZM26.3781 18.3331L24.6118 28.168C24.074 31.3592 23.5362 34.1016 23.1577 35.5911C22.4339 38.4451 20.9222 42.0986 20.9222 42.0986C20.9222 42.0986 25.4861 39.89 26.7477 34.2512H31.9757L31.7101 35.7832C31.4334 37.3754 31.0748 39.354 29.0341 39.354H27.6619L27.2037 41.5247C27.2037 41.5247 28.8659 41.6028 30.205 41.5247C31.5441 41.4443 32.4848 41.02 32.9805 40.5577C33.4808 40.0977 33.8681 39.5662 34.1403 38.9632C34.417 38.3602 34.6229 37.6523 34.7645 36.8395L37.996 18.1924L26.3781 18.3331ZM32.5357 31.0332H27.3166C27.5401 29.9791 27.7393 28.9139 27.9075 27.842H33.089L32.5357 31.0332ZM33.6423 24.6262H28.4653L29.012 21.4596H34.1935L33.6423 24.6262ZM62.5929 22.9894L61.0546 31.8685L61.0524 31.8707C61.0524 31.8707 60.7735 33.6215 59.1046 33.6215H56.5394L55.716 38.3715C55.55 39.3273 55.2224 40.0709 54.7355 40.6091C54.2485 41.1451 53.589 41.4711 52.7612 41.5895C51.9311 41.7079 49.129 41.7168 49.129 41.7168C49.129 41.7168 49.5429 39.8231 49.4588 38.7757C49.0139 39.4658 48.3521 40.2273 47.5753 40.7856L45.5877 38.9008C45.5877 38.9008 47.9051 37.4045 50.6452 34.3451C50.6452 34.3451 50.8577 35.3433 50.415 36.8083C49.9856 38.2174 49.6115 38.6015 49.6115 38.6015C49.6115 38.6015 50.6784 38.664 51.3645 38.6239C52.1126 38.5234 52.5442 38.1795 52.6638 37.5921L53.3521 33.6215H48.9431C48.9431 33.6215 50.1273 26.788 50.4482 24.9457C50.7691 23.1011 52.3251 22.9894 52.3251 22.9894H54.1312C54.5495 22.2949 54.9369 21.5758 55.2888 20.8299H49.7665L48.4562 28.3937C46.4788 38.7865 42.6465 40.1327 41.1238 40.6676L41.1238 40.6676C40.8535 40.7625 40.6559 40.8319 40.5545 40.9218C42.9184 38.836 44.4389 33.2687 45.3464 27.9403L47.0684 18.0161H64.5274C64.5274 18.0161 64.1356 20.8299 61.7164 20.8299H58.5624C58.2813 21.3234 57.8231 22.0448 57.1945 22.9894H62.5929ZM52.4269 31.0579H58.1064L58.3875 29.45H52.708L52.4269 31.0579ZM53.1087 27.1386H58.7881H58.7903L59.0648 25.5531H53.3853L53.1087 27.1386ZM57.4091 34.6309C57.6306 36.0905 57.8231 37.6078 58.0371 39.2951L58.0373 39.2963C58.1183 39.9346 58.2023 40.5972 58.2922 41.2902L61.1253 39.7582C60.5697 35.1914 57.4091 34.6309 57.4091 34.6309ZM17.4781 18.6436H24.3195L20.9752 37.9315C20.9752 37.9315 20.5258 39.4233 19.1956 39.4233H12L15.2669 20.5931C15.2669 20.5931 15.6033 18.6436 17.4781 18.6436ZM15.7605 36.4063H18.1L19.1159 30.5419H16.7764L15.7605 36.4063ZM17.2988 27.5249H19.6405L20.6564 21.6584H18.3147L17.2988 27.5249Z" fill="currentColor"></path></svg>
