<svg xmlns="http://www.w3.org/2000/svg" xmlns:xlink="http://www.w3.org/1999/xlink" viewBox="0 0 136.39 60"><defs><style>.cls-1{isolation:isolate;}.cls-2{fill:#424242;}.cls-3{fill:url(#未命名的渐变_3);}.cls-4{fill:url(#未命名的渐变_2);}.cls-5{mix-blend-mode:multiply;fill:url(#未命名的渐变_2-2);}</style><linearGradient id="未命名的渐变_3" x1="18.59" y1="60.84" x2="40.8" y2="10.56" gradientUnits="userSpaceOnUse"><stop offset="0" stop-color="#84c1ff"/><stop offset="1" stop-color="#c4e3ff"/></linearGradient><linearGradient id="未命名的渐变_2" x1="24.43" y1="0.52" x2="5.4" y2="51.93" gradientUnits="userSpaceOnUse"><stop offset="0" stop-color="#1bb1f8"/><stop offset="0.28" stop-color="#199cfc"/><stop offset="0.5" stop-color="#1789ff"/><stop offset="0.97" stop-color="#0a7cff"/></linearGradient><linearGradient id="未命名的渐变_2-2" x1="29.35" y1="11.93" x2="15.58" y2="49.14" xlink:href="#未命名的渐变_2"/></defs><g class="cls-1"><g id="图层_1" data-name="图层 1"><path class="cls-2" d="M136.68,46.41h-4.3a1.8,1.8,0,0,1-1.8-1.8V37a.51.51,0,0,0-.5-.5h-2.37a.58.58,0,0,0-.18,0,14.92,14.92,0,0,0,.18-2.32V21.43a.47.47,0,0,0-.65-.47l-2.37.75a.52.52,0,0,0-.34.47V34.24a12.14,12.14,0,0,1-5.31,10l-3,2a.54.54,0,0,0-.2.56l.74,2.37a.47.47,0,0,0,.76.26l3.61-2.46a15.48,15.48,0,0,0,6.28-8.9v6.46a5.17,5.17,0,0,0,5.17,5.17h3.36a.54.54,0,0,0,.47-.32l.93-2.36A.47.47,0,0,0,136.68,46.41Z" transform="translate(-0.8 -0.96)"/><path class="cls-2" d="M109,24.77l4.57-6.31a2.23,2.23,0,0,0,.13-2.44,2.32,2.32,0,0,0-2-1.12h-3.07V12.65a.48.48,0,0,0-.65-.48l-2.37.76a.53.53,0,0,0-.35.47v1.5h-5.09a.5.5,0,0,0-.5.5v2.37a.5.5,0,0,0,.5.5h9.4L99.28,32.46a.57.57,0,0,0-.07.44l.88,2.82c.17.52.56.59.88.14l4.28-5.9V49.14a.47.47,0,0,0,.65.48l2.37-.75a.53.53,0,0,0,.35-.48V30L113,36c.29.4.69.35.87-.11l1-2.62a.52.52,0,0,0-.06-.47Z" transform="translate(-0.8 -0.96)"/><path class="cls-2" d="M117.55,36.52h2.37a.5.5,0,0,0,.5-.5V17.44a.63.63,0,0,1,.62-.63h10a.63.63,0,0,1,.62.63V36a.5.5,0,0,0,.5.5h2.37a.5.5,0,0,0,.5-.5V17.24a3.8,3.8,0,0,0-3.8-3.8H120.85a3.8,3.8,0,0,0-3.8,3.8V36A.5.5,0,0,0,117.55,36.52Z" transform="translate(-0.8 -0.96)"/><path class="cls-2" d="M88.49,13.44H80.22a3.81,3.81,0,0,0-3.8,3.8v28.5a3.8,3.8,0,0,0,3.8,3.8h8.27a3.8,3.8,0,0,0,3.79-3.8V17.24A3.8,3.8,0,0,0,88.49,13.44Zm.43,32.11a.63.63,0,0,1-.63.62H80.42a.63.63,0,0,1-.63-.62V17.44a.63.63,0,0,1,.63-.63h7.87a.63.63,0,0,1,.63.63Z" transform="translate(-0.8 -0.96)"/><path class="cls-2" d="M68.17,39.65l.76-.71a14,14,0,0,0,4.38-10.16V18.26a3.8,3.8,0,0,0-3.8-3.8H62.2V12.67a.47.47,0,0,0-.65-.47L59.18,13a.52.52,0,0,0-.34.47v1h-2a.51.51,0,0,0-.5.5v2.37a.51.51,0,0,0,.5.5h2V29.16A13.9,13.9,0,0,0,62.7,38.8l.69.72L56.49,46a.57.57,0,0,0-.13.52l.78,2.51a.46.46,0,0,0,.82.22L65.72,42l7,7.31a.46.46,0,0,0,.82-.16l1-2.43a.52.52,0,0,0-.1-.52Zm-3-3.18a10.51,10.51,0,0,1-2.94-7.31V17.83h7.12a.62.62,0,0,1,.62.62V28.78a10.65,10.65,0,0,1-3.32,7.71l-.78.72Z" transform="translate(-0.8 -0.96)"/><path class="cls-3" d="M43.81,14.6V48.85A6.73,6.73,0,0,1,39,55.28L21,60.78a4.17,4.17,0,0,1-5.37-4V22.55a6.73,6.73,0,0,1,4.76-6.43l18.09-5.5a4.16,4.16,0,0,1,5.38,4Z" transform="translate(-0.8 -0.96)"/><path class="cls-4" d="M29,5.12V39.37a6.74,6.74,0,0,1-4.76,6.44l-18.1,5.5a4.15,4.15,0,0,1-5.36-4V13.08A6.73,6.73,0,0,1,5.57,6.64l18.09-5.5a4.17,4.17,0,0,1,5.37,4Z" transform="translate(-0.8 -0.96)"/><path class="cls-5" d="M29,39.37V13.48l-8.69,2.64a6.73,6.73,0,0,0-4.76,6.43v25.9l8.69-2.64A6.74,6.74,0,0,0,29,39.37Z" transform="translate(-0.8 -0.96)"/></g></g></svg>