<svg width="206" height="53" viewBox="0 0 206 53" fill="none" xmlns="http://www.w3.org/2000/svg">
<rect width="206" height="53" fill="white"/>
<path d="M21.92 16.48H24.08V19.9H31.18V29.66H29.08V28.56H24.08V35.24H21.92V28.56H16.94V29.66H14.84V19.9H21.92V16.48ZM16.94 26.52H21.92V21.94H16.94V26.52ZM24.08 26.52H29.08V21.94H24.08V26.52ZM38.04 20.46H47.94V22.34H44.06V24.62H47.32V26.46H44.06V29.08H45.88C45.56 28.34 45.2 27.7 44.8 27.14L46.46 26.6C46.9 27.22 47.3 27.9 47.62 28.64L46.64 29.08H48.52V30.96H37.5V29.08H41.94V26.46H38.68V24.62H41.94V22.34H38.04V20.46ZM51.48 17.28V35.06H49.36V34.32H36.64V35.06H34.52V17.28H51.48ZM36.64 32.36H49.36V19.24H36.64V32.36ZM62.24 16.58H63.76C66.26 19.3 69.14 21.42 72.42 22.98L71.28 25.02C68.04 23.34 65.28 21.16 63 18.46C60.9 20.98 58.12 23.18 54.64 25.04L53.52 23C57.02 21.28 59.92 19.14 62.24 16.58ZM62.52 22H64.62V26.18H69.84V28.2H64.62V32.36H71.3V34.4H54.46V32.36H57.3V24.88H59.36V32.36H62.52V22ZM79.78 16.7H81.88V32.36H84.08V16.7H86.18V32.36H91.94V34.4H74.06V32.36H79.78V16.7ZM89.72 20.48L91.56 21C90.8 24.42 89.84 27.42 88.68 29.98L86.8 29.32C87.92 27 88.88 24.04 89.72 20.48ZM76.2 20.42C77.2 23.08 78.1 26.14 78.88 29.58L76.98 30.04C76.3 26.92 75.46 23.92 74.42 21.02L76.2 20.42ZM96.92 23.78V26.54H99.54V23.78H96.92ZM99.54 21.92V19.12H96.92V21.92H99.54ZM96.88 28.42C96.72 31.12 96.24 33.36 95.42 35.14L93.84 33.7C94.64 31.98 95.04 29.8 95.06 27.16V17.24H101.44V32.9C101.44 34.3 100.8 35.02 99.52 35.02H97.92L97.42 33.2C97.96 33.24 98.46 33.28 98.94 33.28C99.34 33.28 99.54 32.92 99.54 32.22V28.42H96.88ZM104.62 26.44V33.36C105.58 32.8 106.4 32.14 107.1 31.36C105.98 29.9 105.2 28.26 104.78 26.44H104.62ZM104.62 33.52V35.1H102.66V17.24H111.22C111.22 19.88 111.08 21.66 110.84 22.54C110.6 23.38 109.82 23.82 108.54 23.82H106.86L106.3 22.04C106.62 22.04 107.06 22.06 107.6 22.06C108.02 22.06 108.32 22.02 108.5 21.98C108.7 21.92 108.84 21.76 108.96 21.48C109.06 21.16 109.14 20.38 109.18 19.12H104.62V24.6H111.36V26.34C111.02 28.24 110.44 29.88 109.64 31.24C110.44 32 111.34 32.68 112.36 33.28L111.34 35.06C110.22 34.38 109.26 33.66 108.46 32.88C107.66 33.76 106.7 34.5 105.62 35.08L104.62 33.52ZM106.56 26.44C106.94 27.64 107.5 28.74 108.26 29.72C108.8 28.76 109.22 27.66 109.52 26.44H106.56ZM119.52 16.48L121.64 16.8C121.44 17.26 121.24 17.7 121.02 18.1H129.52V19.78C128.34 21.14 126.94 22.3 125.3 23.26C127.4 24.02 129.74 24.52 132.3 24.76L131.36 26.7C128.26 26.34 125.48 25.6 123 24.44C120.62 25.5 117.86 26.28 114.7 26.76L113.74 24.8C116.34 24.48 118.66 23.94 120.7 23.22C119.82 22.68 119 22.1 118.24 21.48C117.58 22.02 116.86 22.52 116.1 23L114.84 21.34C117.16 20.02 118.72 18.4 119.52 16.48ZM122.98 22.26C124.26 21.62 125.4 20.9 126.42 20.06H119.66L119.62 20.1C120.66 20.94 121.78 21.66 122.98 22.26ZM121.46 25.58H123.52C123.52 26.26 123.46 26.92 123.38 27.52H130.22C130.18 31.08 129.88 33.2 129.32 33.9C128.76 34.6 127.78 34.96 126.38 34.96C125.68 34.96 124.84 34.92 123.84 34.84L123.32 32.96C124.38 33.02 125.24 33.06 125.92 33.08C126.86 33.06 127.44 32.86 127.68 32.48C127.94 32.08 128.1 31.06 128.14 29.4H122.9C122.74 29.86 122.54 30.3 122.3 30.7C121.34 32.48 119 33.96 115.28 35.16L113.9 33.46C117.14 32.52 119.26 31.38 120.24 30.04C120.38 29.82 120.5 29.6 120.62 29.4H115.14V27.52H121.26C121.38 26.9 121.44 26.26 121.46 25.58ZM142.26 16.52H143.74C146.24 19.08 149.12 21.1 152.38 22.58L151.34 24.44C150.38 23.98 149.46 23.48 148.58 22.94V24.74H144.06V27.54H149.62V29.56H144.06V32.52H151.44V34.56H134.58V32.52H141.94V29.56H136.36V27.54H141.94V24.74H137.42V22.92C136.52 23.48 135.58 24 134.58 24.48L133.56 22.62C137.04 20.98 139.94 18.96 142.26 16.52ZM137.74 22.72H148.24C146.26 21.48 144.52 20.04 143 18.42C141.54 20 139.78 21.44 137.74 22.72ZM156.56 26.4H169.64V30.76H164.3V32.98C164.3 34.32 163.68 35 162.46 35H160L159.56 33.08C160.34 33.16 161.08 33.22 161.78 33.22C162.08 33.22 162.24 32.96 162.24 32.48V30.76H156.56V26.4ZM167.6 29.14V28H158.58V29.14H167.6ZM156.14 17.06H169.88V23.18H163.88C164 23.42 164.12 23.68 164.24 23.96H171.96V25.7H154.04V23.96H161.96C161.8 23.68 161.64 23.42 161.48 23.18H156.14V17.06ZM167.84 21.58V20.84H158.18V21.58H167.84ZM158.18 19.4H167.84V18.66H158.18V19.4ZM166.56 31.1C168.52 31.54 170.4 32.18 172.22 33.02L171.44 34.92C169.6 34 167.7 33.26 165.7 32.74L166.56 31.1ZM158.7 30.96L160 32.3C158.68 33.38 157 34.26 154.98 34.94L153.82 33.24C155.98 32.62 157.62 31.86 158.7 30.96ZM180.76 19.3L182.62 19.54C182.5 19.82 182.38 20.1 182.24 20.36H187.34V21.74C186.86 22.68 186.1 23.52 185.1 24.26C186.32 24.78 187.68 25.2 189.2 25.54L188.12 27.1C186.3 26.62 184.72 26.02 183.38 25.3C181.88 26.06 180.04 26.68 177.84 27.16L176.94 25.5C178.8 25.2 180.38 24.8 181.7 24.28C181.14 23.88 180.62 23.46 180.18 23.02C179.64 23.5 179.04 23.94 178.4 24.34L177.26 22.82C178.98 21.86 180.16 20.68 180.76 19.3ZM183.42 23.44C184.18 22.96 184.8 22.42 185.26 21.84H181.28C181.26 21.86 181.24 21.88 181.24 21.9C181.88 22.46 182.6 22.98 183.42 23.44ZM179.6 28.84C182.22 29.3 184.74 29.94 187.16 30.78L186.48 32.48C184 31.58 181.44 30.88 178.78 30.38L179.6 28.84ZM181.6 26.16C183.22 26.62 184.7 27.16 186.04 27.8L185.08 29.28C183.64 28.52 182.18 27.94 180.68 27.52L181.6 26.16ZM191.44 17.26V35.08H189.4V34.42H176.6V35.08H174.56V17.26H191.44ZM176.6 32.58H189.4V19.1H176.6V32.58Z" fill="black"/>
</svg>
