<?xml version="1.0" encoding="UTF-8" standalone="no"?>
<!DOCTYPE svg PUBLIC "-//W3C//DTD SVG 1.1//EN" "http://www.w3.org/Graphics/SVG/1.1/DTD/svg11.dtd">
<svg xmlns="http://www.w3.org/2000/svg" version="1.1" viewBox="0.00 0.00 1000.00 380.00" width="1000.00" height="380.00">
<g stroke-width="2.00" fill="none" stroke-linecap="butt">
<path stroke="#f78e8d" d="
  M 593.02 128.24
  A 0.41 0.41 0.0 0 1 592.95 127.50
  Q 610.16 117.35 623.44 102.39
  A 1.37 1.33 66.5 0 0 623.78 101.49
  L 623.79 89.78
  Q 623.79 89.27 623.28 89.27
  L 561.20 89.27
  A 0.58 0.58 0.0 0 1 560.67 88.44
  L 564.43 80.41
  A 0.74 0.74 0.0 0 0 563.87 79.36
  L 549.75 77.21
  A 1.13 1.12 -73.7 0 0 548.55 77.87
  C 541.74 93.17 529.01 104.97 514.55 113.03
  A 0.78 0.78 0.0 0 0 514.31 114.19
  L 522.75 125.36
  A 1.05 1.04 -36.2 0 0 524.19 125.58
  L 538.95 115.07
  A 0.52 0.52 0.0 0 1 539.55 115.07
  L 556.67 127.21
  A 0.49 0.49 0.0 0 1 556.54 128.08
  Q 532.09 136.30 506.45 139.33
  A 0.67 0.67 0.0 0 0 505.93 140.29
  L 512.46 153.53
  Q 512.74 154.09 513.36 154.00
  Q 544.97 149.57 574.34 137.13
  Q 575.00 136.85 575.66 137.14
  C 595.36 145.95 615.64 151.11 637.13 153.57
  A 0.92 0.91 15.9 0 0 638.07 153.05
  L 644.22 140.25
  A 0.87 0.87 0.0 0 0 643.51 139.01
  Q 617.59 136.74 593.02 128.24"
/>
<path stroke="#f78e8d" d="
  M 692.70 158.27
  Q 692.70 157.29 693.48 157.89
  Q 700.78 163.52 707.07 170.28
  A 0.73 0.72 39.8 0 0 708.21 170.18
  L 716.22 157.77
  A 0.70 0.70 0.0 0 0 716.09 156.85
  Q 706.00 147.97 694.19 141.53
  A 0.93 0.93 0.0 0 1 693.89 140.14
  Q 703.61 127.59 709.61 112.82
  C 711.49 108.20 710.84 102.43 710.74 97.56
  A 0.74 0.74 0.0 0 0 710.00 96.83
  L 695.61 96.88
  A 1.19 1.19 0.0 0 1 694.49 96.09
  L 687.96 77.73
  A 0.57 0.57 0.0 0 0 687.27 77.37
  L 673.81 81.05
  A 0.83 0.83 0.0 0 0 673.27 82.18
  L 679.33 96.06
  A 0.57 0.56 78.2 0 1 678.82 96.85
  L 659.74 96.84
  A 0.42 0.42 0.0 0 0 659.32 97.26
  L 659.31 111.28
  Q 659.31 111.76 659.79 111.76
  L 694.04 111.77
  A 0.55 0.55 0.0 0 1 694.53 112.57
  C 685.61 130.09 671.39 145.10 656.13 157.17
  A 0.85 0.85 0.0 0 0 655.85 158.08
  L 660.43 173.27
  A 0.51 0.51 0.0 0 0 661.25 173.50
  L 676.37 160.26
  A 0.52 0.52 0.0 0 1 677.23 160.65
  L 677.24 215.86
  Q 677.24 216.49 677.86 216.49
  L 691.48 216.49
  Q 692.70 216.49 692.70 215.27
  L 692.70 158.27"
/>
<path stroke="#f78e8d" d="
  M 125.05 92.21
  Q 125.36 92.36 125.61 92.65
  Q 151.40 122.58 186.54 140.70
  A 0.68 0.68 0.0 0 0 187.44 140.43
  L 195.23 126.50
  A 0.81 0.81 0.0 0 0 194.87 125.37
  Q 158.79 108.17 131.84 78.92
  C 130.06 76.99 123.02 77.74 120.40 77.77
  C 119.36 77.78 118.85 78.26 118.21 78.96
  C 99.76 98.86 78.53 113.39 54.45 125.67
  A 0.60 0.60 0.0 0 0 54.19 126.50
  L 61.83 140.44
  A 0.78 0.77 61.7 0 0 62.87 140.76
  C 86.03 128.68 107.66 112.35 124.53 92.32
  A 0.43 0.43 0.0 0 1 125.05 92.21"
/>
<path stroke="#f78e8d" d="
  M 283.01 195.46
  A 0.75 0.75 0.0 0 1 282.26 196.21
  L 267.27 196.21
  A 0.75 0.75 0.0 0 1 266.52 195.46
  L 266.51 79.41
  A 0.75 0.75 0.0 0 0 265.76 78.66
  L 251.52 78.66
  A 0.75 0.75 0.0 0 0 250.77 79.41
  L 250.77 195.46
  A 0.75 0.75 0.0 0 1 250.02 196.21
  L 208.76 196.21
  A 0.75 0.75 0.0 0 0 208.01 196.96
  L 208.02 210.91
  A 0.75 0.75 0.0 0 0 208.77 211.66
  L 341.39 211.66
  A 0.75 0.75 0.0 0 0 342.14 210.91
  L 342.15 196.96
  A 0.75 0.75 0.0 0 0 341.40 196.21
  L 299.51 196.21
  A 0.75 0.75 0.0 0 1 298.76 195.46
  L 298.76 79.42
  A 0.75 0.75 0.0 0 0 298.01 78.67
  L 283.76 78.65
  A 0.75 0.75 0.0 0 0 283.01 79.40
  L 283.01 195.46"
/>
<path stroke="#f78e8d" d="
  M 741.95 120.55
  A 0.70 0.70 0.0 0 1 741.25 121.25
  L 710.95 121.24
  A 0.70 0.70 0.0 0 0 710.25 121.94
  L 710.25 135.82
  A 0.70 0.70 0.0 0 0 710.95 136.52
  L 741.26 136.53
  A 0.70 0.70 0.0 0 1 741.96 137.23
  L 741.94 195.55
  A 0.70 0.70 0.0 0 1 741.24 196.25
  L 705.63 196.25
  A 0.70 0.70 0.0 0 0 704.93 196.95
  L 704.94 211.05
  A 0.70 0.70 0.0 0 0 705.64 211.75
  L 793.39 211.75
  A 0.70 0.70 0.0 0 0 794.09 211.05
  L 794.11 196.96
  A 0.70 0.70 0.0 0 0 793.41 196.26
  L 758.58 196.25
  A 0.70 0.70 0.0 0 1 757.88 195.55
  L 757.88 137.23
  A 0.70 0.70 0.0 0 1 758.58 136.53
  L 789.95 136.53
  A 0.70 0.70 0.0 0 0 790.65 135.83
  L 790.62 121.95
  A 0.70 0.70 0.0 0 0 789.92 121.25
  L 758.58 121.24
  A 0.70 0.70 0.0 0 1 757.88 120.54
  L 757.89 79.69
  A 0.70 0.70 0.0 0 0 757.19 78.99
  L 742.65 78.99
  A 0.70 0.70 0.0 0 0 741.95 79.69
  L 741.95 120.55"
/>
<path stroke="#f78e8d" d="
  M 398.91 167.18
  Q 399.27 190.07 398.92 197.92
  C 398.71 202.52 395.77 203.28 391.65 202.96
  Q 387.62 202.64 383.57 202.64
  A 0.31 0.31 0.0 0 0 383.27 203.03
  L 386.73 215.51
  Q 386.91 216.15 387.58 216.18
  Q 394.65 216.53 401.99 215.94
  C 408.88 215.39 413.27 208.72 413.27 202.00
  Q 413.27 142.64 413.27 83.80
  A 1.03 1.02 -90.0 0 0 412.25 82.77
  L 366.24 82.77
  A 0.78 0.78 0.0 0 0 365.46 83.55
  Q 365.47 119.62 365.45 155.89
  C 365.45 172.88 363.34 189.61 356.72 205.40
  A 1.39 1.39 0.0 0 0 357.06 206.96
  L 367.52 216.45
  A 0.65 0.64 32.6 0 0 368.55 216.23
  C 375.20 200.34 377.94 184.20 379.06 167.19
  Q 379.09 166.72 379.56 166.72
  L 398.44 166.72
  Q 398.90 166.72 398.91 167.18"
/>
<path stroke="#f78e8d" d="
  M 471.23 97.43
  Q 471.33 105.53 469.72 113.70
  Q 468.74 118.71 464.01 118.75
  Q 457.41 118.81 451.08 118.78
  A 0.97 0.97 0.0 0 0 450.15 120.04
  L 453.80 131.67
  A 0.80 0.79 82.2 0 0 454.53 132.23
  C 461.24 132.36 469.77 132.92 476.10 130.62
  C 483.19 128.05 484.51 121.42 485.20 115.00
  Q 486.93 99.07 486.39 83.41
  A 0.66 0.65 89.1 0 0 485.74 82.77
  L 423.79 82.77
  Q 422.35 82.77 422.35 84.21
  L 422.35 215.59
  A 0.99 0.98 -0.0 0 0 423.34 216.57
  L 436.73 216.56
  Q 437.27 216.56 437.27 216.02
  L 437.28 207.52
  Q 437.28 205.09 438.58 207.14
  L 444.32 216.11
  Q 444.61 216.56 445.09 216.30
  C 452.91 212.00 458.26 207.62 465.51 200.52
  Q 465.95 200.10 466.39 200.51
  Q 475.86 209.42 487.04 216.05
  Q 487.56 216.37 487.87 215.84
  L 494.82 203.82
  A 0.89 0.88 -60.1 0 0 494.50 202.62
  Q 484.11 196.47 475.29 188.23
  Q 474.86 187.83 475.14 187.32
  Q 483.69 171.64 486.97 154.61
  C 487.96 149.47 487.75 144.21 487.66 138.90
  A 0.87 0.87 0.0 0 0 486.79 138.05
  L 438.04 138.06
  A 0.77 0.76 -90.0 0 1 437.28 137.29
  L 437.28 97.28
  A 0.45 0.44 -90.0 0 1 437.72 96.83
  L 470.64 96.84
  A 0.59 0.59 0.0 0 1 471.23 97.43"
/>
<path stroke="#f78e8d" d="
  M 831.17 195.66
  A 0.65 0.65 0.0 0 1 830.52 195.01
  L 830.52 99.15
  A 0.65 0.65 0.0 0 1 831.17 98.50
  L 935.50 98.50
  A 0.65 0.65 0.0 0 0 936.15 97.85
  L 936.16 84.05
  A 0.65 0.65 0.0 0 0 935.51 83.40
  L 815.90 83.40
  A 0.65 0.65 0.0 0 0 815.25 84.05
  L 815.25 210.19
  A 0.65 0.65 0.0 0 0 815.90 210.84
  L 940.14 210.84
  A 0.65 0.65 0.0 0 0 940.79 210.19
  L 940.78 196.31
  A 0.65 0.65 0.0 0 0 940.13 195.66
  L 831.17 195.66"
/>
<path stroke="#f78e8d" d="
  M 889.71 160.35
  A 0.60 0.60 0.0 0 1 890.55 160.33
  Q 904.53 173.48 916.88 188.19
  A 0.79 0.78 -42.4 0 0 918.04 188.24
  L 929.11 177.13
  A 0.72 0.71 45.9 0 0 929.12 176.15
  Q 915.59 161.44 900.86 147.91
  A 0.45 0.45 0.0 0 1 900.80 147.31
  Q 913.49 130.10 922.00 110.48
  A 0.55 0.55 0.0 0 0 921.75 109.77
  L 908.64 102.87
  A 0.73 0.73 0.0 0 0 907.63 103.22
  Q 899.91 120.79 888.60 136.30
  A 0.45 0.44 38.3 0 1 887.95 136.37
  Q 870.77 121.14 852.37 107.39
  Q 852.00 107.11 851.66 107.43
  L 841.14 117.61
  A 0.60 0.60 0.0 0 0 841.20 118.52
  Q 860.03 132.57 877.49 148.30
  A 0.68 0.68 0.0 0 1 877.52 149.29
  Q 864.85 161.89 849.06 170.24
  Q 843.86 172.99 838.44 175.69
  Q 837.87 175.97 838.22 176.50
  L 846.60 189.48
  Q 846.92 189.97 847.46 189.73
  Q 871.41 179.07 889.71 160.35"
/>
<path stroke="#f78e8d" d="
  M 223.51 106.78
  L 211.42 110.92
  A 0.87 0.86 70.9 0 0 210.89 112.03
  Q 222.36 144.48 229.61 178.13
  A 0.76 0.75 77.3 0 0 230.52 178.71
  L 243.53 175.47
  A 0.52 0.52 0.0 0 0 243.91 174.86
  Q 236.59 141.79 225.18 109.81
  Q 224.63 108.26 224.06 107.02
  A 0.45 0.44 68.2 0 0 223.51 106.78"
/>
<path stroke="#f78e8d" d="
  M 325.12 107.97
  C 320.07 130.20 313.24 152.27 303.73 172.98
  A 0.51 0.51 0.0 0 0 304.03 173.67
  L 316.98 178.22
  A 0.71 0.71 0.0 0 0 317.87 177.83
  Q 331.70 145.66 339.03 111.42
  A 0.50 0.50 0.0 0 0 338.68 110.83
  L 326.26 107.29
  A 0.92 0.91 14.1 0 0 325.12 107.97"
/>
<path stroke="#f78e8d" d="
  M 137.23 165.67
  A 0.68 0.68 0.0 0 1 137.91 164.99
  L 175.56 164.99
  A 0.68 0.68 0.0 0 0 176.24 164.31
  L 176.24 150.44
  A 0.68 0.68 0.0 0 0 175.56 149.76
  L 137.91 149.75
  A 0.68 0.68 0.0 0 1 137.23 149.07
  L 137.23 119.31
  A 0.68 0.68 0.0 0 0 136.55 118.63
  L 122.17 118.61
  A 0.68 0.68 0.0 0 0 121.49 119.29
  L 121.48 195.49
  A 0.68 0.68 0.0 0 1 120.80 196.17
  L 98.42 196.18
  A 0.68 0.68 0.0 0 1 97.74 195.50
  L 97.74 140.86
  A 0.68 0.68 0.0 0 0 97.06 140.18
  L 82.95 140.17
  A 0.68 0.68 0.0 0 0 82.27 140.85
  L 82.27 195.49
  A 0.68 0.68 0.0 0 1 81.59 196.17
  L 61.69 196.18
  A 0.68 0.68 0.0 0 0 61.01 196.86
  L 61.02 210.82
  A 0.68 0.68 0.0 0 0 61.70 211.50
  L 186.59 211.50
  A 0.68 0.68 0.0 0 0 187.27 210.82
  L 187.27 196.86
  A 0.68 0.68 0.0 0 0 186.59 196.18
  L 137.91 196.17
  A 0.68 0.68 0.0 0 1 137.23 195.49
  L 137.23 165.67"
/>
<path stroke="#f78e8d" d="
  M 556.25 174.04
  A 0.50 0.49 -75.2 0 1 556.68 174.78
  C 547.54 191.14 524.62 199.35 507.68 204.10
  A 0.66 0.66 0.0 0 0 507.34 205.15
  L 516.50 216.50
  A 1.12 1.11 62.2 0 0 517.68 216.87
  Q 536.97 211.21 553.49 200.50
  Q 567.99 191.10 574.05 174.54
  A 0.77 0.76 9.7 0 1 574.77 174.04
  L 613.01 174.04
  A 0.40 0.40 0.0 0 1 613.41 174.43
  Q 613.55 181.04 612.62 187.57
  C 611.65 194.33 611.16 198.92 604.25 200.58
  C 595.83 202.60 586.74 201.10 578.19 200.79
  A 0.56 0.56 0.0 0 0 577.63 201.50
  L 581.13 214.20
  A 0.78 0.77 85.0 0 0 581.80 214.77
  C 595.18 216.10 620.16 219.38 625.17 201.74
  C 628.78 189.00 629.19 174.06 628.97 160.71
  A 0.71 0.71 0.0 0 0 628.26 160.01
  L 578.89 160.01
  A 0.81 0.81 0.0 0 1 578.08 159.14
  L 578.99 146.15
  Q 579.03 145.50 578.38 145.50
  L 564.16 145.50
  A 0.66 0.65 -87.1 0 0 563.51 146.09
  L 562.27 158.93
  A 1.20 1.20 0.0 0 1 561.08 160.01
  L 516.70 160.01
  A 0.79 0.79 0.0 0 0 515.91 160.81
  L 515.93 173.24
  A 0.80 0.80 0.0 0 0 516.73 174.04
  L 556.25 174.04"
/>
<path stroke="#f78e8d" d="
  M 958.99 268.30
  A 15.89 15.89 0.0 0 0 943.10 252.41
  L 56.88 252.41
  A 15.89 15.89 0.0 0 0 40.99 268.30
  L 40.99 324.28
  A 15.89 15.89 0.0 0 0 56.88 340.17
  L 943.10 340.17
  A 15.89 15.89 0.0 0 0 958.99 324.28
  L 958.99 268.30"
/>
<path stroke="#f78e8d" d="
  M 550.66 104.97
  C 557.92 110.84 565.90 115.82 574.36 120.17
  A 0.97 0.96 45.3 0 0 575.24 120.18
  Q 588.07 113.84 599.31 104.99
  Q 600.57 104.00 598.96 104.00
  L 551.01 104.00
  Q 549.45 104.00 550.66 104.97"
/>
<path stroke="#f78e8d" d="
  M 399.02 97.54
  A 0.70 0.70 0.0 0 0 398.32 96.84
  L 379.98 96.84
  A 0.70 0.70 0.0 0 0 379.28 97.54
  L 379.28 117.12
  A 0.70 0.70 0.0 0 0 379.98 117.82
  L 398.32 117.82
  A 0.70 0.70 0.0 0 0 399.02 117.12
  L 399.02 97.54"
/>
<path stroke="#f78e8d" d="
  M 399.0366 132.6572
  A 0.92 0.92 0.0 0 0 398.1182 131.7356
  L 380.2183 131.7044
  A 0.92 0.92 0.0 0 0 379.2967 132.6228
  L 379.2634 151.7028
  A 0.92 0.92 0.0 0 0 380.1818 152.6244
  L 398.0817 152.6556
  A 0.92 0.92 0.0 0 0 399.0033 151.7372
  L 399.0366 132.6572"
/>
<path stroke="#f78e8d" d="
  M 455.31 188.09
  C 447.46 177.70 441.81 165.91 438.76 153.24
  Q 438.54 152.34 437.97 151.90
  A 0.43 0.42 -70.9 0 0 437.28 152.24
  L 437.27 202.76
  A 0.46 0.45 -15.2 0 0 437.96 203.15
  Q 447.63 197.45 455.25 189.21
  A 0.88 0.87 -42.2 0 0 455.31 188.09"
/>
<path stroke="#f78e8d" d="
  M 464.93 175.39
  Q 470.91 164.34 473.71 152.08
  A 0.27 0.27 0.0 0 0 473.45 151.75
  L 452.27 151.74
  A 0.37 0.37 0.0 0 0 451.92 152.22
  Q 455.87 164.88 463.83 175.48
  Q 464.44 176.29 464.93 175.39"
/>
<path stroke="#f78e8d" d="
  M 382.92 282.29
  C 384.90 282.86 387.62 284.54 387.54 286.67
  Q 387.47 288.45 389.26 288.46
  L 395.78 288.46
  Q 397.53 288.46 397.32 286.72
  C 395.45 271.59 370.17 270.04 364.72 282.84
  C 362.05 289.14 365.30 295.90 371.77 298.21
  Q 375.83 299.66 384.77 301.96
  C 388.91 303.03 391.60 308.37 386.74 310.69
  C 381.48 313.19 371.87 312.07 371.90 304.22
  Q 371.90 304.01 371.68 304.01
  L 362.71 303.99
  Q 362.42 303.99 362.43 304.28
  C 362.86 318.52 377.61 321.42 388.68 318.40
  C 394.29 316.86 398.06 312.77 398.65 306.90
  C 399.84 295.05 387.92 293.36 379.24 291.27
  C 377.03 290.73 374.11 289.84 373.30 287.52
  Q 372.54 285.30 374.52 283.70
  Q 378.02 280.88 382.92 282.29"
/>
<path stroke="#f78e8d" d="
  M 645.53 311.24
  C 630.69 311.45 630.37 284.53 643.73 282.69
  Q 652.00 281.55 654.74 289.63
  Q 654.87 290.03 655.29 290.03
  L 663.55 290.03
  Q 664.07 290.03 664.01 289.52
  C 662.62 276.66 648.55 271.50 637.91 275.64
  C 615.31 284.43 622.15 323.48 649.03 319.22
  Q 662.84 317.03 664.54 302.03
  A 0.26 0.25 -86.9 0 0 664.29 301.74
  L 655.47 301.73
  Q 655.12 301.73 655.07 302.08
  C 654.28 307.53 651.26 311.16 645.53 311.24"
/>
<path stroke="#f78e8d" d="
  M 62.72 283.87
  A 0.32 0.32 0.0 0 1 63.04 283.55
  L 84.98 283.55
  A 0.32 0.32 0.0 0 0 85.30 283.23
  L 85.28 275.70
  A 0.32 0.32 0.0 0 0 84.96 275.38
  L 53.32 275.37
  A 0.32 0.32 0.0 0 0 53.00 275.69
  L 53.00 318.18
  A 0.32 0.32 0.0 0 0 53.32 318.50
  L 85.46 318.50
  A 0.32 0.32 0.0 0 0 85.78 318.18
  L 85.75 310.59
  A 0.32 0.32 0.0 0 0 85.43 310.27
  L 63.04 310.27
  A 0.32 0.32 0.0 0 1 62.72 309.95
  L 62.72 300.37
  A 0.32 0.32 0.0 0 1 63.04 300.05
  L 83.17 300.05
  A 0.32 0.32 0.0 0 0 83.49 299.73
  L 83.48 292.81
  A 0.32 0.32 0.0 0 0 83.16 292.49
  L 63.04 292.49
  A 0.32 0.32 0.0 0 1 62.72 292.17
  L 62.72 283.87"
/>
<path stroke="#f78e8d" d="
  M 274.4057 275.7777
  A 0.40 0.40 0.0 0 0 274.0064 275.3770
  L 265.9664 275.3630
  A 0.40 0.40 0.0 0 0 265.5657 275.7623
  L 265.5543 282.2823
  A 0.40 0.40 0.0 0 0 265.9536 282.6830
  L 273.9936 282.6970
  A 0.40 0.40 0.0 0 0 274.3943 282.2977
  L 274.4057 275.7777"
/>
<path stroke="#f78e8d" d="
  M 501.15 275.79
  A 0.42 0.42 0.0 0 0 500.73 275.37
  L 492.75 275.37
  A 0.42 0.42 0.0 0 0 492.33 275.79
  L 492.33 282.27
  A 0.42 0.42 0.0 0 0 492.75 282.69
  L 500.73 282.69
  A 0.42 0.42 0.0 0 0 501.15 282.27
  L 501.15 275.79"
/>
<path stroke="#f78e8d" d="
  M 895.3957 275.7777
  A 0.40 0.40 0.0 0 0 894.9964 275.3770
  L 886.9564 275.3630
  A 0.40 0.40 0.0 0 0 886.5557 275.7623
  L 886.5443 282.2823
  A 0.40 0.40 0.0 0 0 886.9436 282.6830
  L 894.9836 282.6970
  A 0.40 0.40 0.0 0 0 895.3843 282.2977
  L 895.3957 275.7777"
/>
<path stroke="#f78e8d" d="
  M 128.26 287.23
  L 124.56 287.23
  Q 123.59 287.22 123.58 288.19
  L 123.55 292.00
  Q 123.54 293.21 124.75 293.20
  L 128.25 293.17
  A 0.51 0.51 0.0 0 1 128.76 293.68
  Q 128.73 301.87 128.78 310.07
  C 128.83 319.70 135.77 319.22 143.22 318.63
  A 0.60 0.60 0.0 0 0 143.77 318.03
  L 143.76 312.20
  Q 143.76 311.63 143.19 311.71
  C 140.21 312.11 137.37 312.00 137.41 308.25
  Q 137.48 300.98 137.58 293.63
  Q 137.58 293.18 138.03 293.18
  L 142.66 293.19
  Q 143.77 293.19 143.77 292.09
  L 143.77 287.98
  Q 143.77 287.20 142.99 287.21
  L 138.26 287.23
  Q 137.53 287.23 137.53 286.51
  L 137.54 278.22
  A 0.32 0.32 0.0 0 0 137.22 277.90
  L 129.06 277.90
  Q 128.76 277.90 128.76 278.19
  L 128.75 286.74
  Q 128.75 287.23 128.26 287.23"
/>
<path stroke="#f78e8d" d="
  M 904.18 293.84
  Q 904.13 302.55 903.96 311.25
  C 903.82 319.15 912.20 319.23 918.14 318.66
  Q 919.22 318.56 919.21 317.48
  L 919.17 312.73
  Q 919.16 311.79 918.23 311.78
  L 915.00 311.73
  A 2.05 2.05 0.0 0 1 912.98 309.68
  L 912.94 293.75
  Q 912.94 293.18 913.51 293.18
  L 918.95 293.20
  A 0.24 0.24 0.0 0 0 919.19 292.96
  L 919.14 287.55
  Q 919.14 287.22 918.81 287.22
  L 913.48 287.22
  Q 912.97 287.22 912.97 286.72
  L 912.92 278.24
  A 0.36 0.36 0.0 0 0 912.56 277.88
  L 904.52 277.92
  A 0.38 0.38 0.0 0 0 904.14 278.30
  L 904.14 286.56
  Q 904.14 287.24 903.46 287.24
  L 899.90 287.21
  Q 899.00 287.21 899.00 288.11
  L 898.99 292.34
  Q 898.98 293.19 899.84 293.19
  L 903.54 293.19
  A 0.65 0.65 0.0 0 1 904.18 293.84"
/>
<path stroke="#f78e8d" d="
  M 99.27 290.48
  L 99.33 288.04
  Q 99.34 287.23 98.54 287.23
  L 91.77 287.22
  Q 91.00 287.21 91.00 287.98
  L 90.99 318.25
  A 0.26 0.25 -0.0 0 0 91.25 318.50
  L 99.49 318.50
  A 0.28 0.28 0.0 0 0 99.77 318.22
  Q 99.75 310.14 99.80 301.50
  Q 99.82 297.61 101.05 295.78
  C 103.81 291.68 111.18 292.70 111.44 298.54
  Q 111.65 303.22 111.50 318.19
  Q 111.50 318.50 111.80 318.50
  L 119.97 318.50
  Q 120.29 318.50 120.30 318.18
  Q 120.42 309.43 120.28 300.37
  C 120.15 292.22 118.70 286.37 109.49 286.33
  Q 103.58 286.31 99.74 290.66
  Q 99.26 291.20 99.27 290.48"
/>
<path stroke="#f78e8d" d="
  M 289.40 293.59
  C 292.30 291.26 298.33 292.00 299.05 296.17
  Q 299.11 296.51 299.46 296.51
  L 307.25 296.51
  A 0.25 0.24 -3.1 0 0 307.50 296.24
  Q 306.91 289.67 301.21 287.55
  C 296.03 285.63 287.09 285.73 282.91 289.48
  C 279.91 292.17 278.45 299.14 282.72 302.06
  C 286.82 304.87 292.91 305.35 297.67 307.06
  C 300.34 308.02 299.85 311.75 297.39 312.61
  Q 290.13 315.16 287.53 308.63
  Q 287.34 308.16 286.83 308.16
  L 280.00 308.14
  Q 279.51 308.14 279.52 308.63
  C 279.94 322.57 305.90 322.87 308.16 310.67
  C 310.87 295.98 288.84 301.84 288.94 294.54
  A 1.26 1.26 0.0 0 1 289.40 293.59"
/>
<path stroke="#f78e8d" d="
  M 321.22 305.03
  L 342.27 305.02
  A 0.43 0.43 0.0 0 0 342.70 304.63
  C 343.52 295.15 337.82 286.10 327.25 286.33
  C 308.72 286.73 305.76 313.91 322.78 318.67
  C 330.98 320.96 339.70 317.66 342.15 308.92
  A 0.24 0.24 0.0 0 0 341.92 308.61
  L 335.25 308.60
  Q 334.72 308.59 334.40 309.01
  C 330.17 314.59 320.62 313.71 320.54 305.71
  Q 320.53 305.03 321.22 305.03"
/>
<path stroke="#f78e8d" d="
  M 411.24 305.02
  L 432.27 305.03
  A 0.44 0.43 -87.1 0 0 432.70 304.63
  Q 433.29 297.77 429.47 292.03
  C 424.42 284.45 410.87 284.71 405.42 291.70
  Q 401.25 297.05 401.62 303.50
  Q 402.52 319.02 418.25 319.27
  Q 428.76 319.44 432.07 309.09
  Q 432.22 308.61 431.72 308.61
  L 425.03 308.59
  Q 424.60 308.59 424.34 308.94
  C 420.13 314.66 410.28 313.63 410.65 305.59
  Q 410.67 305.02 411.24 305.02"
/>
<path stroke="#f78e8d" d="
  M 473.36 306.99
  L 467.43 287.74
  A 0.74 0.73 81.4 0 0 466.73 287.22
  L 458.73 287.23
  Q 458.20 287.23 457.80 286.89
  Q 457.04 286.24 455.89 286.30
  Q 449.84 286.62 446.52 291.61
  Q 446.05 292.32 446.03 291.46
  L 445.99 288.22
  Q 445.97 287.22 444.97 287.22
  L 438.68 287.22
  Q 437.58 287.22 437.58 288.32
  L 437.58 318.04
  Q 437.58 318.50 438.04 318.50
  L 446.00 318.50
  Q 446.45 318.50 446.44 318.05
  Q 446.29 306.45 446.48 302.75
  Q 446.92 294.57 455.18 294.56
  C 455.80 294.55 456.66 294.80 457.43 294.77
  Q 457.90 294.76 457.89 294.29
  L 457.78 288.50
  Q 457.74 286.62 458.35 288.40
  L 468.51 318.10
  A 0.61 0.60 -9.5 0 0 469.08 318.50
  L 477.96 318.50
  Q 478.42 318.50 478.57 318.07
  L 488.89 287.52
  A 0.21 0.21 0.0 0 0 488.69 287.24
  L 480.48 287.21
  Q 480.16 287.21 480.06 287.52
  L 474.07 306.99
  Q 473.72 308.14 473.36 306.99"
/>
<path stroke="#f78e8d" d="
  M 520.06 293.58
  Q 526.52 291.12 528.58 297.93
  A 0.68 0.67 -8.0 0 0 529.23 298.41
  L 536.87 298.39
  A 0.42 0.41 -2.5 0 0 537.29 297.94
  C 536.22 283.80 514.87 282.81 508.93 293.74
  C 505.08 300.81 505.90 312.02 513.28 316.73
  C 522.55 322.64 535.76 318.75 537.49 306.62
  A 0.26 0.26 0.0 0 0 537.23 306.32
  L 529.31 306.31
  Q 529.04 306.31 528.98 306.57
  Q 527.63 312.21 523.28 312.58
  C 513.55 313.43 513.37 296.13 520.06 293.58"
/>
<path stroke="#f78e8d" d="
  M 550.22 305.02
  L 571.27 305.03
  A 0.43 0.43 0.0 0 0 571.70 304.64
  C 572.52 295.15 566.81 286.09 556.25 286.33
  C 534.04 286.82 535.61 323.16 560.00 318.97
  Q 568.59 317.50 571.18 308.95
  A 0.27 0.27 0.0 0 0 570.92 308.60
  L 564.26 308.59
  Q 563.72 308.59 563.40 309.02
  C 559.17 314.59 549.62 313.70 549.54 305.71
  Q 549.53 305.02 550.22 305.02"
/>
<path stroke="#f78e8d" d="
  M 594.73 308.28
  A 2.29 2.27 -45.6 0 1 594.75 311.07
  C 591.56 315.23 584.31 313.48 583.32 308.42
  Q 583.27 308.15 582.99 308.15
  L 575.32 308.13
  Q 575.00 308.13 575.02 308.44
  C 575.75 323.98 605.39 322.27 604.03 308.21
  Q 603.44 302.10 597.48 300.45
  C 594.58 299.65 586.31 298.51 584.76 296.02
  A 1.96 1.96 0.0 0 1 585.29 293.39
  C 588.11 291.38 594.07 292.01 594.68 296.26
  A 0.30 0.29 -3.2 0 0 594.98 296.52
  L 602.96 296.50
  Q 603.18 296.50 603.16 296.28
  Q 602.51 289.62 596.75 287.53
  C 590.32 285.20 576.48 285.42 575.73 295.28
  Q 575.21 302.07 581.95 303.91
  C 584.98 304.73 592.84 305.89 594.73 308.28"
/>
<path stroke="#f78e8d" d="
  M 769.36 290.04
  L 769.47 287.99
  Q 769.51 287.22 768.74 287.22
  L 761.80 287.22
  Q 761.06 287.22 761.06 287.95
  L 761.06 318.03
  Q 761.06 318.50 761.53 318.50
  L 769.49 318.50
  Q 769.94 318.50 769.93 318.05
  Q 769.82 309.87 769.94 301.22
  Q 769.99 297.91 770.74 296.44
  C 772.95 292.09 780.30 292.18 780.43 298.05
  Q 780.59 305.44 780.48 317.98
  Q 780.48 318.50 781.00 318.50
  L 788.78 318.50
  Q 789.32 318.50 789.32 317.96
  Q 789.29 310.85 789.25 303.00
  C 789.23 298.13 789.89 292.62 796.01 293.45
  C 799.21 293.88 800.08 297.13 800.06 300.00
  Q 800.01 309.37 799.98 318.21
  Q 799.98 318.50 800.27 318.50
  L 808.46 318.50
  Q 808.73 318.50 808.73 318.23
  Q 808.88 301.45 808.68 295.55
  C 808.54 291.61 806.06 288.42 802.25 287.12
  Q 794.46 284.45 788.40 290.56
  Q 788.05 290.91 787.74 290.52
  C 783.53 285.21 774.45 284.71 770.20 290.35
  A 0.47 0.47 0.0 0 1 769.36 290.04"
/>
<path stroke="#f78e8d" d="
  M 859.20 290.48
  L 859.24 287.99
  Q 859.25 287.22 858.49 287.22
  L 851.70 287.22
  Q 850.86 287.22 850.86 288.05
  L 850.84 318.05
  Q 850.84 318.50 851.30 318.50
  L 859.24 318.50
  Q 859.69 318.50 859.69 318.05
  Q 859.52 304.36 859.74 300.26
  Q 860.13 293.05 866.69 293.45
  C 871.08 293.72 871.50 298.13 871.49 301.50
  Q 871.45 310.12 871.45 318.20
  Q 871.46 318.50 871.76 318.50
  L 879.97 318.50
  Q 880.24 318.49 880.24 318.23
  Q 880.25 308.87 880.25 299.00
  C 880.24 293.20 878.54 287.66 872.15 286.52
  Q 864.60 285.16 859.64 290.65
  Q 859.19 291.15 859.20 290.48"
/>
<path stroke="#f78e8d" d="
  M 155.54 305.02
  L 176.71 305.03
  Q 177.11 305.03 177.15 304.63
  C 178.03 294.91 172.16 286.11 161.74 286.33
  C 141.88 286.74 140.28 317.09 160.31 319.25
  C 167.54 320.03 174.49 316.70 176.50 309.11
  Q 176.63 308.63 176.13 308.62
  L 169.53 308.57
  Q 169.07 308.57 168.81 308.94
  C 164.67 314.81 154.76 313.58 155.15 305.39
  Q 155.17 305.02 155.54 305.02"
/>
<path stroke="#f78e8d" d="
  M 190.45 291.49
  L 190.52 288.26
  Q 190.54 287.22 189.51 287.22
  L 183.18 287.22
  Q 182.08 287.22 182.08 288.32
  L 182.08 318.16
  Q 182.08 318.50 182.41 318.50
  L 190.69 318.49
  Q 190.95 318.49 190.95 318.23
  Q 190.75 306.03 190.99 302.50
  Q 191.62 293.30 202.14 294.78
  Q 202.37 294.81 202.37 294.57
  L 202.32 286.80
  Q 202.32 286.57 202.09 286.53
  C 196.88 285.79 194.07 287.98 190.86 291.66
  Q 190.43 292.15 190.45 291.49"
/>
<path stroke="#f78e8d" d="
  M 214.66 315.52
  C 221.58 322.40 232.81 319.36 235.93 310.47
  C 238.59 302.90 237.24 291.46 229.11 287.63
  C 224.29 285.36 217.91 285.87 214.20 290.35
  A 0.30 0.29 -23.7 0 1 213.68 290.15
  L 213.76 288.00
  Q 213.79 287.21 213.00 287.22
  L 206.18 287.23
  Q 205.34 287.23 205.34 288.07
  L 205.33 328.95
  Q 205.33 329.32 205.70 329.32
  L 213.79 329.33
  A 0.37 0.36 -89.2 0 0 214.16 328.96
  L 214.14 315.74
  Q 214.14 315.01 214.66 315.52"
/>
<path stroke="#f78e8d" d="
  M 250.45 291.50
  L 250.52 288.26
  Q 250.54 287.22 249.51 287.22
  L 243.18 287.22
  Q 242.09 287.22 242.08 288.32
  L 242.08 318.16
  Q 242.08 318.50 242.42 318.50
  L 250.69 318.49
  Q 250.95 318.49 250.95 318.23
  Q 250.76 306.80 250.98 303.00
  Q 251.54 293.48 262.10 294.73
  Q 262.37 294.76 262.37 294.48
  L 262.32 286.79
  Q 262.31 286.56 262.08 286.53
  C 256.85 285.80 254.09 287.98 250.86 291.66
  Q 250.43 292.15 250.45 291.50"
/>
<path stroke="#f78e8d" d="
  M 701.1130 301.1180
  A 14.59 14.59 0.0 0 0 686.5485 286.5025
  L 683.6885 286.4975
  A 14.59 14.59 0.0 0 0 669.0730 301.0620
  L 669.0670 304.5220
  A 14.59 14.59 0.0 0 0 683.6315 319.1375
  L 686.4915 319.1425
  A 14.59 14.59 0.0 0 0 701.1070 304.5780
  L 701.1130 301.1180"
/>
<path stroke="#f78e8d" d="
  M 715.03 290.22
  L 715.02 288.00
  Q 715.02 287.22 714.25 287.22
  L 707.51 287.22
  Q 706.74 287.22 706.74 287.99
  L 706.74 318.24
  A 0.26 0.26 0.0 0 0 707.00 318.50
  L 715.24 318.50
  A 0.28 0.28 0.0 0 0 715.52 318.22
  Q 715.48 309.51 715.45 300.26
  C 715.43 292.62 725.82 290.24 726.07 298.50
  Q 726.30 305.80 726.14 318.09
  A 0.40 0.39 0.7 0 0 726.54 318.49
  L 734.53 318.50
  A 0.48 0.47 -0.6 0 0 735.01 318.02
  Q 734.93 308.96 735.13 299.26
  Q 735.23 294.54 738.97 293.53
  C 744.12 292.15 745.48 296.02 745.52 300.32
  Q 745.61 309.34 745.55 318.01
  Q 745.55 318.50 746.03 318.50
  L 753.95 318.50
  Q 754.40 318.50 754.40 318.05
  Q 754.46 308.04 754.49 297.44
  C 754.52 285.51 740.49 282.76 733.89 290.87
  A 0.20 0.20 0.0 0 1 733.57 290.86
  C 728.95 284.59 720.49 285.12 715.60 290.44
  Q 715.03 291.07 715.03 290.22"
/>
<path stroke="#f78e8d" d="
  M 274.39 287.55
  A 0.33 0.33 0.0 0 0 274.06 287.22
  L 265.88 287.22
  A 0.33 0.33 0.0 0 0 265.55 287.55
  L 265.55 318.17
  A 0.33 0.33 0.0 0 0 265.88 318.50
  L 274.06 318.50
  A 0.33 0.33 0.0 0 0 274.39 318.17
  L 274.39 287.55"
/>
<path stroke="#f78e8d" d="
  M 501.14 287.56
  A 0.34 0.34 0.0 0 0 500.80 287.22
  L 492.66 287.22
  A 0.34 0.34 0.0 0 0 492.32 287.56
  L 492.32 318.16
  A 0.34 0.34 0.0 0 0 492.66 318.50
  L 500.80 318.50
  A 0.34 0.34 0.0 0 0 501.14 318.16
  L 501.14 287.56"
/>
<path stroke="#f78e8d" d="
  M 836.27 315.03
  L 836.22 317.73
  Q 836.20 318.50 836.98 318.50
  L 843.76 318.50
  Q 844.58 318.50 844.58 317.68
  L 844.59 287.52
  Q 844.59 287.22 844.29 287.22
  L 836.03 287.23
  Q 835.77 287.23 835.77 287.49
  Q 835.84 296.22 835.58 305.50
  C 835.46 309.80 832.81 313.19 828.42 312.28
  C 824.46 311.45 824.07 308.22 824.04 304.74
  Q 823.97 295.87 824.02 287.50
  A 0.28 0.27 1.0 0 0 823.74 287.22
  L 815.53 287.23
  Q 815.29 287.23 815.28 287.47
  Q 815.03 303.77 815.37 309.37
  C 816.06 320.79 829.67 322.24 835.90 314.89
  Q 836.28 314.44 836.27 315.03"
/>
<path stroke="#f78e8d" d="
  M 895.39 287.58
  A 0.36 0.36 0.0 0 0 895.03 287.22
  L 886.91 287.22
  A 0.36 0.36 0.0 0 0 886.55 287.58
  L 886.55 318.14
  A 0.36 0.36 0.0 0 0 886.91 318.50
  L 895.03 318.50
  A 0.36 0.36 0.0 0 0 895.39 318.14
  L 895.39 287.58"
/>
<path stroke="#f78e8d" d="
  M 935.23 306.75
  L 928.86 287.43
  A 0.32 0.32 0.0 0 0 928.55 287.20
  L 919.61 287.25
  A 0.18 0.17 79.5 0 0 919.45 287.49
  Q 924.64 301.46 930.01 315.50
  C 932.16 321.12 928.15 322.97 923.17 321.76
  Q 922.39 321.57 922.39 322.36
  L 922.37 328.30
  Q 922.37 329.14 923.21 329.19
  C 929.35 329.52 935.34 330.08 938.02 323.17
  Q 944.90 305.36 951.49 287.50
  A 0.20 0.20 0.0 0 0 951.30 287.23
  L 942.73 287.23
  Q 942.39 287.23 942.29 287.55
  L 936.18 306.74
  Q 935.71 308.21 935.23 306.75"
/>
<path stroke="#f78e8d" d="
  M 320.74 299.40
  L 333.58 299.38
  A 0.19 0.19 0.0 0 0 333.77 299.19
  L 333.76 299.08
  A 6.50 6.02 -0.1 0 0 327.25 293.07
  L 327.03 293.07
  A 6.50 6.02 -0.1 0 0 320.55 299.10
  L 320.55 299.21
  A 0.19 0.19 0.0 0 0 320.74 299.40"
/>
<path stroke="#f78e8d" d="
  M 410.74 299.41
  L 423.60 299.39
  A 0.19 0.19 0.0 0 0 423.79 299.20
  L 423.79 299.11
  A 6.52 6.06 -0.1 0 0 417.25 293.06
  L 417.05 293.06
  A 6.52 6.06 -0.1 0 0 410.55 299.13
  L 410.55 299.22
  A 0.19 0.19 0.0 0 0 410.74 299.41"
/>
<path stroke="#f78e8d" d="
  M 549.77 299.39
  L 562.55 299.37
  A 0.16 0.16 0.0 0 0 562.71 299.21
  L 562.71 299.11
  A 6.39 6.04 -0.1 0 0 556.30 293.08
  L 555.98 293.08
  A 6.39 6.04 -0.1 0 0 549.61 299.13
  L 549.61 299.23
  A 0.16 0.16 0.0 0 0 549.77 299.39"
/>
<path stroke="#f78e8d" d="
  M 155.24 299.40
  L 168.04 299.42
  A 0.19 0.19 0.0 0 0 168.23 299.23
  L 168.23 299.14
  A 6.41 6.06 0.1 0 0 161.84 293.07
  L 161.48 293.07
  A 6.41 6.06 0.1 0 0 155.05 299.12
  L 155.05 299.21
  A 0.19 0.19 0.0 0 0 155.24 299.40"
/>
<path stroke="#f78e8d" d="
  M 221.2486 312.7990
  A 9.93 7.36 89.2 0 0 228.4693 302.7672
  A 9.93 7.36 89.2 0 0 220.9714 292.9410
  A 9.93 7.36 89.2 0 0 213.7507 302.9728
  A 9.93 7.36 89.2 0 0 221.2486 312.7990"
/>
<path stroke="#f78e8d" d="
  M 685.0800 312.8000
  A 9.95 7.50 90.0 0 0 692.5800 302.8500
  A 9.95 7.50 90.0 0 0 685.0800 292.9000
  A 9.95 7.50 90.0 0 0 677.5800 302.8500
  A 9.95 7.50 90.0 0 0 685.0800 312.8000"
/>
</g>
<path fill="#ee1c1b" d="
  M 0.00 0.00
  L 1000.00 0.00
  L 1000.00 380.00
  L 0.00 380.00
  L 0.00 0.00
  Z
  M 593.02 128.24
  A 0.41 0.41 0.0 0 1 592.95 127.50
  Q 610.16 117.35 623.44 102.39
  A 1.37 1.33 66.5 0 0 623.78 101.49
  L 623.79 89.78
  Q 623.79 89.27 623.28 89.27
  L 561.20 89.27
  A 0.58 0.58 0.0 0 1 560.67 88.44
  L 564.43 80.41
  A 0.74 0.74 0.0 0 0 563.87 79.36
  L 549.75 77.21
  A 1.13 1.12 -73.7 0 0 548.55 77.87
  C 541.74 93.17 529.01 104.97 514.55 113.03
  A 0.78 0.78 0.0 0 0 514.31 114.19
  L 522.75 125.36
  A 1.05 1.04 -36.2 0 0 524.19 125.58
  L 538.95 115.07
  A 0.52 0.52 0.0 0 1 539.55 115.07
  L 556.67 127.21
  A 0.49 0.49 0.0 0 1 556.54 128.08
  Q 532.09 136.30 506.45 139.33
  A 0.67 0.67 0.0 0 0 505.93 140.29
  L 512.46 153.53
  Q 512.74 154.09 513.36 154.00
  Q 544.97 149.57 574.34 137.13
  Q 575.00 136.85 575.66 137.14
  C 595.36 145.95 615.64 151.11 637.13 153.57
  A 0.92 0.91 15.9 0 0 638.07 153.05
  L 644.22 140.25
  A 0.87 0.87 0.0 0 0 643.51 139.01
  Q 617.59 136.74 593.02 128.24
  Z
  M 692.70 158.27
  Q 692.70 157.29 693.48 157.89
  Q 700.78 163.52 707.07 170.28
  A 0.73 0.72 39.8 0 0 708.21 170.18
  L 716.22 157.77
  A 0.70 0.70 0.0 0 0 716.09 156.85
  Q 706.00 147.97 694.19 141.53
  A 0.93 0.93 0.0 0 1 693.89 140.14
  Q 703.61 127.59 709.61 112.82
  C 711.49 108.20 710.84 102.43 710.74 97.56
  A 0.74 0.74 0.0 0 0 710.00 96.83
  L 695.61 96.88
  A 1.19 1.19 0.0 0 1 694.49 96.09
  L 687.96 77.73
  A 0.57 0.57 0.0 0 0 687.27 77.37
  L 673.81 81.05
  A 0.83 0.83 0.0 0 0 673.27 82.18
  L 679.33 96.06
  A 0.57 0.56 78.2 0 1 678.82 96.85
  L 659.74 96.84
  A 0.42 0.42 0.0 0 0 659.32 97.26
  L 659.31 111.28
  Q 659.31 111.76 659.79 111.76
  L 694.04 111.77
  A 0.55 0.55 0.0 0 1 694.53 112.57
  C 685.61 130.09 671.39 145.10 656.13 157.17
  A 0.85 0.85 0.0 0 0 655.85 158.08
  L 660.43 173.27
  A 0.51 0.51 0.0 0 0 661.25 173.50
  L 676.37 160.26
  A 0.52 0.52 0.0 0 1 677.23 160.65
  L 677.24 215.86
  Q 677.24 216.49 677.86 216.49
  L 691.48 216.49
  Q 692.70 216.49 692.70 215.27
  L 692.70 158.27
  Z
  M 125.05 92.21
  Q 125.36 92.36 125.61 92.65
  Q 151.40 122.58 186.54 140.70
  A 0.68 0.68 0.0 0 0 187.44 140.43
  L 195.23 126.50
  A 0.81 0.81 0.0 0 0 194.87 125.37
  Q 158.79 108.17 131.84 78.92
  C 130.06 76.99 123.02 77.74 120.40 77.77
  C 119.36 77.78 118.85 78.26 118.21 78.96
  C 99.76 98.86 78.53 113.39 54.45 125.67
  A 0.60 0.60 0.0 0 0 54.19 126.50
  L 61.83 140.44
  A 0.78 0.77 61.7 0 0 62.87 140.76
  C 86.03 128.68 107.66 112.35 124.53 92.32
  A 0.43 0.43 0.0 0 1 125.05 92.21
  Z
  M 283.01 195.46
  A 0.75 0.75 0.0 0 1 282.26 196.21
  L 267.27 196.21
  A 0.75 0.75 0.0 0 1 266.52 195.46
  L 266.51 79.41
  A 0.75 0.75 0.0 0 0 265.76 78.66
  L 251.52 78.66
  A 0.75 0.75 0.0 0 0 250.77 79.41
  L 250.77 195.46
  A 0.75 0.75 0.0 0 1 250.02 196.21
  L 208.76 196.21
  A 0.75 0.75 0.0 0 0 208.01 196.96
  L 208.02 210.91
  A 0.75 0.75 0.0 0 0 208.77 211.66
  L 341.39 211.66
  A 0.75 0.75 0.0 0 0 342.14 210.91
  L 342.15 196.96
  A 0.75 0.75 0.0 0 0 341.40 196.21
  L 299.51 196.21
  A 0.75 0.75 0.0 0 1 298.76 195.46
  L 298.76 79.42
  A 0.75 0.75 0.0 0 0 298.01 78.67
  L 283.76 78.65
  A 0.75 0.75 0.0 0 0 283.01 79.40
  L 283.01 195.46
  Z
  M 741.95 120.55
  A 0.70 0.70 0.0 0 1 741.25 121.25
  L 710.95 121.24
  A 0.70 0.70 0.0 0 0 710.25 121.94
  L 710.25 135.82
  A 0.70 0.70 0.0 0 0 710.95 136.52
  L 741.26 136.53
  A 0.70 0.70 0.0 0 1 741.96 137.23
  L 741.94 195.55
  A 0.70 0.70 0.0 0 1 741.24 196.25
  L 705.63 196.25
  A 0.70 0.70 0.0 0 0 704.93 196.95
  L 704.94 211.05
  A 0.70 0.70 0.0 0 0 705.64 211.75
  L 793.39 211.75
  A 0.70 0.70 0.0 0 0 794.09 211.05
  L 794.11 196.96
  A 0.70 0.70 0.0 0 0 793.41 196.26
  L 758.58 196.25
  A 0.70 0.70 0.0 0 1 757.88 195.55
  L 757.88 137.23
  A 0.70 0.70 0.0 0 1 758.58 136.53
  L 789.95 136.53
  A 0.70 0.70 0.0 0 0 790.65 135.83
  L 790.62 121.95
  A 0.70 0.70 0.0 0 0 789.92 121.25
  L 758.58 121.24
  A 0.70 0.70 0.0 0 1 757.88 120.54
  L 757.89 79.69
  A 0.70 0.70 0.0 0 0 757.19 78.99
  L 742.65 78.99
  A 0.70 0.70 0.0 0 0 741.95 79.69
  L 741.95 120.55
  Z
  M 398.91 167.18
  Q 399.27 190.07 398.92 197.92
  C 398.71 202.52 395.77 203.28 391.65 202.96
  Q 387.62 202.64 383.57 202.64
  A 0.31 0.31 0.0 0 0 383.27 203.03
  L 386.73 215.51
  Q 386.91 216.15 387.58 216.18
  Q 394.65 216.53 401.99 215.94
  C 408.88 215.39 413.27 208.72 413.27 202.00
  Q 413.27 142.64 413.27 83.80
  A 1.03 1.02 -90.0 0 0 412.25 82.77
  L 366.24 82.77
  A 0.78 0.78 0.0 0 0 365.46 83.55
  Q 365.47 119.62 365.45 155.89
  C 365.45 172.88 363.34 189.61 356.72 205.40
  A 1.39 1.39 0.0 0 0 357.06 206.96
  L 367.52 216.45
  A 0.65 0.64 32.6 0 0 368.55 216.23
  C 375.20 200.34 377.94 184.20 379.06 167.19
  Q 379.09 166.72 379.56 166.72
  L 398.44 166.72
  Q 398.90 166.72 398.91 167.18
  Z
  M 471.23 97.43
  Q 471.33 105.53 469.72 113.70
  Q 468.74 118.71 464.01 118.75
  Q 457.41 118.81 451.08 118.78
  A 0.97 0.97 0.0 0 0 450.15 120.04
  L 453.80 131.67
  A 0.80 0.79 82.2 0 0 454.53 132.23
  C 461.24 132.36 469.77 132.92 476.10 130.62
  C 483.19 128.05 484.51 121.42 485.20 115.00
  Q 486.93 99.07 486.39 83.41
  A 0.66 0.65 89.1 0 0 485.74 82.77
  L 423.79 82.77
  Q 422.35 82.77 422.35 84.21
  L 422.35 215.59
  A 0.99 0.98 -0.0 0 0 423.34 216.57
  L 436.73 216.56
  Q 437.27 216.56 437.27 216.02
  L 437.28 207.52
  Q 437.28 205.09 438.58 207.14
  L 444.32 216.11
  Q 444.61 216.56 445.09 216.30
  C 452.91 212.00 458.26 207.62 465.51 200.52
  Q 465.95 200.10 466.39 200.51
  Q 475.86 209.42 487.04 216.05
  Q 487.56 216.37 487.87 215.84
  L 494.82 203.82
  A 0.89 0.88 -60.1 0 0 494.50 202.62
  Q 484.11 196.47 475.29 188.23
  Q 474.86 187.83 475.14 187.32
  Q 483.69 171.64 486.97 154.61
  C 487.96 149.47 487.75 144.21 487.66 138.90
  A 0.87 0.87 0.0 0 0 486.79 138.05
  L 438.04 138.06
  A 0.77 0.76 -90.0 0 1 437.28 137.29
  L 437.28 97.28
  A 0.45 0.44 -90.0 0 1 437.72 96.83
  L 470.64 96.84
  A 0.59 0.59 0.0 0 1 471.23 97.43
  Z
  M 831.17 195.66
  A 0.65 0.65 0.0 0 1 830.52 195.01
  L 830.52 99.15
  A 0.65 0.65 0.0 0 1 831.17 98.50
  L 935.50 98.50
  A 0.65 0.65 0.0 0 0 936.15 97.85
  L 936.16 84.05
  A 0.65 0.65 0.0 0 0 935.51 83.40
  L 815.90 83.40
  A 0.65 0.65 0.0 0 0 815.25 84.05
  L 815.25 210.19
  A 0.65 0.65 0.0 0 0 815.90 210.84
  L 940.14 210.84
  A 0.65 0.65 0.0 0 0 940.79 210.19
  L 940.78 196.31
  A 0.65 0.65 0.0 0 0 940.13 195.66
  L 831.17 195.66
  Z
  M 889.71 160.35
  A 0.60 0.60 0.0 0 1 890.55 160.33
  Q 904.53 173.48 916.88 188.19
  A 0.79 0.78 -42.4 0 0 918.04 188.24
  L 929.11 177.13
  A 0.72 0.71 45.9 0 0 929.12 176.15
  Q 915.59 161.44 900.86 147.91
  A 0.45 0.45 0.0 0 1 900.80 147.31
  Q 913.49 130.10 922.00 110.48
  A 0.55 0.55 0.0 0 0 921.75 109.77
  L 908.64 102.87
  A 0.73 0.73 0.0 0 0 907.63 103.22
  Q 899.91 120.79 888.60 136.30
  A 0.45 0.44 38.3 0 1 887.95 136.37
  Q 870.77 121.14 852.37 107.39
  Q 852.00 107.11 851.66 107.43
  L 841.14 117.61
  A 0.60 0.60 0.0 0 0 841.20 118.52
  Q 860.03 132.57 877.49 148.30
  A 0.68 0.68 0.0 0 1 877.52 149.29
  Q 864.85 161.89 849.06 170.24
  Q 843.86 172.99 838.44 175.69
  Q 837.87 175.97 838.22 176.50
  L 846.60 189.48
  Q 846.92 189.97 847.46 189.73
  Q 871.41 179.07 889.71 160.35
  Z
  M 223.51 106.78
  L 211.42 110.92
  A 0.87 0.86 70.9 0 0 210.89 112.03
  Q 222.36 144.48 229.61 178.13
  A 0.76 0.75 77.3 0 0 230.52 178.71
  L 243.53 175.47
  A 0.52 0.52 0.0 0 0 243.91 174.86
  Q 236.59 141.79 225.18 109.81
  Q 224.63 108.26 224.06 107.02
  A 0.45 0.44 68.2 0 0 223.51 106.78
  Z
  M 325.12 107.97
  C 320.07 130.20 313.24 152.27 303.73 172.98
  A 0.51 0.51 0.0 0 0 304.03 173.67
  L 316.98 178.22
  A 0.71 0.71 0.0 0 0 317.87 177.83
  Q 331.70 145.66 339.03 111.42
  A 0.50 0.50 0.0 0 0 338.68 110.83
  L 326.26 107.29
  A 0.92 0.91 14.1 0 0 325.12 107.97
  Z
  M 137.23 165.67
  A 0.68 0.68 0.0 0 1 137.91 164.99
  L 175.56 164.99
  A 0.68 0.68 0.0 0 0 176.24 164.31
  L 176.24 150.44
  A 0.68 0.68 0.0 0 0 175.56 149.76
  L 137.91 149.75
  A 0.68 0.68 0.0 0 1 137.23 149.07
  L 137.23 119.31
  A 0.68 0.68 0.0 0 0 136.55 118.63
  L 122.17 118.61
  A 0.68 0.68 0.0 0 0 121.49 119.29
  L 121.48 195.49
  A 0.68 0.68 0.0 0 1 120.80 196.17
  L 98.42 196.18
  A 0.68 0.68 0.0 0 1 97.74 195.50
  L 97.74 140.86
  A 0.68 0.68 0.0 0 0 97.06 140.18
  L 82.95 140.17
  A 0.68 0.68 0.0 0 0 82.27 140.85
  L 82.27 195.49
  A 0.68 0.68 0.0 0 1 81.59 196.17
  L 61.69 196.18
  A 0.68 0.68 0.0 0 0 61.01 196.86
  L 61.02 210.82
  A 0.68 0.68 0.0 0 0 61.70 211.50
  L 186.59 211.50
  A 0.68 0.68 0.0 0 0 187.27 210.82
  L 187.27 196.86
  A 0.68 0.68 0.0 0 0 186.59 196.18
  L 137.91 196.17
  A 0.68 0.68 0.0 0 1 137.23 195.49
  L 137.23 165.67
  Z
  M 556.25 174.04
  A 0.50 0.49 -75.2 0 1 556.68 174.78
  C 547.54 191.14 524.62 199.35 507.68 204.10
  A 0.66 0.66 0.0 0 0 507.34 205.15
  L 516.50 216.50
  A 1.12 1.11 62.2 0 0 517.68 216.87
  Q 536.97 211.21 553.49 200.50
  Q 567.99 191.10 574.05 174.54
  A 0.77 0.76 9.7 0 1 574.77 174.04
  L 613.01 174.04
  A 0.40 0.40 0.0 0 1 613.41 174.43
  Q 613.55 181.04 612.62 187.57
  C 611.65 194.33 611.16 198.92 604.25 200.58
  C 595.83 202.60 586.74 201.10 578.19 200.79
  A 0.56 0.56 0.0 0 0 577.63 201.50
  L 581.13 214.20
  A 0.78 0.77 85.0 0 0 581.80 214.77
  C 595.18 216.10 620.16 219.38 625.17 201.74
  C 628.78 189.00 629.19 174.06 628.97 160.71
  A 0.71 0.71 0.0 0 0 628.26 160.01
  L 578.89 160.01
  A 0.81 0.81 0.0 0 1 578.08 159.14
  L 578.99 146.15
  Q 579.03 145.50 578.38 145.50
  L 564.16 145.50
  A 0.66 0.65 -87.1 0 0 563.51 146.09
  L 562.27 158.93
  A 1.20 1.20 0.0 0 1 561.08 160.01
  L 516.70 160.01
  A 0.79 0.79 0.0 0 0 515.91 160.81
  L 515.93 173.24
  A 0.80 0.80 0.0 0 0 516.73 174.04
  L 556.25 174.04
  Z
  M 958.99 268.30
  A 15.89 15.89 0.0 0 0 943.10 252.41
  L 56.88 252.41
  A 15.89 15.89 0.0 0 0 40.99 268.30
  L 40.99 324.28
  A 15.89 15.89 0.0 0 0 56.88 340.17
  L 943.10 340.17
  A 15.89 15.89 0.0 0 0 958.99 324.28
  L 958.99 268.30
  Z"
/>
<path fill="#ffffff" d="
  M 593.02 128.24
  Q 617.59 136.74 643.51 139.01
  A 0.87 0.87 0.0 0 1 644.22 140.25
  L 638.07 153.05
  A 0.92 0.91 15.9 0 1 637.13 153.57
  C 615.64 151.11 595.36 145.95 575.66 137.14
  Q 575.00 136.85 574.34 137.13
  Q 544.97 149.57 513.36 154.00
  Q 512.74 154.09 512.46 153.53
  L 505.93 140.29
  A 0.67 0.67 0.0 0 1 506.45 139.33
  Q 532.09 136.30 556.54 128.08
  A 0.49 0.49 0.0 0 0 556.67 127.21
  L 539.55 115.07
  A 0.52 0.52 0.0 0 0 538.95 115.07
  L 524.19 125.58
  A 1.05 1.04 -36.2 0 1 522.75 125.36
  L 514.31 114.19
  A 0.78 0.78 0.0 0 1 514.55 113.03
  C 529.01 104.97 541.74 93.17 548.55 77.87
  A 1.13 1.12 -73.7 0 1 549.75 77.21
  L 563.87 79.36
  A 0.74 0.74 0.0 0 1 564.43 80.41
  L 560.67 88.44
  A 0.58 0.58 0.0 0 0 561.20 89.27
  L 623.28 89.27
  Q 623.79 89.27 623.79 89.78
  L 623.78 101.49
  A 1.37 1.33 66.5 0 1 623.44 102.39
  Q 610.16 117.35 592.95 127.50
  A 0.41 0.41 0.0 0 0 593.02 128.24
  Z
  M 550.66 104.97
  C 557.92 110.84 565.90 115.82 574.36 120.17
  A 0.97 0.96 45.3 0 0 575.24 120.18
  Q 588.07 113.84 599.31 104.99
  Q 600.57 104.00 598.96 104.00
  L 551.01 104.00
  Q 549.45 104.00 550.66 104.97
  Z"
/>
<path fill="#ffffff" d="
  M 692.70 158.27
  L 692.70 215.27
  Q 692.70 216.49 691.48 216.49
  L 677.86 216.49
  Q 677.24 216.49 677.24 215.86
  L 677.23 160.65
  A 0.52 0.52 0.0 0 0 676.37 160.26
  L 661.25 173.50
  A 0.51 0.51 0.0 0 1 660.43 173.27
  L 655.85 158.08
  A 0.85 0.85 0.0 0 1 656.13 157.17
  C 671.39 145.10 685.61 130.09 694.53 112.57
  A 0.55 0.55 0.0 0 0 694.04 111.77
  L 659.79 111.76
  Q 659.31 111.76 659.31 111.28
  L 659.32 97.26
  A 0.42 0.42 0.0 0 1 659.74 96.84
  L 678.82 96.85
  A 0.57 0.56 78.2 0 0 679.33 96.06
  L 673.27 82.18
  A 0.83 0.83 0.0 0 1 673.81 81.05
  L 687.27 77.37
  A 0.57 0.57 0.0 0 1 687.96 77.73
  L 694.49 96.09
  A 1.19 1.19 0.0 0 0 695.61 96.88
  L 710.00 96.83
  A 0.74 0.74 0.0 0 1 710.74 97.56
  C 710.84 102.43 711.49 108.20 709.61 112.82
  Q 703.61 127.59 693.89 140.14
  A 0.93 0.93 0.0 0 0 694.19 141.53
  Q 706.00 147.97 716.09 156.85
  A 0.70 0.70 0.0 0 1 716.22 157.77
  L 708.21 170.18
  A 0.73 0.72 39.8 0 1 707.07 170.28
  Q 700.78 163.52 693.48 157.89
  Q 692.70 157.29 692.70 158.27
  Z"
/>
<path fill="#ffffff" d="
  M 125.05 92.21
  A 0.43 0.43 0.0 0 0 124.53 92.32
  C 107.66 112.35 86.03 128.68 62.87 140.76
  A 0.78 0.77 61.7 0 1 61.83 140.44
  L 54.19 126.50
  A 0.60 0.60 0.0 0 1 54.45 125.67
  C 78.53 113.39 99.76 98.86 118.21 78.96
  C 118.85 78.26 119.36 77.78 120.40 77.77
  C 123.02 77.74 130.06 76.99 131.84 78.92
  Q 158.79 108.17 194.87 125.37
  A 0.81 0.81 0.0 0 1 195.23 126.50
  L 187.44 140.43
  A 0.68 0.68 0.0 0 1 186.54 140.70
  Q 151.40 122.58 125.61 92.65
  Q 125.36 92.36 125.05 92.21
  Z"
/>
<path fill="#ffffff" d="
  M 283.01 195.46
  L 283.01 79.40
  A 0.75 0.75 0.0 0 1 283.76 78.65
  L 298.01 78.67
  A 0.75 0.75 0.0 0 1 298.76 79.42
  L 298.76 195.46
  A 0.75 0.75 0.0 0 0 299.51 196.21
  L 341.40 196.21
  A 0.75 0.75 0.0 0 1 342.15 196.96
  L 342.14 210.91
  A 0.75 0.75 0.0 0 1 341.39 211.66
  L 208.77 211.66
  A 0.75 0.75 0.0 0 1 208.02 210.91
  L 208.01 196.96
  A 0.75 0.75 0.0 0 1 208.76 196.21
  L 250.02 196.21
  A 0.75 0.75 0.0 0 0 250.77 195.46
  L 250.77 79.41
  A 0.75 0.75 0.0 0 1 251.52 78.66
  L 265.76 78.66
  A 0.75 0.75 0.0 0 1 266.51 79.41
  L 266.52 195.46
  A 0.75 0.75 0.0 0 0 267.27 196.21
  L 282.26 196.21
  A 0.75 0.75 0.0 0 0 283.01 195.46
  Z"
/>
<path fill="#ffffff" d="
  M 741.95 120.55
  L 741.95 79.69
  A 0.70 0.70 0.0 0 1 742.65 78.99
  L 757.19 78.99
  A 0.70 0.70 0.0 0 1 757.89 79.69
  L 757.88 120.54
  A 0.70 0.70 0.0 0 0 758.58 121.24
  L 789.92 121.25
  A 0.70 0.70 0.0 0 1 790.62 121.95
  L 790.65 135.83
  A 0.70 0.70 0.0 0 1 789.95 136.53
  L 758.58 136.53
  A 0.70 0.70 0.0 0 0 757.88 137.23
  L 757.88 195.55
  A 0.70 0.70 0.0 0 0 758.58 196.25
  L 793.41 196.26
  A 0.70 0.70 0.0 0 1 794.11 196.96
  L 794.09 211.05
  A 0.70 0.70 0.0 0 1 793.39 211.75
  L 705.64 211.75
  A 0.70 0.70 0.0 0 1 704.94 211.05
  L 704.93 196.95
  A 0.70 0.70 0.0 0 1 705.63 196.25
  L 741.24 196.25
  A 0.70 0.70 0.0 0 0 741.94 195.55
  L 741.96 137.23
  A 0.70 0.70 0.0 0 0 741.26 136.53
  L 710.95 136.52
  A 0.70 0.70 0.0 0 1 710.25 135.82
  L 710.25 121.94
  A 0.70 0.70 0.0 0 1 710.95 121.24
  L 741.25 121.25
  A 0.70 0.70 0.0 0 0 741.95 120.55
  Z"
/>
<path fill="#ffffff" d="
  M 398.44 166.72
  L 379.56 166.72
  Q 379.09 166.72 379.06 167.19
  C 377.94 184.20 375.20 200.34 368.55 216.23
  A 0.65 0.64 32.6 0 1 367.52 216.45
  L 357.06 206.96
  A 1.39 1.39 0.0 0 1 356.72 205.40
  C 363.34 189.61 365.45 172.88 365.45 155.89
  Q 365.47 119.62 365.46 83.55
  A 0.78 0.78 0.0 0 1 366.24 82.77
  L 412.25 82.77
  A 1.03 1.02 90.0 0 1 413.27 83.80
  Q 413.27 142.64 413.27 202.00
  C 413.27 208.72 408.88 215.39 401.99 215.94
  Q 394.65 216.53 387.58 216.18
  Q 386.91 216.15 386.73 215.51
  L 383.27 203.03
  A 0.31 0.31 0.0 0 1 383.57 202.64
  Q 387.62 202.64 391.65 202.96
  C 395.77 203.28 398.71 202.52 398.92 197.92
  Q 399.27 190.07 398.91 167.18
  Q 398.90 166.72 398.44 166.72
  Z
  M 399.02 97.54
  A 0.70 0.70 0.0 0 0 398.32 96.84
  L 379.98 96.84
  A 0.70 0.70 0.0 0 0 379.28 97.54
  L 379.28 117.12
  A 0.70 0.70 0.0 0 0 379.98 117.82
  L 398.32 117.82
  A 0.70 0.70 0.0 0 0 399.02 117.12
  L 399.02 97.54
  Z
  M 399.0366 132.6572
  A 0.92 0.92 0.0 0 0 398.1182 131.7356
  L 380.2183 131.7044
  A 0.92 0.92 0.0 0 0 379.2967 132.6228
  L 379.2634 151.7028
  A 0.92 0.92 0.0 0 0 380.1818 152.6244
  L 398.0817 152.6556
  A 0.92 0.92 0.0 0 0 399.0033 151.7372
  L 399.0366 132.6572
  Z"
/>
<path fill="#ffffff" d="
  M 471.23 97.43
  A 0.59 0.59 0.0 0 0 470.64 96.84
  L 437.72 96.83
  A 0.45 0.44 90.0 0 0 437.28 97.28
  L 437.28 137.29
  A 0.77 0.76 90.0 0 0 438.04 138.06
  L 486.79 138.05
  A 0.87 0.87 0.0 0 1 487.66 138.90
  C 487.75 144.21 487.96 149.47 486.97 154.61
  Q 483.69 171.64 475.14 187.32
  Q 474.86 187.83 475.29 188.23
  Q 484.11 196.47 494.50 202.62
  A 0.89 0.88 -60.1 0 1 494.82 203.82
  L 487.87 215.84
  Q 487.56 216.37 487.04 216.05
  Q 475.86 209.42 466.39 200.51
  Q 465.95 200.10 465.51 200.52
  C 458.26 207.62 452.91 212.00 445.09 216.30
  Q 444.61 216.56 444.32 216.11
  L 438.58 207.14
  Q 437.28 205.09 437.28 207.52
  L 437.27 216.02
  Q 437.27 216.56 436.73 216.56
  L 423.34 216.57
  A 0.99 0.98 0.0 0 1 422.35 215.59
  L 422.35 84.21
  Q 422.35 82.77 423.79 82.77
  L 485.74 82.77
  A 0.66 0.65 89.1 0 1 486.39 83.41
  Q 486.93 99.07 485.20 115.00
  C 484.51 121.42 483.19 128.05 476.10 130.62
  C 469.77 132.92 461.24 132.36 454.53 132.23
  A 0.80 0.79 82.2 0 1 453.80 131.67
  L 450.15 120.04
  A 0.97 0.97 0.0 0 1 451.08 118.78
  Q 457.41 118.81 464.01 118.75
  Q 468.74 118.71 469.72 113.70
  Q 471.33 105.53 471.23 97.43
  Z
  M 455.31 188.09
  C 447.46 177.70 441.81 165.91 438.76 153.24
  Q 438.54 152.34 437.97 151.90
  A 0.43 0.42 -70.9 0 0 437.28 152.24
  L 437.27 202.76
  A 0.46 0.45 -15.2 0 0 437.96 203.15
  Q 447.63 197.45 455.25 189.21
  A 0.88 0.87 -42.2 0 0 455.31 188.09
  Z
  M 464.93 175.39
  Q 470.91 164.34 473.71 152.08
  A 0.27 0.27 0.0 0 0 473.45 151.75
  L 452.27 151.74
  A 0.37 0.37 0.0 0 0 451.92 152.22
  Q 455.87 164.88 463.83 175.48
  Q 464.44 176.29 464.93 175.39
  Z"
/>
<path fill="#ffffff" d="
  M 831.17 195.66
  L 940.13 195.66
  A 0.65 0.65 0.0 0 1 940.78 196.31
  L 940.79 210.19
  A 0.65 0.65 0.0 0 1 940.14 210.84
  L 815.90 210.84
  A 0.65 0.65 0.0 0 1 815.25 210.19
  L 815.25 84.05
  A 0.65 0.65 0.0 0 1 815.90 83.40
  L 935.51 83.40
  A 0.65 0.65 0.0 0 1 936.16 84.05
  L 936.15 97.85
  A 0.65 0.65 0.0 0 1 935.50 98.50
  L 831.17 98.50
  A 0.65 0.65 0.0 0 0 830.52 99.15
  L 830.52 195.01
  A 0.65 0.65 0.0 0 0 831.17 195.66
  Z"
/>
<rect fill="#ee1c1b" x="379.28" y="96.84" width="19.74" height="20.98" rx="0.70"/>
<path fill="#ffffff" d="
  M 889.71 160.35
  Q 871.41 179.07 847.46 189.73
  Q 846.92 189.97 846.60 189.48
  L 838.22 176.50
  Q 837.87 175.97 838.44 175.69
  Q 843.86 172.99 849.06 170.24
  Q 864.85 161.89 877.52 149.29
  A 0.68 0.68 0.0 0 0 877.49 148.30
  Q 860.03 132.57 841.20 118.52
  A 0.60 0.60 0.0 0 1 841.14 117.61
  L 851.66 107.43
  Q 852.00 107.11 852.37 107.39
  Q 870.77 121.14 887.95 136.37
  A 0.45 0.44 38.3 0 0 888.60 136.30
  Q 899.91 120.79 907.63 103.22
  A 0.73 0.73 0.0 0 1 908.64 102.87
  L 921.75 109.77
  A 0.55 0.55 0.0 0 1 922.00 110.48
  Q 913.49 130.10 900.80 147.31
  A 0.45 0.45 0.0 0 0 900.86 147.91
  Q 915.59 161.44 929.12 176.15
  A 0.72 0.71 45.9 0 1 929.11 177.13
  L 918.04 188.24
  A 0.79 0.78 -42.4 0 1 916.88 188.19
  Q 904.53 173.48 890.55 160.33
  A 0.60 0.60 0.0 0 0 889.71 160.35
  Z"
/>
<path fill="#ee1c1b" d="
  M 574.36 120.17
  C 565.90 115.82 557.92 110.84 550.66 104.97
  Q 549.45 104.00 551.01 104.00
  L 598.96 104.00
  Q 600.57 104.00 599.31 104.99
  Q 588.07 113.84 575.24 120.18
  A 0.97 0.96 45.3 0 1 574.36 120.17
  Z"
/>
<path fill="#ffffff" d="
  M 223.51 106.78
  A 0.45 0.44 68.2 0 1 224.06 107.02
  Q 224.63 108.26 225.18 109.81
  Q 236.59 141.79 243.91 174.86
  A 0.52 0.52 0.0 0 1 243.53 175.47
  L 230.52 178.71
  A 0.76 0.75 77.3 0 1 229.61 178.13
  Q 222.36 144.48 210.89 112.03
  A 0.87 0.86 70.9 0 1 211.42 110.92
  L 223.51 106.78
  Z"
/>
<path fill="#ffffff" d="
  M 303.73 172.98
  C 313.24 152.27 320.07 130.20 325.12 107.97
  A 0.92 0.91 14.1 0 1 326.26 107.29
  L 338.68 110.83
  A 0.50 0.50 0.0 0 1 339.03 111.42
  Q 331.70 145.66 317.87 177.83
  A 0.71 0.71 0.0 0 1 316.98 178.22
  L 304.03 173.67
  A 0.51 0.51 0.0 0 1 303.73 172.98
  Z"
/>
<path fill="#ffffff" d="
  M 137.23 165.67
  L 137.23 195.49
  A 0.68 0.68 0.0 0 0 137.91 196.17
  L 186.59 196.18
  A 0.68 0.68 0.0 0 1 187.27 196.86
  L 187.27 210.82
  A 0.68 0.68 0.0 0 1 186.59 211.50
  L 61.70 211.50
  A 0.68 0.68 0.0 0 1 61.02 210.82
  L 61.01 196.86
  A 0.68 0.68 0.0 0 1 61.69 196.18
  L 81.59 196.17
  A 0.68 0.68 0.0 0 0 82.27 195.49
  L 82.27 140.85
  A 0.68 0.68 0.0 0 1 82.95 140.17
  L 97.06 140.18
  A 0.68 0.68 0.0 0 1 97.74 140.86
  L 97.74 195.50
  A 0.68 0.68 0.0 0 0 98.42 196.18
  L 120.80 196.17
  A 0.68 0.68 0.0 0 0 121.48 195.49
  L 121.49 119.29
  A 0.68 0.68 0.0 0 1 122.17 118.61
  L 136.55 118.63
  A 0.68 0.68 0.0 0 1 137.23 119.31
  L 137.23 149.07
  A 0.68 0.68 0.0 0 0 137.91 149.75
  L 175.56 149.76
  A 0.68 0.68 0.0 0 1 176.24 150.44
  L 176.24 164.31
  A 0.68 0.68 0.0 0 1 175.56 164.99
  L 137.91 164.99
  A 0.68 0.68 0.0 0 0 137.23 165.67
  Z"
/>
<rect fill="#ee1c1b" x="-9.87" y="-10.46" transform="translate(389.15,142.18) rotate(0.1)" width="19.74" height="20.92" rx="0.92"/>
<path fill="#ffffff" d="
  M 556.25 174.04
  L 516.73 174.04
  A 0.80 0.80 0.0 0 1 515.93 173.24
  L 515.91 160.81
  A 0.79 0.79 0.0 0 1 516.70 160.01
  L 561.08 160.01
  A 1.20 1.20 0.0 0 0 562.27 158.93
  L 563.51 146.09
  A 0.66 0.65 -87.1 0 1 564.16 145.50
  L 578.38 145.50
  Q 579.03 145.50 578.99 146.15
  L 578.08 159.14
  A 0.81 0.81 0.0 0 0 578.89 160.01
  L 628.26 160.01
  A 0.71 0.71 0.0 0 1 628.97 160.71
  C 629.19 174.06 628.78 189.00 625.17 201.74
  C 620.16 219.38 595.18 216.10 581.80 214.77
  A 0.78 0.77 85.0 0 1 581.13 214.20
  L 577.63 201.50
  A 0.56 0.56 0.0 0 1 578.19 200.79
  C 586.74 201.10 595.83 202.60 604.25 200.58
  C 611.16 198.92 611.65 194.33 612.62 187.57
  Q 613.55 181.04 613.41 174.43
  A 0.40 0.40 0.0 0 0 613.01 174.04
  L 574.77 174.04
  A 0.77 0.76 9.7 0 0 574.05 174.54
  Q 567.99 191.10 553.49 200.50
  Q 536.97 211.21 517.68 216.87
  A 1.12 1.11 62.2 0 1 516.50 216.50
  L 507.34 205.15
  A 0.66 0.66 0.0 0 1 507.68 204.10
  C 524.62 199.35 547.54 191.14 556.68 174.78
  A 0.50 0.49 -75.2 0 0 556.25 174.04
  Z"
/>
<path fill="#ee1c1b" d="
  M 438.76 153.24
  C 441.81 165.91 447.46 177.70 455.31 188.09
  A 0.88 0.87 -42.2 0 1 455.25 189.21
  Q 447.63 197.45 437.96 203.15
  A 0.46 0.45 -15.2 0 1 437.27 202.76
  L 437.28 152.24
  A 0.43 0.42 -70.9 0 1 437.97 151.90
  Q 438.54 152.34 438.76 153.24
  Z"
/>
<path fill="#ee1c1b" d="
  M 464.93 175.39
  Q 464.44 176.29 463.83 175.48
  Q 455.87 164.88 451.92 152.22
  A 0.37 0.37 0.0 0 1 452.27 151.74
  L 473.45 151.75
  A 0.27 0.27 0.0 0 1 473.71 152.08
  Q 470.91 164.34 464.93 175.39
  Z"
/>
<path fill="#ffffff" d="
  M 958.99 324.28
  A 15.89 15.89 0.0 0 1 943.10 340.17
  L 56.88 340.17
  A 15.89 15.89 0.0 0 1 40.99 324.28
  L 40.99 268.30
  A 15.89 15.89 0.0 0 1 56.88 252.41
  L 943.10 252.41
  A 15.89 15.89 0.0 0 1 958.99 268.30
  L 958.99 324.28
  Z
  M 382.92 282.29
  C 384.90 282.86 387.62 284.54 387.54 286.67
  Q 387.47 288.45 389.26 288.46
  L 395.78 288.46
  Q 397.53 288.46 397.32 286.72
  C 395.45 271.59 370.17 270.04 364.72 282.84
  C 362.05 289.14 365.30 295.90 371.77 298.21
  Q 375.83 299.66 384.77 301.96
  C 388.91 303.03 391.60 308.37 386.74 310.69
  C 381.48 313.19 371.87 312.07 371.90 304.22
  Q 371.90 304.01 371.68 304.01
  L 362.71 303.99
  Q 362.42 303.99 362.43 304.28
  C 362.86 318.52 377.61 321.42 388.68 318.40
  C 394.29 316.86 398.06 312.77 398.65 306.90
  C 399.84 295.05 387.92 293.36 379.24 291.27
  C 377.03 290.73 374.11 289.84 373.30 287.52
  Q 372.54 285.30 374.52 283.70
  Q 378.02 280.88 382.92 282.29
  Z
  M 645.53 311.24
  C 630.69 311.45 630.37 284.53 643.73 282.69
  Q 652.00 281.55 654.74 289.63
  Q 654.87 290.03 655.29 290.03
  L 663.55 290.03
  Q 664.07 290.03 664.01 289.52
  C 662.62 276.66 648.55 271.50 637.91 275.64
  C 615.31 284.43 622.15 323.48 649.03 319.22
  Q 662.84 317.03 664.54 302.03
  A 0.26 0.25 -86.9 0 0 664.29 301.74
  L 655.47 301.73
  Q 655.12 301.73 655.07 302.08
  C 654.28 307.53 651.26 311.16 645.53 311.24
  Z
  M 62.72 283.87
  A 0.32 0.32 0.0 0 1 63.04 283.55
  L 84.98 283.55
  A 0.32 0.32 0.0 0 0 85.30 283.23
  L 85.28 275.70
  A 0.32 0.32 0.0 0 0 84.96 275.38
  L 53.32 275.37
  A 0.32 0.32 0.0 0 0 53.00 275.69
  L 53.00 318.18
  A 0.32 0.32 0.0 0 0 53.32 318.50
  L 85.46 318.50
  A 0.32 0.32 0.0 0 0 85.78 318.18
  L 85.75 310.59
  A 0.32 0.32 0.0 0 0 85.43 310.27
  L 63.04 310.27
  A 0.32 0.32 0.0 0 1 62.72 309.95
  L 62.72 300.37
  A 0.32 0.32 0.0 0 1 63.04 300.05
  L 83.17 300.05
  A 0.32 0.32 0.0 0 0 83.49 299.73
  L 83.48 292.81
  A 0.32 0.32 0.0 0 0 83.16 292.49
  L 63.04 292.49
  A 0.32 0.32 0.0 0 1 62.72 292.17
  L 62.72 283.87
  Z
  M 274.4057 275.7777
  A 0.40 0.40 0.0 0 0 274.0064 275.3770
  L 265.9664 275.3630
  A 0.40 0.40 0.0 0 0 265.5657 275.7623
  L 265.5543 282.2823
  A 0.40 0.40 0.0 0 0 265.9536 282.6830
  L 273.9936 282.6970
  A 0.40 0.40 0.0 0 0 274.3943 282.2977
  L 274.4057 275.7777
  Z
  M 501.15 275.79
  A 0.42 0.42 0.0 0 0 500.73 275.37
  L 492.75 275.37
  A 0.42 0.42 0.0 0 0 492.33 275.79
  L 492.33 282.27
  A 0.42 0.42 0.0 0 0 492.75 282.69
  L 500.73 282.69
  A 0.42 0.42 0.0 0 0 501.15 282.27
  L 501.15 275.79
  Z
  M 895.3957 275.7777
  A 0.40 0.40 0.0 0 0 894.9964 275.3770
  L 886.9564 275.3630
  A 0.40 0.40 0.0 0 0 886.5557 275.7623
  L 886.5443 282.2823
  A 0.40 0.40 0.0 0 0 886.9436 282.6830
  L 894.9836 282.6970
  A 0.40 0.40 0.0 0 0 895.3843 282.2977
  L 895.3957 275.7777
  Z
  M 128.26 287.23
  L 124.56 287.23
  Q 123.59 287.22 123.58 288.19
  L 123.55 292.00
  Q 123.54 293.21 124.75 293.20
  L 128.25 293.17
  A 0.51 0.51 0.0 0 1 128.76 293.68
  Q 128.73 301.87 128.78 310.07
  C 128.83 319.70 135.77 319.22 143.22 318.63
  A 0.60 0.60 0.0 0 0 143.77 318.03
  L 143.76 312.20
  Q 143.76 311.63 143.19 311.71
  C 140.21 312.11 137.37 312.00 137.41 308.25
  Q 137.48 300.98 137.58 293.63
  Q 137.58 293.18 138.03 293.18
  L 142.66 293.19
  Q 143.77 293.19 143.77 292.09
  L 143.77 287.98
  Q 143.77 287.20 142.99 287.21
  L 138.26 287.23
  Q 137.53 287.23 137.53 286.51
  L 137.54 278.22
  A 0.32 0.32 0.0 0 0 137.22 277.90
  L 129.06 277.90
  Q 128.76 277.90 128.76 278.19
  L 128.75 286.74
  Q 128.75 287.23 128.26 287.23
  Z
  M 904.18 293.84
  Q 904.13 302.55 903.96 311.25
  C 903.82 319.15 912.20 319.23 918.14 318.66
  Q 919.22 318.56 919.21 317.48
  L 919.17 312.73
  Q 919.16 311.79 918.23 311.78
  L 915.00 311.73
  A 2.05 2.05 0.0 0 1 912.98 309.68
  L 912.94 293.75
  Q 912.94 293.18 913.51 293.18
  L 918.95 293.20
  A 0.24 0.24 0.0 0 0 919.19 292.96
  L 919.14 287.55
  Q 919.14 287.22 918.81 287.22
  L 913.48 287.22
  Q 912.97 287.22 912.97 286.72
  L 912.92 278.24
  A 0.36 0.36 0.0 0 0 912.56 277.88
  L 904.52 277.92
  A 0.38 0.38 0.0 0 0 904.14 278.30
  L 904.14 286.56
  Q 904.14 287.24 903.46 287.24
  L 899.90 287.21
  Q 899.00 287.21 899.00 288.11
  L 898.99 292.34
  Q 898.98 293.19 899.84 293.19
  L 903.54 293.19
  A 0.65 0.65 0.0 0 1 904.18 293.84
  Z
  M 99.27 290.48
  L 99.33 288.04
  Q 99.34 287.23 98.54 287.23
  L 91.77 287.22
  Q 91.00 287.21 91.00 287.98
  L 90.99 318.25
  A 0.26 0.25 -0.0 0 0 91.25 318.50
  L 99.49 318.50
  A 0.28 0.28 0.0 0 0 99.77 318.22
  Q 99.75 310.14 99.80 301.50
  Q 99.82 297.61 101.05 295.78
  C 103.81 291.68 111.18 292.70 111.44 298.54
  Q 111.65 303.22 111.50 318.19
  Q 111.50 318.50 111.80 318.50
  L 119.97 318.50
  Q 120.29 318.50 120.30 318.18
  Q 120.42 309.43 120.28 300.37
  C 120.15 292.22 118.70 286.37 109.49 286.33
  Q 103.58 286.31 99.74 290.66
  Q 99.26 291.20 99.27 290.48
  Z
  M 289.40 293.59
  C 292.30 291.26 298.33 292.00 299.05 296.17
  Q 299.11 296.51 299.46 296.51
  L 307.25 296.51
  A 0.25 0.24 -3.1 0 0 307.50 296.24
  Q 306.91 289.67 301.21 287.55
  C 296.03 285.63 287.09 285.73 282.91 289.48
  C 279.91 292.17 278.45 299.14 282.72 302.06
  C 286.82 304.87 292.91 305.35 297.67 307.06
  C 300.34 308.02 299.85 311.75 297.39 312.61
  Q 290.13 315.16 287.53 308.63
  Q 287.34 308.16 286.83 308.16
  L 280.00 308.14
  Q 279.51 308.14 279.52 308.63
  C 279.94 322.57 305.90 322.87 308.16 310.67
  C 310.87 295.98 288.84 301.84 288.94 294.54
  A 1.26 1.26 0.0 0 1 289.40 293.59
  Z
  M 321.22 305.03
  L 342.27 305.02
  A 0.43 0.43 0.0 0 0 342.70 304.63
  C 343.52 295.15 337.82 286.10 327.25 286.33
  C 308.72 286.73 305.76 313.91 322.78 318.67
  C 330.98 320.96 339.70 317.66 342.15 308.92
  A 0.24 0.24 0.0 0 0 341.92 308.61
  L 335.25 308.60
  Q 334.72 308.59 334.40 309.01
  C 330.17 314.59 320.62 313.71 320.54 305.71
  Q 320.53 305.03 321.22 305.03
  Z
  M 411.24 305.02
  L 432.27 305.03
  A 0.44 0.43 -87.1 0 0 432.70 304.63
  Q 433.29 297.77 429.47 292.03
  C 424.42 284.45 410.87 284.71 405.42 291.70
  Q 401.25 297.05 401.62 303.50
  Q 402.52 319.02 418.25 319.27
  Q 428.76 319.44 432.07 309.09
  Q 432.22 308.61 431.72 308.61
  L 425.03 308.59
  Q 424.60 308.59 424.34 308.94
  C 420.13 314.66 410.28 313.63 410.65 305.59
  Q 410.67 305.02 411.24 305.02
  Z
  M 473.36 306.99
  L 467.43 287.74
  A 0.74 0.73 81.4 0 0 466.73 287.22
  L 458.73 287.23
  Q 458.20 287.23 457.80 286.89
  Q 457.04 286.24 455.89 286.30
  Q 449.84 286.62 446.52 291.61
  Q 446.05 292.32 446.03 291.46
  L 445.99 288.22
  Q 445.97 287.22 444.97 287.22
  L 438.68 287.22
  Q 437.58 287.22 437.58 288.32
  L 437.58 318.04
  Q 437.58 318.50 438.04 318.50
  L 446.00 318.50
  Q 446.45 318.50 446.44 318.05
  Q 446.29 306.45 446.48 302.75
  Q 446.92 294.57 455.18 294.56
  C 455.80 294.55 456.66 294.80 457.43 294.77
  Q 457.90 294.76 457.89 294.29
  L 457.78 288.50
  Q 457.74 286.62 458.35 288.40
  L 468.51 318.10
  A 0.61 0.60 -9.5 0 0 469.08 318.50
  L 477.96 318.50
  Q 478.42 318.50 478.57 318.07
  L 488.89 287.52
  A 0.21 0.21 0.0 0 0 488.69 287.24
  L 480.48 287.21
  Q 480.16 287.21 480.06 287.52
  L 474.07 306.99
  Q 473.72 308.14 473.36 306.99
  Z
  M 520.06 293.58
  Q 526.52 291.12 528.58 297.93
  A 0.68 0.67 -8.0 0 0 529.23 298.41
  L 536.87 298.39
  A 0.42 0.41 -2.5 0 0 537.29 297.94
  C 536.22 283.80 514.87 282.81 508.93 293.74
  C 505.08 300.81 505.90 312.02 513.28 316.73
  C 522.55 322.64 535.76 318.75 537.49 306.62
  A 0.26 0.26 0.0 0 0 537.23 306.32
  L 529.31 306.31
  Q 529.04 306.31 528.98 306.57
  Q 527.63 312.21 523.28 312.58
  C 513.55 313.43 513.37 296.13 520.06 293.58
  Z
  M 550.22 305.02
  L 571.27 305.03
  A 0.43 0.43 0.0 0 0 571.70 304.64
  C 572.52 295.15 566.81 286.09 556.25 286.33
  C 534.04 286.82 535.61 323.16 560.00 318.97
  Q 568.59 317.50 571.18 308.95
  A 0.27 0.27 0.0 0 0 570.92 308.60
  L 564.26 308.59
  Q 563.72 308.59 563.40 309.02
  C 559.17 314.59 549.62 313.70 549.54 305.71
  Q 549.53 305.02 550.22 305.02
  Z
  M 594.73 308.28
  A 2.29 2.27 -45.6 0 1 594.75 311.07
  C 591.56 315.23 584.31 313.48 583.32 308.42
  Q 583.27 308.15 582.99 308.15
  L 575.32 308.13
  Q 575.00 308.13 575.02 308.44
  C 575.75 323.98 605.39 322.27 604.03 308.21
  Q 603.44 302.10 597.48 300.45
  C 594.58 299.65 586.31 298.51 584.76 296.02
  A 1.96 1.96 0.0 0 1 585.29 293.39
  C 588.11 291.38 594.07 292.01 594.68 296.26
  A 0.30 0.29 -3.2 0 0 594.98 296.52
  L 602.96 296.50
  Q 603.18 296.50 603.16 296.28
  Q 602.51 289.62 596.75 287.53
  C 590.32 285.20 576.48 285.42 575.73 295.28
  Q 575.21 302.07 581.95 303.91
  C 584.98 304.73 592.84 305.89 594.73 308.28
  Z
  M 769.36 290.04
  L 769.47 287.99
  Q 769.51 287.22 768.74 287.22
  L 761.80 287.22
  Q 761.06 287.22 761.06 287.95
  L 761.06 318.03
  Q 761.06 318.50 761.53 318.50
  L 769.49 318.50
  Q 769.94 318.50 769.93 318.05
  Q 769.82 309.87 769.94 301.22
  Q 769.99 297.91 770.74 296.44
  C 772.95 292.09 780.30 292.18 780.43 298.05
  Q 780.59 305.44 780.48 317.98
  Q 780.48 318.50 781.00 318.50
  L 788.78 318.50
  Q 789.32 318.50 789.32 317.96
  Q 789.29 310.85 789.25 303.00
  C 789.23 298.13 789.89 292.62 796.01 293.45
  C 799.21 293.88 800.08 297.13 800.06 300.00
  Q 800.01 309.37 799.98 318.21
  Q 799.98 318.50 800.27 318.50
  L 808.46 318.50
  Q 808.73 318.50 808.73 318.23
  Q 808.88 301.45 808.68 295.55
  C 808.54 291.61 806.06 288.42 802.25 287.12
  Q 794.46 284.45 788.40 290.56
  Q 788.05 290.91 787.74 290.52
  C 783.53 285.21 774.45 284.71 770.20 290.35
  A 0.47 0.47 0.0 0 1 769.36 290.04
  Z
  M 859.20 290.48
  L 859.24 287.99
  Q 859.25 287.22 858.49 287.22
  L 851.70 287.22
  Q 850.86 287.22 850.86 288.05
  L 850.84 318.05
  Q 850.84 318.50 851.30 318.50
  L 859.24 318.50
  Q 859.69 318.50 859.69 318.05
  Q 859.52 304.36 859.74 300.26
  Q 860.13 293.05 866.69 293.45
  C 871.08 293.72 871.50 298.13 871.49 301.50
  Q 871.45 310.12 871.45 318.20
  Q 871.46 318.50 871.76 318.50
  L 879.97 318.50
  Q 880.24 318.49 880.24 318.23
  Q 880.25 308.87 880.25 299.00
  C 880.24 293.20 878.54 287.66 872.15 286.52
  Q 864.60 285.16 859.64 290.65
  Q 859.19 291.15 859.20 290.48
  Z
  M 155.54 305.02
  L 176.71 305.03
  Q 177.11 305.03 177.15 304.63
  C 178.03 294.91 172.16 286.11 161.74 286.33
  C 141.88 286.74 140.28 317.09 160.31 319.25
  C 167.54 320.03 174.49 316.70 176.50 309.11
  Q 176.63 308.63 176.13 308.62
  L 169.53 308.57
  Q 169.07 308.57 168.81 308.94
  C 164.67 314.81 154.76 313.58 155.15 305.39
  Q 155.17 305.02 155.54 305.02
  Z
  M 190.45 291.49
  L 190.52 288.26
  Q 190.54 287.22 189.51 287.22
  L 183.18 287.22
  Q 182.08 287.22 182.08 288.32
  L 182.08 318.16
  Q 182.08 318.50 182.41 318.50
  L 190.69 318.49
  Q 190.95 318.49 190.95 318.23
  Q 190.75 306.03 190.99 302.50
  Q 191.62 293.30 202.14 294.78
  Q 202.37 294.81 202.37 294.57
  L 202.32 286.80
  Q 202.32 286.57 202.09 286.53
  C 196.88 285.79 194.07 287.98 190.86 291.66
  Q 190.43 292.15 190.45 291.49
  Z
  M 214.66 315.52
  C 221.58 322.40 232.81 319.36 235.93 310.47
  C 238.59 302.90 237.24 291.46 229.11 287.63
  C 224.29 285.36 217.91 285.87 214.20 290.35
  A 0.30 0.29 -23.7 0 1 213.68 290.15
  L 213.76 288.00
  Q 213.79 287.21 213.00 287.22
  L 206.18 287.23
  Q 205.34 287.23 205.34 288.07
  L 205.33 328.95
  Q 205.33 329.32 205.70 329.32
  L 213.79 329.33
  A 0.37 0.36 -89.2 0 0 214.16 328.96
  L 214.14 315.74
  Q 214.14 315.01 214.66 315.52
  Z
  M 250.45 291.50
  L 250.52 288.26
  Q 250.54 287.22 249.51 287.22
  L 243.18 287.22
  Q 242.09 287.22 242.08 288.32
  L 242.08 318.16
  Q 242.08 318.50 242.42 318.50
  L 250.69 318.49
  Q 250.95 318.49 250.95 318.23
  Q 250.76 306.80 250.98 303.00
  Q 251.54 293.48 262.10 294.73
  Q 262.37 294.76 262.37 294.48
  L 262.32 286.79
  Q 262.31 286.56 262.08 286.53
  C 256.85 285.80 254.09 287.98 250.86 291.66
  Q 250.43 292.15 250.45 291.50
  Z
  M 701.1130 301.1180
  A 14.59 14.59 0.0 0 0 686.5485 286.5025
  L 683.6885 286.4975
  A 14.59 14.59 0.0 0 0 669.0730 301.0620
  L 669.0670 304.5220
  A 14.59 14.59 0.0 0 0 683.6315 319.1375
  L 686.4915 319.1425
  A 14.59 14.59 0.0 0 0 701.1070 304.5780
  L 701.1130 301.1180
  Z
  M 715.03 290.22
  L 715.02 288.00
  Q 715.02 287.22 714.25 287.22
  L 707.51 287.22
  Q 706.74 287.22 706.74 287.99
  L 706.74 318.24
  A 0.26 0.26 0.0 0 0 707.00 318.50
  L 715.24 318.50
  A 0.28 0.28 0.0 0 0 715.52 318.22
  Q 715.48 309.51 715.45 300.26
  C 715.43 292.62 725.82 290.24 726.07 298.50
  Q 726.30 305.80 726.14 318.09
  A 0.40 0.39 0.7 0 0 726.54 318.49
  L 734.53 318.50
  A 0.48 0.47 -0.6 0 0 735.01 318.02
  Q 734.93 308.96 735.13 299.26
  Q 735.23 294.54 738.97 293.53
  C 744.12 292.15 745.48 296.02 745.52 300.32
  Q 745.61 309.34 745.55 318.01
  Q 745.55 318.50 746.03 318.50
  L 753.95 318.50
  Q 754.40 318.50 754.40 318.05
  Q 754.46 308.04 754.49 297.44
  C 754.52 285.51 740.49 282.76 733.89 290.87
  A 0.20 0.20 0.0 0 1 733.57 290.86
  C 728.95 284.59 720.49 285.12 715.60 290.44
  Q 715.03 291.07 715.03 290.22
  Z
  M 274.39 287.55
  A 0.33 0.33 0.0 0 0 274.06 287.22
  L 265.88 287.22
  A 0.33 0.33 0.0 0 0 265.55 287.55
  L 265.55 318.17
  A 0.33 0.33 0.0 0 0 265.88 318.50
  L 274.06 318.50
  A 0.33 0.33 0.0 0 0 274.39 318.17
  L 274.39 287.55
  Z
  M 501.14 287.56
  A 0.34 0.34 0.0 0 0 500.80 287.22
  L 492.66 287.22
  A 0.34 0.34 0.0 0 0 492.32 287.56
  L 492.32 318.16
  A 0.34 0.34 0.0 0 0 492.66 318.50
  L 500.80 318.50
  A 0.34 0.34 0.0 0 0 501.14 318.16
  L 501.14 287.56
  Z
  M 836.27 315.03
  L 836.22 317.73
  Q 836.20 318.50 836.98 318.50
  L 843.76 318.50
  Q 844.58 318.50 844.58 317.68
  L 844.59 287.52
  Q 844.59 287.22 844.29 287.22
  L 836.03 287.23
  Q 835.77 287.23 835.77 287.49
  Q 835.84 296.22 835.58 305.50
  C 835.46 309.80 832.81 313.19 828.42 312.28
  C 824.46 311.45 824.07 308.22 824.04 304.74
  Q 823.97 295.87 824.02 287.50
  A 0.28 0.27 1.0 0 0 823.74 287.22
  L 815.53 287.23
  Q 815.29 287.23 815.28 287.47
  Q 815.03 303.77 815.37 309.37
  C 816.06 320.79 829.67 322.24 835.90 314.89
  Q 836.28 314.44 836.27 315.03
  Z
  M 895.39 287.58
  A 0.36 0.36 0.0 0 0 895.03 287.22
  L 886.91 287.22
  A 0.36 0.36 0.0 0 0 886.55 287.58
  L 886.55 318.14
  A 0.36 0.36 0.0 0 0 886.91 318.50
  L 895.03 318.50
  A 0.36 0.36 0.0 0 0 895.39 318.14
  L 895.39 287.58
  Z
  M 935.23 306.75
  L 928.86 287.43
  A 0.32 0.32 0.0 0 0 928.55 287.20
  L 919.61 287.25
  A 0.18 0.17 79.5 0 0 919.45 287.49
  Q 924.64 301.46 930.01 315.50
  C 932.16 321.12 928.15 322.97 923.17 321.76
  Q 922.39 321.57 922.39 322.36
  L 922.37 328.30
  Q 922.37 329.14 923.21 329.19
  C 929.35 329.52 935.34 330.08 938.02 323.17
  Q 944.90 305.36 951.49 287.50
  A 0.20 0.20 0.0 0 0 951.30 287.23
  L 942.73 287.23
  Q 942.39 287.23 942.29 287.55
  L 936.18 306.74
  Q 935.71 308.21 935.23 306.75
  Z"
/>
<path fill="#ee1c1b" d="
  M 382.92 282.29
  Q 378.02 280.88 374.52 283.70
  Q 372.54 285.30 373.30 287.52
  C 374.11 289.84 377.03 290.73 379.24 291.27
  C 387.92 293.36 399.84 295.05 398.65 306.90
  C 398.06 312.77 394.29 316.86 388.68 318.40
  C 377.61 321.42 362.86 318.52 362.43 304.28
  Q 362.42 303.99 362.71 303.99
  L 371.68 304.01
  Q 371.90 304.01 371.90 304.22
  C 371.87 312.07 381.48 313.19 386.74 310.69
  C 391.60 308.37 388.91 303.03 384.77 301.96
  Q 375.83 299.66 371.77 298.21
  C 365.30 295.90 362.05 289.14 364.72 282.84
  C 370.17 270.04 395.45 271.59 397.32 286.72
  Q 397.53 288.46 395.78 288.46
  L 389.26 288.46
  Q 387.47 288.45 387.54 286.67
  C 387.62 284.54 384.90 282.86 382.92 282.29
  Z"
/>
<path fill="#ee1c1b" d="
  M 643.73 282.69
  C 630.37 284.53 630.69 311.45 645.53 311.24
  C 651.26 311.16 654.28 307.53 655.07 302.08
  Q 655.12 301.73 655.47 301.73
  L 664.29 301.74
  A 0.26 0.25 -86.9 0 1 664.54 302.03
  Q 662.84 317.03 649.03 319.22
  C 622.15 323.48 615.31 284.43 637.91 275.64
  C 648.55 271.50 662.62 276.66 664.01 289.52
  Q 664.07 290.03 663.55 290.03
  L 655.29 290.03
  Q 654.87 290.03 654.74 289.63
  Q 652.00 281.55 643.73 282.69
  Z"
/>
<path fill="#ee1c1b" d="
  M 62.72 283.87
  L 62.72 292.17
  A 0.32 0.32 0.0 0 0 63.04 292.49
  L 83.16 292.49
  A 0.32 0.32 0.0 0 1 83.48 292.81
  L 83.49 299.73
  A 0.32 0.32 0.0 0 1 83.17 300.05
  L 63.04 300.05
  A 0.32 0.32 0.0 0 0 62.72 300.37
  L 62.72 309.95
  A 0.32 0.32 0.0 0 0 63.04 310.27
  L 85.43 310.27
  A 0.32 0.32 0.0 0 1 85.75 310.59
  L 85.78 318.18
  A 0.32 0.32 0.0 0 1 85.46 318.50
  L 53.32 318.50
  A 0.32 0.32 0.0 0 1 53.00 318.18
  L 53.00 275.69
  A 0.32 0.32 0.0 0 1 53.32 275.37
  L 84.96 275.38
  A 0.32 0.32 0.0 0 1 85.28 275.70
  L 85.30 283.23
  A 0.32 0.32 0.0 0 1 84.98 283.55
  L 63.04 283.55
  A 0.32 0.32 0.0 0 0 62.72 283.87
  Z"
/>
<rect fill="#ee1c1b" x="-4.42" y="-3.66" transform="translate(269.98,279.03) rotate(0.1)" width="8.84" height="7.32" rx="0.40"/>
<rect fill="#ee1c1b" x="492.33" y="275.37" width="8.82" height="7.32" rx="0.42"/>
<rect fill="#ee1c1b" x="-4.42" y="-3.66" transform="translate(890.97,279.03) rotate(0.1)" width="8.84" height="7.32" rx="0.40"/>
<path fill="#ee1c1b" d="
  M 128.75 286.74
  L 128.76 278.19
  Q 128.76 277.90 129.06 277.90
  L 137.22 277.90
  A 0.32 0.32 0.0 0 1 137.54 278.22
  L 137.53 286.51
  Q 137.53 287.23 138.26 287.23
  L 142.99 287.21
  Q 143.77 287.20 143.77 287.98
  L 143.77 292.09
  Q 143.77 293.19 142.66 293.19
  L 138.03 293.18
  Q 137.58 293.18 137.58 293.63
  Q 137.48 300.98 137.41 308.25
  C 137.37 312.00 140.21 312.11 143.19 311.71
  Q 143.76 311.63 143.76 312.20
  L 143.77 318.03
  A 0.60 0.60 0.0 0 1 143.22 318.63
  C 135.77 319.22 128.83 319.70 128.78 310.07
  Q 128.73 301.87 128.76 293.68
  A 0.51 0.51 0.0 0 0 128.25 293.17
  L 124.75 293.20
  Q 123.54 293.21 123.55 292.00
  L 123.58 288.19
  Q 123.59 287.22 124.56 287.23
  L 128.26 287.23
  Q 128.75 287.23 128.75 286.74
  Z"
/>
<path fill="#ee1c1b" d="
  M 903.54 293.19
  L 899.84 293.19
  Q 898.98 293.19 898.99 292.34
  L 899.00 288.11
  Q 899.00 287.21 899.90 287.21
  L 903.46 287.24
  Q 904.14 287.24 904.14 286.56
  L 904.14 278.30
  A 0.38 0.38 0.0 0 1 904.52 277.92
  L 912.56 277.88
  A 0.36 0.36 0.0 0 1 912.92 278.24
  L 912.97 286.72
  Q 912.97 287.22 913.48 287.22
  L 918.81 287.22
  Q 919.14 287.22 919.14 287.55
  L 919.19 292.96
  A 0.24 0.24 0.0 0 1 918.95 293.20
  L 913.51 293.18
  Q 912.94 293.18 912.94 293.75
  L 912.98 309.68
  A 2.05 2.05 0.0 0 0 915.00 311.73
  L 918.23 311.78
  Q 919.16 311.79 919.17 312.73
  L 919.21 317.48
  Q 919.22 318.56 918.14 318.66
  C 912.20 319.23 903.82 319.15 903.96 311.25
  Q 904.13 302.55 904.18 293.84
  A 0.65 0.65 0.0 0 0 903.54 293.19
  Z"
/>
<path fill="#ee1c1b" d="
  M 99.74 290.66
  Q 103.58 286.31 109.49 286.33
  C 118.70 286.37 120.15 292.22 120.28 300.37
  Q 120.42 309.43 120.30 318.18
  Q 120.29 318.50 119.97 318.50
  L 111.80 318.50
  Q 111.50 318.50 111.50 318.19
  Q 111.65 303.22 111.44 298.54
  C 111.18 292.70 103.81 291.68 101.05 295.78
  Q 99.82 297.61 99.80 301.50
  Q 99.75 310.14 99.77 318.22
  A 0.28 0.28 0.0 0 1 99.49 318.50
  L 91.25 318.50
  A 0.26 0.25 0.0 0 1 90.99 318.25
  L 91.00 287.98
  Q 91.00 287.21 91.77 287.22
  L 98.54 287.23
  Q 99.34 287.23 99.33 288.04
  L 99.27 290.48
  Q 99.26 291.20 99.74 290.66
  Z"
/>
<path fill="#ee1c1b" d="
  M 288.94 294.54
  C 288.84 301.84 310.87 295.98 308.16 310.67
  C 305.90 322.87 279.94 322.57 279.52 308.63
  Q 279.51 308.14 280.00 308.14
  L 286.83 308.16
  Q 287.34 308.16 287.53 308.63
  Q 290.13 315.16 297.39 312.61
  C 299.85 311.75 300.34 308.02 297.67 307.06
  C 292.91 305.35 286.82 304.87 282.72 302.06
  C 278.45 299.14 279.91 292.17 282.91 289.48
  C 287.09 285.73 296.03 285.63 301.21 287.55
  Q 306.91 289.67 307.50 296.24
  A 0.25 0.24 -3.1 0 1 307.25 296.51
  L 299.46 296.51
  Q 299.11 296.51 299.05 296.17
  C 298.33 292.00 292.30 291.26 289.40 293.59
  A 1.26 1.26 0.0 0 0 288.94 294.54
  Z"
/>
<path fill="#ee1c1b" d="
  M 320.54 305.71
  C 320.62 313.71 330.17 314.59 334.40 309.01
  Q 334.72 308.59 335.25 308.60
  L 341.92 308.61
  A 0.24 0.24 0.0 0 1 342.15 308.92
  C 339.70 317.66 330.98 320.96 322.78 318.67
  C 305.76 313.91 308.72 286.73 327.25 286.33
  C 337.82 286.10 343.52 295.15 342.70 304.63
  A 0.43 0.43 0.0 0 1 342.27 305.02
  L 321.22 305.03
  Q 320.53 305.03 320.54 305.71
  Z
  M 320.74 299.40
  L 333.58 299.38
  A 0.19 0.19 0.0 0 0 333.77 299.19
  L 333.76 299.08
  A 6.50 6.02 -0.1 0 0 327.25 293.07
  L 327.03 293.07
  A 6.50 6.02 -0.1 0 0 320.55 299.10
  L 320.55 299.21
  A 0.19 0.19 0.0 0 0 320.74 299.40
  Z"
/>
<path fill="#ee1c1b" d="
  M 410.65 305.59
  C 410.28 313.63 420.13 314.66 424.34 308.94
  Q 424.60 308.59 425.03 308.59
  L 431.72 308.61
  Q 432.22 308.61 432.07 309.09
  Q 428.76 319.44 418.25 319.27
  Q 402.52 319.02 401.62 303.50
  Q 401.25 297.05 405.42 291.70
  C 410.87 284.71 424.42 284.45 429.47 292.03
  Q 433.29 297.77 432.70 304.63
  A 0.44 0.43 -87.1 0 1 432.27 305.03
  L 411.24 305.02
  Q 410.67 305.02 410.65 305.59
  Z
  M 410.74 299.41
  L 423.60 299.39
  A 0.19 0.19 0.0 0 0 423.79 299.20
  L 423.79 299.11
  A 6.52 6.06 -0.1 0 0 417.25 293.06
  L 417.05 293.06
  A 6.52 6.06 -0.1 0 0 410.55 299.13
  L 410.55 299.22
  A 0.19 0.19 0.0 0 0 410.74 299.41
  Z"
/>
<path fill="#ee1c1b" d="
  M 473.36 306.99
  Q 473.72 308.14 474.07 306.99
  L 480.06 287.52
  Q 480.16 287.21 480.48 287.21
  L 488.69 287.24
  A 0.21 0.21 0.0 0 1 488.89 287.52
  L 478.57 318.07
  Q 478.42 318.50 477.96 318.50
  L 469.08 318.50
  A 0.61 0.60 -9.5 0 1 468.51 318.10
  L 458.35 288.40
  Q 457.74 286.62 457.78 288.50
  L 457.89 294.29
  Q 457.90 294.76 457.43 294.77
  C 456.66 294.80 455.80 294.55 455.18 294.56
  Q 446.92 294.57 446.48 302.75
  Q 446.29 306.45 446.44 318.05
  Q 446.45 318.50 446.00 318.50
  L 438.04 318.50
  Q 437.58 318.50 437.58 318.04
  L 437.58 288.32
  Q 437.58 287.22 438.68 287.22
  L 444.97 287.22
  Q 445.97 287.22 445.99 288.22
  L 446.03 291.46
  Q 446.05 292.32 446.52 291.61
  Q 449.84 286.62 455.89 286.30
  Q 457.04 286.24 457.80 286.89
  Q 458.20 287.23 458.73 287.23
  L 466.73 287.22
  A 0.74 0.73 81.4 0 1 467.43 287.74
  L 473.36 306.99
  Z"
/>
<path fill="#ee1c1b" d="
  M 520.06 293.58
  C 513.37 296.13 513.55 313.43 523.28 312.58
  Q 527.63 312.21 528.98 306.57
  Q 529.04 306.31 529.31 306.31
  L 537.23 306.32
  A 0.26 0.26 0.0 0 1 537.49 306.62
  C 535.76 318.75 522.55 322.64 513.28 316.73
  C 505.90 312.02 505.08 300.81 508.93 293.74
  C 514.87 282.81 536.22 283.80 537.29 297.94
  A 0.42 0.41 -2.5 0 1 536.87 298.39
  L 529.23 298.41
  A 0.68 0.67 -8.0 0 1 528.58 297.93
  Q 526.52 291.12 520.06 293.58
  Z"
/>
<path fill="#ee1c1b" d="
  M 549.54 305.71
  C 549.62 313.70 559.17 314.59 563.40 309.02
  Q 563.72 308.59 564.26 308.59
  L 570.92 308.60
  A 0.27 0.27 0.0 0 1 571.18 308.95
  Q 568.59 317.50 560.00 318.97
  C 535.61 323.16 534.04 286.82 556.25 286.33
  C 566.81 286.09 572.52 295.15 571.70 304.64
  A 0.43 0.43 0.0 0 1 571.27 305.03
  L 550.22 305.02
  Q 549.53 305.02 549.54 305.71
  Z
  M 549.77 299.39
  L 562.55 299.37
  A 0.16 0.16 0.0 0 0 562.71 299.21
  L 562.71 299.11
  A 6.39 6.04 -0.1 0 0 556.30 293.08
  L 555.98 293.08
  A 6.39 6.04 -0.1 0 0 549.61 299.13
  L 549.61 299.23
  A 0.16 0.16 0.0 0 0 549.77 299.39
  Z"
/>
<path fill="#ee1c1b" d="
  M 594.73 308.28
  C 592.84 305.89 584.98 304.73 581.95 303.91
  Q 575.21 302.07 575.73 295.28
  C 576.48 285.42 590.32 285.20 596.75 287.53
  Q 602.51 289.62 603.16 296.28
  Q 603.18 296.50 602.96 296.50
  L 594.98 296.52
  A 0.30 0.29 -3.2 0 1 594.68 296.26
  C 594.07 292.01 588.11 291.38 585.29 293.39
  A 1.96 1.96 0.0 0 0 584.76 296.02
  C 586.31 298.51 594.58 299.65 597.48 300.45
  Q 603.44 302.10 604.03 308.21
  C 605.39 322.27 575.75 323.98 575.02 308.44
  Q 575.00 308.13 575.32 308.13
  L 582.99 308.15
  Q 583.27 308.15 583.32 308.42
  C 584.31 313.48 591.56 315.23 594.75 311.07
  A 2.29 2.27 -45.6 0 0 594.73 308.28
  Z"
/>
<path fill="#ee1c1b" d="
  M 769.36 290.04
  A 0.47 0.47 0.0 0 0 770.20 290.35
  C 774.45 284.71 783.53 285.21 787.74 290.52
  Q 788.05 290.91 788.40 290.56
  Q 794.46 284.45 802.25 287.12
  C 806.06 288.42 808.54 291.61 808.68 295.55
  Q 808.88 301.45 808.73 318.23
  Q 808.73 318.50 808.46 318.50
  L 800.27 318.50
  Q 799.98 318.50 799.98 318.21
  Q 800.01 309.37 800.06 300.00
  C 800.08 297.13 799.21 293.88 796.01 293.45
  C 789.89 292.62 789.23 298.13 789.25 303.00
  Q 789.29 310.85 789.32 317.96
  Q 789.32 318.50 788.78 318.50
  L 781.00 318.50
  Q 780.48 318.50 780.48 317.98
  Q 780.59 305.44 780.43 298.05
  C 780.30 292.18 772.95 292.09 770.74 296.44
  Q 769.99 297.91 769.94 301.22
  Q 769.82 309.87 769.93 318.05
  Q 769.94 318.50 769.49 318.50
  L 761.53 318.50
  Q 761.06 318.50 761.06 318.03
  L 761.06 287.95
  Q 761.06 287.22 761.80 287.22
  L 768.74 287.22
  Q 769.51 287.22 769.47 287.99
  L 769.36 290.04
  Z"
/>
<path fill="#ee1c1b" d="
  M 859.64 290.65
  Q 864.60 285.16 872.15 286.52
  C 878.54 287.66 880.24 293.20 880.25 299.00
  Q 880.25 308.87 880.24 318.23
  Q 880.24 318.49 879.97 318.50
  L 871.76 318.50
  Q 871.46 318.50 871.45 318.20
  Q 871.45 310.12 871.49 301.50
  C 871.50 298.13 871.08 293.72 866.69 293.45
  Q 860.13 293.05 859.74 300.26
  Q 859.52 304.36 859.69 318.05
  Q 859.69 318.50 859.24 318.50
  L 851.30 318.50
  Q 850.84 318.50 850.84 318.05
  L 850.86 288.05
  Q 850.86 287.22 851.70 287.22
  L 858.49 287.22
  Q 859.25 287.22 859.24 287.99
  L 859.20 290.48
  Q 859.19 291.15 859.64 290.65
  Z"
/>
<path fill="#ee1c1b" d="
  M 155.15 305.39
  C 154.76 313.58 164.67 314.81 168.81 308.94
  Q 169.07 308.57 169.53 308.57
  L 176.13 308.62
  Q 176.63 308.63 176.50 309.11
  C 174.49 316.70 167.54 320.03 160.31 319.25
  C 140.28 317.09 141.88 286.74 161.74 286.33
  C 172.16 286.11 178.03 294.91 177.15 304.63
  Q 177.11 305.03 176.71 305.03
  L 155.54 305.02
  Q 155.17 305.02 155.15 305.39
  Z
  M 155.24 299.40
  L 168.04 299.42
  A 0.19 0.19 0.0 0 0 168.23 299.23
  L 168.23 299.14
  A 6.41 6.06 0.1 0 0 161.84 293.07
  L 161.48 293.07
  A 6.41 6.06 0.1 0 0 155.05 299.12
  L 155.05 299.21
  A 0.19 0.19 0.0 0 0 155.24 299.40
  Z"
/>
<path fill="#ee1c1b" d="
  M 190.86 291.66
  C 194.07 287.98 196.88 285.79 202.09 286.53
  Q 202.32 286.57 202.32 286.80
  L 202.37 294.57
  Q 202.37 294.81 202.14 294.78
  Q 191.62 293.30 190.99 302.50
  Q 190.75 306.03 190.95 318.23
  Q 190.95 318.49 190.69 318.49
  L 182.41 318.50
  Q 182.08 318.50 182.08 318.16
  L 182.08 288.32
  Q 182.08 287.22 183.18 287.22
  L 189.51 287.22
  Q 190.54 287.22 190.52 288.26
  L 190.45 291.49
  Q 190.43 292.15 190.86 291.66
  Z"
/>
<path fill="#ee1c1b" d="
  M 214.14 315.74
  L 214.16 328.96
  A 0.37 0.36 -89.2 0 1 213.79 329.33
  L 205.70 329.32
  Q 205.33 329.32 205.33 328.95
  L 205.34 288.07
  Q 205.34 287.23 206.18 287.23
  L 213.00 287.22
  Q 213.79 287.21 213.76 288.00
  L 213.68 290.15
  A 0.30 0.29 -23.7 0 0 214.20 290.35
  C 217.91 285.87 224.29 285.36 229.11 287.63
  C 237.24 291.46 238.59 302.90 235.93 310.47
  C 232.81 319.36 221.58 322.40 214.66 315.52
  Q 214.14 315.01 214.14 315.74
  Z
  M 221.2486 312.7990
  A 9.93 7.36 89.2 0 0 228.4693 302.7672
  A 9.93 7.36 89.2 0 0 220.9714 292.9410
  A 9.93 7.36 89.2 0 0 213.7507 302.9728
  A 9.93 7.36 89.2 0 0 221.2486 312.7990
  Z"
/>
<path fill="#ee1c1b" d="
  M 250.86 291.66
  C 254.09 287.98 256.85 285.80 262.08 286.53
  Q 262.31 286.56 262.32 286.79
  L 262.37 294.48
  Q 262.37 294.76 262.10 294.73
  Q 251.54 293.48 250.98 303.00
  Q 250.76 306.80 250.95 318.23
  Q 250.95 318.49 250.69 318.49
  L 242.42 318.50
  Q 242.08 318.50 242.08 318.16
  L 242.08 288.32
  Q 242.09 287.22 243.18 287.22
  L 249.51 287.22
  Q 250.54 287.22 250.52 288.26
  L 250.45 291.50
  Q 250.43 292.15 250.86 291.66
  Z"
/>
<path fill="#ee1c1b" d="
  M 701.1070 304.5780
  A 14.59 14.59 0.0 0 1 686.4915 319.1425
  L 683.6315 319.1375
  A 14.59 14.59 0.0 0 1 669.0670 304.5220
  L 669.0730 301.0620
  A 14.59 14.59 0.0 0 1 683.6885 286.4975
  L 686.5485 286.5025
  A 14.59 14.59 0.0 0 1 701.1130 301.1180
  L 701.1070 304.5780
  Z
  M 685.0800 312.8000
  A 9.95 7.50 90.0 0 0 692.5800 302.8500
  A 9.95 7.50 90.0 0 0 685.0800 292.9000
  A 9.95 7.50 90.0 0 0 677.5800 302.8500
  A 9.95 7.50 90.0 0 0 685.0800 312.8000
  Z"
/>
<path fill="#ee1c1b" d="
  M 715.60 290.44
  C 720.49 285.12 728.95 284.59 733.57 290.86
  A 0.20 0.20 0.0 0 0 733.89 290.87
  C 740.49 282.76 754.52 285.51 754.49 297.44
  Q 754.46 308.04 754.40 318.05
  Q 754.40 318.50 753.95 318.50
  L 746.03 318.50
  Q 745.55 318.50 745.55 318.01
  Q 745.61 309.34 745.52 300.32
  C 745.48 296.02 744.12 292.15 738.97 293.53
  Q 735.23 294.54 735.13 299.26
  Q 734.93 308.96 735.01 318.02
  A 0.48 0.47 -0.6 0 1 734.53 318.50
  L 726.54 318.49
  A 0.40 0.39 0.7 0 1 726.14 318.09
  Q 726.30 305.80 726.07 298.50
  C 725.82 290.24 715.43 292.62 715.45 300.26
  Q 715.48 309.51 715.52 318.22
  A 0.28 0.28 0.0 0 1 715.24 318.50
  L 707.00 318.50
  A 0.26 0.26 0.0 0 1 706.74 318.24
  L 706.74 287.99
  Q 706.74 287.22 707.51 287.22
  L 714.25 287.22
  Q 715.02 287.22 715.02 288.00
  L 715.03 290.22
  Q 715.03 291.07 715.60 290.44
  Z"
/>
<rect fill="#ee1c1b" x="265.55" y="287.22" width="8.84" height="31.28" rx="0.33"/>
<rect fill="#ee1c1b" x="492.32" y="287.22" width="8.82" height="31.28" rx="0.34"/>
<path fill="#ee1c1b" d="
  M 835.90 314.89
  C 829.67 322.24 816.06 320.79 815.37 309.37
  Q 815.03 303.77 815.28 287.47
  Q 815.29 287.23 815.53 287.23
  L 823.74 287.22
  A 0.28 0.27 1.0 0 1 824.02 287.50
  Q 823.97 295.87 824.04 304.74
  C 824.07 308.22 824.46 311.45 828.42 312.28
  C 832.81 313.19 835.46 309.80 835.58 305.50
  Q 835.84 296.22 835.77 287.49
  Q 835.77 287.23 836.03 287.23
  L 844.29 287.22
  Q 844.59 287.22 844.59 287.52
  L 844.58 317.68
  Q 844.58 318.50 843.76 318.50
  L 836.98 318.50
  Q 836.20 318.50 836.22 317.73
  L 836.27 315.03
  Q 836.28 314.44 835.90 314.89
  Z"
/>
<rect fill="#ee1c1b" x="886.55" y="287.22" width="8.84" height="31.28" rx="0.36"/>
<path fill="#ee1c1b" d="
  M 935.23 306.75
  Q 935.71 308.21 936.18 306.74
  L 942.29 287.55
  Q 942.39 287.23 942.73 287.23
  L 951.30 287.23
  A 0.20 0.20 0.0 0 1 951.49 287.50
  Q 944.90 305.36 938.02 323.17
  C 935.34 330.08 929.35 329.52 923.21 329.19
  Q 922.37 329.14 922.37 328.30
  L 922.39 322.36
  Q 922.39 321.57 923.17 321.76
  C 928.15 322.97 932.16 321.12 930.01 315.50
  Q 924.64 301.46 919.45 287.49
  A 0.18 0.17 79.5 0 1 919.61 287.25
  L 928.55 287.20
  A 0.32 0.32 0.0 0 1 928.86 287.43
  L 935.23 306.75
  Z"
/>
<path fill="#ffffff" d="
  M 155.24 299.40
  A 0.19 0.19 0.0 0 1 155.05 299.21
  L 155.05 299.12
  A 6.41 6.06 0.1 0 1 161.48 293.07
  L 161.84 293.07
  A 6.41 6.06 0.1 0 1 168.23 299.14
  L 168.23 299.23
  A 0.19 0.19 0.0 0 1 168.04 299.42
  L 155.24 299.40
  Z"
/>
<ellipse fill="#ffffff" cx="0.00" cy="0.00" transform="translate(221.11,302.87) rotate(89.2)" rx="9.93" ry="7.36"/>
<path fill="#ffffff" d="
  M 320.74 299.40
  A 0.19 0.19 0.0 0 1 320.55 299.21
  L 320.55 299.10
  A 6.50 6.02 -0.1 0 1 327.03 293.07
  L 327.25 293.07
  A 6.50 6.02 -0.1 0 1 333.76 299.08
  L 333.77 299.19
  A 0.19 0.19 0.0 0 1 333.58 299.38
  L 320.74 299.40
  Z"
/>
<path fill="#ffffff" d="
  M 410.74 299.41
  A 0.19 0.19 0.0 0 1 410.55 299.22
  L 410.55 299.13
  A 6.52 6.06 -0.1 0 1 417.05 293.06
  L 417.25 293.06
  A 6.52 6.06 -0.1 0 1 423.79 299.11
  L 423.79 299.20
  A 0.19 0.19 0.0 0 1 423.60 299.39
  L 410.74 299.41
  Z"
/>
<path fill="#ffffff" d="
  M 549.77 299.39
  A 0.16 0.16 0.0 0 1 549.61 299.23
  L 549.61 299.13
  A 6.39 6.04 -0.1 0 1 555.98 293.08
  L 556.30 293.08
  A 6.39 6.04 -0.1 0 1 562.71 299.11
  L 562.71 299.21
  A 0.16 0.16 0.0 0 1 562.55 299.37
  L 549.77 299.39
  Z"
/>
<ellipse fill="#ffffff" cx="0.00" cy="0.00" transform="translate(685.08,302.85) rotate(90.0)" rx="9.95" ry="7.50"/>
</svg>
