<svg width="594" height="155" viewBox="0 0 594 155" fill="none" xmlns="http://www.w3.org/2000/svg">
<rect width="594" height="155" fill="white"/>
<path d="M184.568 36.456H189.432C197.432 45.16 206.648 51.944 217.144 56.936L213.496 63.464C203.128 58.088 194.296 51.112 187 42.472C180.28 50.536 171.384 57.576 160.248 63.528L156.664 57C167.864 51.496 177.144 44.648 184.568 36.456ZM185.464 53.8H192.184V67.176H208.888V73.64H192.184V86.952H213.56V93.48H159.672V86.952H168.76V63.016H175.352V86.952H185.464V53.8ZM240.696 36.84H247.416V86.952H254.456V36.84H261.176V86.952H279.608V93.48H222.392V86.952H240.696V36.84ZM272.504 48.936L278.392 50.6C275.96 61.544 272.888 71.144 269.176 79.336L263.16 77.224C266.744 69.8 269.816 60.328 272.504 48.936ZM229.24 48.744C232.44 57.256 235.32 67.048 237.816 78.056L231.736 79.528C229.56 69.544 226.872 59.944 223.544 50.664L229.24 48.744ZM295.544 59.496V68.328H303.928V59.496H295.544ZM303.928 53.544V44.584H295.544V53.544H303.928ZM295.416 74.344C294.904 82.984 293.368 90.152 290.744 95.848L285.688 91.24C288.248 85.736 289.528 78.76 289.592 70.312V38.568H310.008V88.68C310.008 93.16 307.96 95.464 303.864 95.464H298.744L297.144 89.64C298.872 89.768 300.472 89.896 302.008 89.896C303.288 89.896 303.928 88.744 303.928 86.504V74.344H295.416ZM320.184 68.008V90.152C323.256 88.36 325.88 86.248 328.12 83.752C324.536 79.08 322.04 73.832 320.696 68.008H320.184ZM320.184 90.664V95.72H313.912V38.568H341.304C341.304 47.016 340.856 52.712 340.088 55.528C339.32 58.216 336.824 59.624 332.728 59.624H327.352L325.56 53.928C326.584 53.928 327.992 53.992 329.72 53.992C331.064 53.992 332.024 53.864 332.6 53.736C333.24 53.544 333.688 53.032 334.072 52.136C334.392 51.112 334.648 48.616 334.776 44.584H320.184V62.12H341.752V67.688C340.664 73.768 338.808 79.016 336.248 83.368C338.808 85.8 341.688 87.976 344.952 89.896L341.688 95.592C338.104 93.416 335.032 91.112 332.472 88.616C329.912 91.432 326.84 93.8 323.384 95.656L320.184 90.664ZM326.392 68.008C327.608 71.848 329.4 75.368 331.832 78.504C333.56 75.432 334.904 71.912 335.864 68.008H326.392ZM367.864 36.136L374.648 37.16C374.008 38.632 373.368 40.04 372.664 41.32H399.864V46.696C396.088 51.048 391.608 54.76 386.36 57.832C393.08 60.264 400.568 61.864 408.76 62.632L405.752 68.84C395.832 67.688 386.936 65.32 379 61.608C371.384 65 362.552 67.496 352.44 69.032L349.368 62.76C357.688 61.736 365.112 60.008 371.64 57.704C368.824 55.976 366.2 54.12 363.768 52.136C361.656 53.864 359.352 55.464 356.92 57L352.888 51.688C360.312 47.464 365.304 42.28 367.864 36.136ZM378.936 54.632C383.032 52.584 386.68 50.28 389.944 47.592H368.312L368.184 47.72C371.512 50.408 375.096 52.712 378.936 54.632ZM374.072 65.256H380.664C380.664 67.432 380.472 69.544 380.216 71.464H402.104C401.976 82.856 401.016 89.64 399.224 91.88C397.432 94.12 394.296 95.272 389.816 95.272C387.576 95.272 384.888 95.144 381.688 94.888L380.024 88.872C383.416 89.064 386.168 89.192 388.344 89.256C391.352 89.192 393.208 88.552 393.976 87.336C394.808 86.056 395.32 82.792 395.448 77.48H378.68C378.168 78.952 377.528 80.36 376.76 81.64C373.688 87.336 366.2 92.072 354.296 95.912L349.88 90.472C360.248 87.464 367.032 83.816 370.168 79.528C370.616 78.824 371 78.12 371.384 77.48H353.848V71.464H373.432C373.816 69.48 374.008 67.432 374.072 65.256ZM450.232 36.904H457.016V54.952H470.968V61.48H457.016V87.016H472.44V93.544H434.424V87.016H450.232V61.48H436.728V54.952H450.232V36.904ZM422.584 71.208C420.408 73.256 418.04 75.368 415.544 77.48L413.432 70.44C421.624 63.784 427.192 57.256 430.136 50.92H414.968V44.52H423.608C422.712 42.216 421.752 40.04 420.728 37.928L427.064 36.2C428.28 39.144 429.24 41.96 430.008 44.52H436.92V50.152C435.32 54.632 432.824 59.048 429.496 63.464C433.016 65.384 436.344 67.688 439.416 70.312L435.64 76.136C433.464 73.896 431.352 71.976 429.176 70.312V95.592H422.584V71.208ZM497.208 48.936C502.776 53.16 507.96 57.384 512.696 61.544C515.896 57.256 518.712 52.392 521.08 46.952L527.16 50.152C524.472 56.232 521.4 61.608 517.88 66.216C522.36 70.376 526.52 74.472 530.296 78.568L525.112 83.816C521.784 79.72 517.88 75.624 513.464 71.464C508.088 77.032 501.944 81.32 495.032 84.264L491.128 78.248C497.656 75.56 503.416 71.656 508.28 66.664C503.48 62.376 498.168 58.024 492.344 53.608L497.208 48.936ZM481.528 38.824H533.112V45.224H487.992V86.76H535.096V93.16H481.528V38.824Z" fill="white"/>
<path d="M156.82 105.436H170.21V108.036H159.862V113.184H169.586V115.784H159.862V121.4H170.652V124H156.82V105.436ZM180.184 110.194C183.538 110.194 185.228 112.014 185.228 115.706V124H182.264V115.966C182.264 113.756 181.25 112.664 179.222 112.664C178.494 112.664 177.844 112.924 177.298 113.444C176.674 114.016 176.31 114.848 176.206 115.914V124H173.242V110.558H176.206V112.118C176.726 111.494 177.324 111 177.974 110.688C178.65 110.35 179.378 110.194 180.184 110.194ZM192.561 106.216V110.558H195.551V113.002H192.561V120.594C192.561 120.906 192.613 121.14 192.769 121.322C192.925 121.478 193.133 121.556 193.445 121.556H195.213V124H192.951C191.781 124 190.923 123.688 190.377 123.064C189.857 122.492 189.597 121.686 189.597 120.594V113.002H187.179V110.558H189.597V107.438L192.561 106.216ZM203.489 110.194C205.699 110.194 207.389 110.922 208.559 112.43C209.625 113.782 210.171 115.68 210.171 118.098H200.109C200.213 119.346 200.551 120.308 201.123 120.958C201.695 121.608 202.527 121.946 203.593 121.946C204.503 121.946 205.231 121.738 205.803 121.322C206.245 120.984 206.635 120.438 206.999 119.684H209.963C209.651 120.932 209.027 121.998 208.091 122.83C206.895 123.844 205.413 124.364 203.619 124.364C201.617 124.364 200.031 123.74 198.861 122.518C197.613 121.244 196.989 119.502 196.989 117.266C196.989 115.264 197.561 113.6 198.757 112.248C199.901 110.87 201.487 110.194 203.489 110.194ZM203.567 112.612C202.579 112.612 201.825 112.872 201.253 113.444C200.707 113.99 200.343 114.796 200.161 115.862H207.077C206.817 113.678 205.647 112.612 203.567 112.612ZM218.865 110.194C219.515 110.194 220.087 110.298 220.555 110.532V113.496C219.879 113.288 219.255 113.21 218.631 113.21C217.851 113.21 217.149 113.496 216.525 114.12C215.797 114.822 215.459 115.732 215.459 116.876V124H212.521V110.558H215.459V112.482C215.823 111.806 216.239 111.286 216.733 110.922C217.331 110.428 218.033 110.194 218.865 110.194ZM229.058 110.194C231.034 110.194 232.594 110.896 233.738 112.3C234.778 113.6 235.298 115.264 235.298 117.344C235.298 119.32 234.778 120.958 233.764 122.258C232.672 123.662 231.138 124.364 229.214 124.364C227.654 124.364 226.302 123.61 225.21 122.154V129.148H222.246V110.558H225.002V111.988C225.938 110.792 227.29 110.194 229.058 110.194ZM228.616 112.586C227.446 112.586 226.562 113.028 225.938 113.964C225.366 114.77 225.106 115.836 225.106 117.188V117.396C225.106 118.8 225.444 119.944 226.146 120.802C226.77 121.582 227.55 121.972 228.512 121.972C229.812 121.972 230.8 121.53 231.424 120.698C231.97 119.918 232.256 118.8 232.256 117.344C232.256 115.888 231.996 114.77 231.502 113.99C230.878 113.054 229.916 112.586 228.616 112.586ZM244.23 110.194C244.88 110.194 245.452 110.298 245.92 110.532V113.496C245.244 113.288 244.62 113.21 243.996 113.21C243.216 113.21 242.514 113.496 241.89 114.12C241.162 114.822 240.824 115.732 240.824 116.876V124H237.886V110.558H240.824V112.482C241.188 111.806 241.604 111.286 242.098 110.922C242.696 110.428 243.398 110.194 244.23 110.194ZM249.613 105.072C250.185 105.072 250.679 105.254 251.069 105.618C251.433 105.982 251.641 106.45 251.641 107.022C251.641 107.594 251.433 108.088 251.043 108.452C250.653 108.816 250.185 108.998 249.613 108.998C249.041 108.998 248.573 108.816 248.183 108.452C247.793 108.062 247.611 107.594 247.611 107.022C247.611 106.45 247.793 105.982 248.183 105.618C248.573 105.254 249.041 105.072 249.613 105.072ZM248.131 110.558H251.095V124H248.131V110.558ZM259.841 110.194C263.377 110.194 265.327 111.598 265.639 114.458H262.753C262.545 113.782 262.233 113.288 261.817 113.028C261.375 112.742 260.699 112.612 259.789 112.612C259.009 112.612 258.411 112.716 258.021 112.95C257.553 113.184 257.345 113.548 257.345 114.068C257.345 114.484 257.683 114.874 258.411 115.186C258.853 115.368 259.737 115.628 261.089 115.966C262.597 116.33 263.741 116.746 264.469 117.24C265.535 117.916 266.081 118.878 266.081 120.074C266.081 122.934 264.053 124.364 260.023 124.364C256.279 124.364 254.277 122.778 253.991 119.632H256.877C257.033 120.49 257.345 121.088 257.787 121.452C258.229 121.764 258.931 121.946 259.919 121.946C261.999 121.946 263.039 121.374 263.039 120.282C263.039 119.658 262.649 119.164 261.869 118.8C261.453 118.592 260.569 118.358 259.217 118.046C257.631 117.682 256.513 117.292 255.863 116.876C254.823 116.226 254.303 115.316 254.303 114.146C254.303 112.898 254.797 111.936 255.837 111.26C256.851 110.532 258.177 110.194 259.841 110.194ZM274.151 110.194C276.361 110.194 278.051 110.922 279.221 112.43C280.287 113.782 280.833 115.68 280.833 118.098H270.771C270.875 119.346 271.213 120.308 271.785 120.958C272.357 121.608 273.189 121.946 274.255 121.946C275.165 121.946 275.893 121.738 276.465 121.322C276.907 120.984 277.297 120.438 277.661 119.684H280.625C280.313 120.932 279.689 121.998 278.753 122.83C277.557 123.844 276.075 124.364 274.281 124.364C272.279 124.364 270.693 123.74 269.523 122.518C268.275 121.244 267.651 119.502 267.651 117.266C267.651 115.264 268.223 113.6 269.419 112.248C270.563 110.87 272.149 110.194 274.151 110.194ZM274.229 112.612C273.241 112.612 272.487 112.872 271.915 113.444C271.369 113.99 271.005 114.796 270.823 115.862H277.739C277.479 113.678 276.309 112.612 274.229 112.612ZM298.653 105.072C300.837 105.072 302.553 105.514 303.775 106.424C305.075 107.386 305.829 108.894 306.011 110.922H302.995C302.735 109.778 302.241 108.946 301.565 108.452C300.889 107.932 299.849 107.698 298.497 107.698C297.327 107.698 296.443 107.854 295.819 108.192C295.039 108.582 294.675 109.232 294.675 110.116C294.675 110.896 295.091 111.546 295.975 112.014C296.365 112.222 297.431 112.612 299.147 113.158C301.669 113.938 303.281 114.562 304.009 114.978C305.621 115.94 306.427 117.266 306.427 118.982C306.427 120.646 305.777 121.972 304.477 122.934C303.177 123.87 301.331 124.364 298.965 124.364C296.677 124.364 294.883 123.922 293.609 123.038C292.049 121.946 291.191 120.23 291.061 117.864H294.077C294.285 119.268 294.779 120.282 295.585 120.88C296.313 121.4 297.431 121.686 298.965 121.686C300.317 121.686 301.409 121.452 302.189 121.01C302.969 120.542 303.385 119.944 303.385 119.164C303.385 118.176 302.787 117.396 301.643 116.824C301.279 116.642 300.083 116.226 298.029 115.602C295.741 114.874 294.311 114.354 293.765 114.042C292.335 113.184 291.633 111.936 291.633 110.298C291.633 108.66 292.309 107.36 293.713 106.424C295.013 105.514 296.651 105.072 298.653 105.072ZM314.497 110.194C316.707 110.194 318.397 110.922 319.567 112.43C320.633 113.782 321.179 115.68 321.179 118.098H311.117C311.221 119.346 311.559 120.308 312.131 120.958C312.703 121.608 313.535 121.946 314.601 121.946C315.511 121.946 316.239 121.738 316.811 121.322C317.253 120.984 317.643 120.438 318.007 119.684H320.971C320.659 120.932 320.035 121.998 319.099 122.83C317.903 123.844 316.421 124.364 314.627 124.364C312.625 124.364 311.039 123.74 309.869 122.518C308.621 121.244 307.997 119.502 307.997 117.266C307.997 115.264 308.569 113.6 309.765 112.248C310.909 110.87 312.495 110.194 314.497 110.194ZM314.575 112.612C313.587 112.612 312.833 112.872 312.261 113.444C311.715 113.99 311.351 114.796 311.169 115.862H318.085C317.825 113.678 316.655 112.612 314.575 112.612ZM329.873 110.194C330.523 110.194 331.095 110.298 331.563 110.532V113.496C330.887 113.288 330.263 113.21 329.639 113.21C328.859 113.21 328.157 113.496 327.533 114.12C326.805 114.822 326.467 115.732 326.467 116.876V124H323.529V110.558H326.467V112.482C326.831 111.806 327.247 111.286 327.741 110.922C328.339 110.428 329.041 110.194 329.873 110.194ZM331.823 110.558H335.047L338.271 120.308L341.495 110.558H344.719L339.753 124H336.789L331.823 110.558ZM348.408 105.072C348.98 105.072 349.474 105.254 349.864 105.618C350.228 105.982 350.436 106.45 350.436 107.022C350.436 107.594 350.228 108.088 349.838 108.452C349.448 108.816 348.98 108.998 348.408 108.998C347.836 108.998 347.368 108.816 346.978 108.452C346.588 108.062 346.406 107.594 346.406 107.022C346.406 106.45 346.588 105.982 346.978 105.618C347.368 105.254 347.836 105.072 348.408 105.072ZM346.926 110.558H349.89V124H346.926V110.558ZM359.598 110.194C361.34 110.194 362.718 110.584 363.758 111.364C364.824 112.196 365.5 113.444 365.76 115.134H362.822C362.64 114.276 362.276 113.652 361.756 113.236C361.21 112.82 360.482 112.612 359.598 112.612C358.506 112.612 357.648 113.002 357.024 113.834C356.4 114.64 356.088 115.784 356.088 117.24C356.088 118.722 356.374 119.892 356.998 120.724C357.57 121.53 358.428 121.946 359.572 121.946C361.548 121.946 362.64 120.958 362.874 119.008H365.812C365.5 120.828 364.798 122.18 363.732 123.064C362.692 123.922 361.288 124.364 359.546 124.364C357.466 124.364 355.854 123.688 354.71 122.336C353.592 121.036 353.046 119.346 353.046 117.266C353.046 115.238 353.592 113.574 354.684 112.3C355.854 110.896 357.492 110.194 359.598 110.194ZM373.86 110.194C376.07 110.194 377.76 110.922 378.93 112.43C379.996 113.782 380.542 115.68 380.542 118.098H370.48C370.584 119.346 370.922 120.308 371.494 120.958C372.066 121.608 372.898 121.946 373.964 121.946C374.874 121.946 375.602 121.738 376.174 121.322C376.616 120.984 377.006 120.438 377.37 119.684H380.334C380.022 120.932 379.398 121.998 378.462 122.83C377.266 123.844 375.784 124.364 373.99 124.364C371.988 124.364 370.402 123.74 369.232 122.518C367.984 121.244 367.36 119.502 367.36 117.266C367.36 115.264 367.932 113.6 369.128 112.248C370.272 110.87 371.858 110.194 373.86 110.194ZM373.938 112.612C372.95 112.612 372.196 112.872 371.624 113.444C371.078 113.99 370.714 114.796 370.532 115.862H377.448C377.188 113.678 376.018 112.612 373.938 112.612ZM387.962 110.194C391.498 110.194 393.448 111.598 393.76 114.458H390.874C390.666 113.782 390.354 113.288 389.938 113.028C389.496 112.742 388.82 112.612 387.91 112.612C387.13 112.612 386.532 112.716 386.142 112.95C385.674 113.184 385.466 113.548 385.466 114.068C385.466 114.484 385.804 114.874 386.532 115.186C386.974 115.368 387.858 115.628 389.21 115.966C390.718 116.33 391.862 116.746 392.59 117.24C393.656 117.916 394.202 118.878 394.202 120.074C394.202 122.934 392.174 124.364 388.144 124.364C384.4 124.364 382.398 122.778 382.112 119.632H384.998C385.154 120.49 385.466 121.088 385.908 121.452C386.35 121.764 387.052 121.946 388.04 121.946C390.12 121.946 391.16 121.374 391.16 120.282C391.16 119.658 390.77 119.164 389.99 118.8C389.574 118.592 388.69 118.358 387.338 118.046C385.752 117.682 384.634 117.292 383.984 116.876C382.944 116.226 382.424 115.316 382.424 114.146C382.424 112.898 382.918 111.936 383.958 111.26C384.972 110.532 386.298 110.194 387.962 110.194ZM413.53 105.072C415.714 105.072 417.534 105.644 418.938 106.788C420.29 107.88 421.096 109.388 421.382 111.26H418.418C418.106 110.038 417.534 109.154 416.676 108.582C415.844 108.01 414.778 107.75 413.478 107.75C411.528 107.75 410.072 108.4 409.084 109.752C408.174 110.948 407.732 112.612 407.732 114.744C407.732 116.928 408.174 118.618 409.058 119.788C410.02 121.036 411.528 121.686 413.556 121.686C414.882 121.686 415.974 121.348 416.806 120.724C417.69 120.022 418.314 118.956 418.678 117.552H421.642C421.226 119.736 420.264 121.426 418.73 122.648C417.3 123.792 415.584 124.364 413.582 124.364C410.488 124.364 408.174 123.376 406.666 121.452C405.34 119.788 404.69 117.552 404.69 114.744C404.69 111.988 405.366 109.726 406.744 108.01C408.304 106.034 410.566 105.072 413.53 105.072ZM430.493 110.194C432.521 110.194 434.159 110.844 435.407 112.196C436.629 113.522 437.253 115.212 437.253 117.292C437.253 119.346 436.629 121.036 435.433 122.336C434.185 123.688 432.521 124.364 430.493 124.364C428.439 124.364 426.801 123.688 425.553 122.336C424.331 121.036 423.733 119.346 423.733 117.292C423.733 115.212 424.331 113.522 425.579 112.196C426.801 110.844 428.439 110.194 430.493 110.194ZM430.493 112.612C429.245 112.612 428.309 113.08 427.633 114.068C427.061 114.9 426.775 115.992 426.775 117.292C426.775 118.592 427.061 119.658 427.633 120.49C428.309 121.452 429.245 121.946 430.493 121.946C431.715 121.946 432.677 121.452 433.353 120.49C433.925 119.632 434.237 118.566 434.237 117.292C434.237 115.992 433.925 114.9 433.353 114.068C432.677 113.08 431.715 112.612 430.493 112.612ZM446.447 110.194C448.423 110.194 449.827 110.922 450.685 112.378C451.309 111.546 451.959 110.974 452.635 110.662C453.233 110.35 453.987 110.194 454.897 110.194C456.275 110.194 457.419 110.636 458.355 111.572C459.239 112.508 459.707 113.704 459.707 115.186V124H456.743V115.706C456.743 114.64 456.509 113.86 456.067 113.392C455.599 112.898 454.871 112.664 453.831 112.664C453.103 112.664 452.505 112.924 452.011 113.496C451.491 114.042 451.257 114.796 451.257 115.784V124H448.293V115.732C448.293 113.678 447.409 112.664 445.641 112.664C444.783 112.664 444.107 112.976 443.587 113.652C443.067 114.276 442.807 115.056 442.807 115.94V124H439.843V110.558H442.807V111.936C443.925 110.766 445.147 110.194 446.447 110.194ZM469.426 110.194C471.402 110.194 472.806 110.922 473.664 112.378C474.288 111.546 474.938 110.974 475.614 110.662C476.212 110.35 476.966 110.194 477.876 110.194C479.254 110.194 480.398 110.636 481.334 111.572C482.218 112.508 482.686 113.704 482.686 115.186V124H479.722V115.706C479.722 114.64 479.488 113.86 479.046 113.392C478.578 112.898 477.85 112.664 476.81 112.664C476.082 112.664 475.484 112.924 474.99 113.496C474.47 114.042 474.236 114.796 474.236 115.784V124H471.272V115.732C471.272 113.678 470.388 112.664 468.62 112.664C467.762 112.664 467.086 112.976 466.566 113.652C466.046 114.276 465.786 115.056 465.786 115.94V124H462.822V110.558H465.786V111.936C466.904 110.766 468.126 110.194 469.426 110.194ZM485.8 110.558H488.764V118.748C488.764 119.84 488.972 120.62 489.44 121.14C489.908 121.634 490.636 121.894 491.676 121.894C492.326 121.894 492.95 121.608 493.548 121.062C494.146 120.49 494.588 119.736 494.848 118.774V110.558H497.812V124H494.848V122.258C493.704 123.662 492.3 124.364 490.636 124.364C487.412 124.364 485.8 122.544 485.8 118.93V110.558ZM507.875 110.194C511.229 110.194 512.919 112.014 512.919 115.706V124H509.955V115.966C509.955 113.756 508.941 112.664 506.913 112.664C506.185 112.664 505.535 112.924 504.989 113.444C504.365 114.016 504.001 114.848 503.897 115.914V124H500.933V110.558H503.897V112.118C504.417 111.494 505.015 111 505.665 110.688C506.341 110.35 507.069 110.194 507.875 110.194ZM518.042 105.072C518.614 105.072 519.108 105.254 519.498 105.618C519.862 105.982 520.07 106.45 520.07 107.022C520.07 107.594 519.862 108.088 519.472 108.452C519.082 108.816 518.614 108.998 518.042 108.998C517.47 108.998 517.002 108.816 516.612 108.452C516.222 108.062 516.04 107.594 516.04 107.022C516.04 106.45 516.222 105.982 516.612 105.618C517.002 105.254 517.47 105.072 518.042 105.072ZM516.56 110.558H519.524V124H516.56V110.558ZM527.413 106.216V110.558H530.403V113.002H527.413V120.594C527.413 120.906 527.465 121.14 527.621 121.322C527.777 121.478 527.985 121.556 528.297 121.556H530.065V124H527.803C526.633 124 525.775 123.688 525.229 123.064C524.709 122.492 524.449 121.686 524.449 120.594V113.002H522.031V110.558H524.449V107.438L527.413 106.216ZM531.191 110.558H534.415L537.977 120.126L541.383 110.558H544.607L537.327 129.148H534.155L536.521 123.688L531.191 110.558Z" fill="white"/>
<path d="M121.25 99.625C125.188 102.25 128 106.938 128 112C128 120.438 121.25 127 113 127C104.562 127 98 120.438 98 112C98 110.5 98.1875 109 98.5625 107.5L71.375 83.6875C69.3125 84.625 67.25 85 65 85C56.5625 85 50 78.4375 50 70C50 61.75 56.5625 55 65 55C68.9375 55 72.6875 56.6875 75.5 59.5L110 45.625C110.188 37.5625 116.75 31 125 31C133.25 31 140 37.75 140 46C140 53.125 134.938 59.125 128.375 60.625L121.25 99.625ZM79.25 74.6875L106.438 98.5C107.375 98.125 108.5 97.75 109.438 97.5625L116.562 58.5625C115.812 58 115.062 57.4375 114.312 56.6875L79.8125 70.5625C79.8125 71.875 79.625 73.375 79.25 74.6875Z" fill="white"/>
</svg>
